<svg width="1363" height="163" viewBox="0 0 1363 163" fill="none" xmlns="http://www.w3.org/2000/svg">
<path d="M0 15C0 6.71573 6.71573 0 15 0H37V163H15C6.71573 163 0 156.284 0 148V15Z" fill="#424242"/>
<rect width="1097" height="163" transform="translate(37)" fill="#F0F0F0"/>
<path d="M105.902 50.8867V53.6289H96.9961V50.8867H105.902ZM98.0391 43.9375V61H94.5234V43.9375H98.0391ZM108.41 43.9375V61H104.906V43.9375H108.41ZM117.094 61.2344C116.109 61.2344 115.227 61.0781 114.445 60.7656C113.664 60.4453 113 60.0039 112.453 59.4414C111.914 58.8789 111.5 58.2266 111.211 57.4844C110.922 56.7344 110.777 55.9375 110.777 55.0938V54.625C110.777 53.6641 110.914 52.7852 111.188 51.9883C111.461 51.1914 111.852 50.5 112.359 49.9141C112.875 49.3281 113.5 48.8789 114.234 48.5664C114.969 48.2461 115.797 48.0859 116.719 48.0859C117.617 48.0859 118.414 48.2344 119.109 48.5312C119.805 48.8281 120.387 49.25 120.855 49.7969C121.332 50.3438 121.691 51 121.934 51.7656C122.176 52.5234 122.297 53.3672 122.297 54.2969V55.7031H112.219V53.4531H118.98V53.1953C118.98 52.7266 118.895 52.3086 118.723 51.9414C118.559 51.5664 118.309 51.2695 117.973 51.0508C117.637 50.832 117.207 50.7227 116.684 50.7227C116.238 50.7227 115.855 50.8203 115.535 51.0156C115.215 51.2109 114.953 51.4844 114.75 51.8359C114.555 52.1875 114.406 52.6016 114.305 53.0781C114.211 53.5469 114.164 54.0625 114.164 54.625V55.0938C114.164 55.6016 114.234 56.0703 114.375 56.5C114.523 56.9297 114.73 57.3008 114.996 57.6133C115.27 57.9258 115.598 58.168 115.98 58.3398C116.371 58.5117 116.812 58.5977 117.305 58.5977C117.914 58.5977 118.48 58.4805 119.004 58.2461C119.535 58.0039 119.992 57.6406 120.375 57.1562L122.016 58.9375C121.75 59.3203 121.387 59.6875 120.926 60.0391C120.473 60.3906 119.926 60.6797 119.285 60.9062C118.645 61.125 117.914 61.2344 117.094 61.2344ZM131.062 58.1406V52.4922C131.062 52.0859 130.996 51.7383 130.863 51.4492C130.73 51.1523 130.523 50.9219 130.242 50.7578C129.969 50.5938 129.613 50.5117 129.176 50.5117C128.801 50.5117 128.477 50.5781 128.203 50.7109C127.93 50.8359 127.719 51.0195 127.57 51.2617C127.422 51.4961 127.348 51.7734 127.348 52.0938H123.973C123.973 51.5547 124.098 51.043 124.348 50.5586C124.598 50.0742 124.961 49.6484 125.438 49.2812C125.914 48.9062 126.48 48.6133 127.137 48.4023C127.801 48.1914 128.543 48.0859 129.363 48.0859C130.348 48.0859 131.223 48.25 131.988 48.5781C132.754 48.9062 133.355 49.3984 133.793 50.0547C134.238 50.7109 134.461 51.5312 134.461 52.5156V57.9414C134.461 58.6367 134.504 59.207 134.59 59.6523C134.676 60.0898 134.801 60.4727 134.965 60.8008V61H131.555C131.391 60.6562 131.266 60.2266 131.18 59.7109C131.102 59.1875 131.062 58.6641 131.062 58.1406ZM131.508 53.2773L131.531 55.1875H129.645C129.199 55.1875 128.812 55.2383 128.484 55.3398C128.156 55.4414 127.887 55.5859 127.676 55.7734C127.465 55.9531 127.309 56.1641 127.207 56.4062C127.113 56.6484 127.066 56.9141 127.066 57.2031C127.066 57.4922 127.133 57.7539 127.266 57.9883C127.398 58.2148 127.59 58.3945 127.84 58.5273C128.09 58.6523 128.383 58.7148 128.719 58.7148C129.227 58.7148 129.668 58.6133 130.043 58.4102C130.418 58.207 130.707 57.957 130.91 57.6602C131.121 57.3633 131.23 57.082 131.238 56.8164L132.129 58.2461C132.004 58.5664 131.832 58.8984 131.613 59.2422C131.402 59.5859 131.133 59.9102 130.805 60.2148C130.477 60.5117 130.082 60.7578 129.621 60.9531C129.16 61.1406 128.613 61.2344 127.98 61.2344C127.176 61.2344 126.445 61.0742 125.789 60.7539C125.141 60.4258 124.625 59.9766 124.242 59.4062C123.867 58.8281 123.68 58.1719 123.68 57.4375C123.68 56.7734 123.805 56.1836 124.055 55.668C124.305 55.1523 124.672 54.7188 125.156 54.3672C125.648 54.0078 126.262 53.7383 126.996 53.5586C127.73 53.3711 128.582 53.2773 129.551 53.2773H131.508ZM140.438 51.0859V61H137.062V48.3203H140.238L140.438 51.0859ZM144.258 48.2383L144.199 51.3672C144.035 51.3438 143.836 51.3242 143.602 51.3086C143.375 51.2852 143.168 51.2734 142.98 51.2734C142.504 51.2734 142.09 51.3359 141.738 51.4609C141.395 51.5781 141.105 51.7539 140.871 51.9883C140.645 52.2227 140.473 52.5078 140.355 52.8438C140.246 53.1797 140.184 53.5625 140.168 53.9922L139.488 53.7812C139.488 52.9609 139.57 52.207 139.734 51.5195C139.898 50.8242 140.137 50.2188 140.449 49.7031C140.77 49.1875 141.16 48.7891 141.621 48.5078C142.082 48.2266 142.609 48.0859 143.203 48.0859C143.391 48.0859 143.582 48.1016 143.777 48.1328C143.973 48.1562 144.133 48.1914 144.258 48.2383ZM152.648 48.3203V50.7109H145.266V48.3203H152.648ZM147.094 45.1914H150.469V57.1797C150.469 57.5469 150.516 57.8281 150.609 58.0234C150.711 58.2188 150.859 58.3555 151.055 58.4336C151.25 58.5039 151.496 58.5391 151.793 58.5391C152.004 58.5391 152.191 58.5312 152.355 58.5156C152.527 58.4922 152.672 58.4688 152.789 58.4453L152.801 60.9297C152.512 61.0234 152.199 61.0977 151.863 61.1523C151.527 61.207 151.156 61.2344 150.75 61.2344C150.008 61.2344 149.359 61.1133 148.805 60.8711C148.258 60.6211 147.836 60.2227 147.539 59.6758C147.242 59.1289 147.094 58.4102 147.094 57.5195V45.1914ZM165.996 61H162.281L162.305 58.2578H165.996C166.918 58.2578 167.695 58.0508 168.328 57.6367C168.961 57.2148 169.438 56.6016 169.758 55.7969C170.086 54.9922 170.25 54.0195 170.25 52.8789V52.0469C170.25 51.1719 170.156 50.4023 169.969 49.7383C169.789 49.0742 169.52 48.5156 169.16 48.0625C168.801 47.6094 168.359 47.2695 167.836 47.043C167.312 46.8086 166.711 46.6914 166.031 46.6914H162.211V43.9375H166.031C167.172 43.9375 168.215 44.1328 169.16 44.5234C170.113 44.9062 170.938 45.457 171.633 46.1758C172.328 46.8945 172.863 47.7539 173.238 48.7539C173.621 49.7461 173.812 50.8516 173.812 52.0703V52.8789C173.812 54.0898 173.621 55.1953 173.238 56.1953C172.863 57.1953 172.328 58.0547 171.633 58.7734C170.945 59.4844 170.121 60.0352 169.16 60.4258C168.207 60.8086 167.152 61 165.996 61ZM164.273 43.9375V61H160.758V43.9375H164.273ZM179.719 48.3203V61H176.332V48.3203H179.719ZM176.121 45.0156C176.121 44.5234 176.293 44.1172 176.637 43.7969C176.98 43.4766 177.441 43.3164 178.02 43.3164C178.59 43.3164 179.047 43.4766 179.391 43.7969C179.742 44.1172 179.918 44.5234 179.918 45.0156C179.918 45.5078 179.742 45.9141 179.391 46.2344C179.047 46.5547 178.59 46.7148 178.02 46.7148C177.441 46.7148 176.98 46.5547 176.637 46.2344C176.293 45.9141 176.121 45.5078 176.121 45.0156ZM189.363 57.4961C189.363 57.2539 189.293 57.0352 189.152 56.8398C189.012 56.6445 188.75 56.4648 188.367 56.3008C187.992 56.1289 187.449 55.9727 186.738 55.832C186.098 55.6914 185.5 55.5156 184.945 55.3047C184.398 55.0859 183.922 54.8242 183.516 54.5195C183.117 54.2148 182.805 53.8555 182.578 53.4414C182.352 53.0195 182.238 52.5391 182.238 52C182.238 51.4688 182.352 50.9688 182.578 50.5C182.812 50.0312 183.145 49.6172 183.574 49.2578C184.012 48.8906 184.543 48.6055 185.168 48.4023C185.801 48.1914 186.512 48.0859 187.301 48.0859C188.402 48.0859 189.348 48.2617 190.137 48.6133C190.934 48.9648 191.543 49.4492 191.965 50.0664C192.395 50.6758 192.609 51.3711 192.609 52.1523H189.234C189.234 51.8242 189.164 51.5312 189.023 51.2734C188.891 51.0078 188.68 50.8008 188.391 50.6523C188.109 50.4961 187.742 50.418 187.289 50.418C186.914 50.418 186.59 50.4844 186.316 50.6172C186.043 50.7422 185.832 50.9141 185.684 51.1328C185.543 51.3438 185.473 51.5781 185.473 51.8359C185.473 52.0312 185.512 52.207 185.59 52.3633C185.676 52.5117 185.812 52.6484 186 52.7734C186.188 52.8984 186.43 53.0156 186.727 53.125C187.031 53.2266 187.406 53.3203 187.852 53.4062C188.766 53.5938 189.582 53.8398 190.301 54.1445C191.02 54.4414 191.59 54.8477 192.012 55.3633C192.434 55.8711 192.645 56.5391 192.645 57.3672C192.645 57.9297 192.52 58.4453 192.27 58.9141C192.02 59.3828 191.66 59.793 191.191 60.1445C190.723 60.4883 190.16 60.7578 189.504 60.9531C188.855 61.1406 188.125 61.2344 187.312 61.2344C186.133 61.2344 185.133 61.0234 184.312 60.6016C183.5 60.1797 182.883 59.6445 182.461 58.9961C182.047 58.3398 181.84 57.668 181.84 56.9805H185.039C185.055 57.4414 185.172 57.8125 185.391 58.0938C185.617 58.375 185.902 58.5781 186.246 58.7031C186.598 58.8281 186.977 58.8906 187.383 58.8906C187.82 58.8906 188.184 58.832 188.473 58.7148C188.762 58.5898 188.98 58.4258 189.129 58.2227C189.285 58.0117 189.363 57.7695 189.363 57.4961ZM200.672 61.2344C199.688 61.2344 198.805 61.0781 198.023 60.7656C197.242 60.4453 196.578 60.0039 196.031 59.4414C195.492 58.8789 195.078 58.2266 194.789 57.4844C194.5 56.7344 194.355 55.9375 194.355 55.0938V54.625C194.355 53.6641 194.492 52.7852 194.766 51.9883C195.039 51.1914 195.43 50.5 195.938 49.9141C196.453 49.3281 197.078 48.8789 197.812 48.5664C198.547 48.2461 199.375 48.0859 200.297 48.0859C201.195 48.0859 201.992 48.2344 202.688 48.5312C203.383 48.8281 203.965 49.25 204.434 49.7969C204.91 50.3438 205.27 51 205.512 51.7656C205.754 52.5234 205.875 53.3672 205.875 54.2969V55.7031H195.797V53.4531H202.559V53.1953C202.559 52.7266 202.473 52.3086 202.301 51.9414C202.137 51.5664 201.887 51.2695 201.551 51.0508C201.215 50.832 200.785 50.7227 200.262 50.7227C199.816 50.7227 199.434 50.8203 199.113 51.0156C198.793 51.2109 198.531 51.4844 198.328 51.8359C198.133 52.1875 197.984 52.6016 197.883 53.0781C197.789 53.5469 197.742 54.0625 197.742 54.625V55.0938C197.742 55.6016 197.812 56.0703 197.953 56.5C198.102 56.9297 198.309 57.3008 198.574 57.6133C198.848 57.9258 199.176 58.168 199.559 58.3398C199.949 58.5117 200.391 58.5977 200.883 58.5977C201.492 58.5977 202.059 58.4805 202.582 58.2461C203.113 58.0039 203.57 57.6406 203.953 57.1562L205.594 58.9375C205.328 59.3203 204.965 59.6875 204.504 60.0391C204.051 60.3906 203.504 60.6797 202.863 60.9062C202.223 61.125 201.492 61.2344 200.672 61.2344ZM214.641 58.1406V52.4922C214.641 52.0859 214.574 51.7383 214.441 51.4492C214.309 51.1523 214.102 50.9219 213.82 50.7578C213.547 50.5938 213.191 50.5117 212.754 50.5117C212.379 50.5117 212.055 50.5781 211.781 50.7109C211.508 50.8359 211.297 51.0195 211.148 51.2617C211 51.4961 210.926 51.7734 210.926 52.0938H207.551C207.551 51.5547 207.676 51.043 207.926 50.5586C208.176 50.0742 208.539 49.6484 209.016 49.2812C209.492 48.9062 210.059 48.6133 210.715 48.4023C211.379 48.1914 212.121 48.0859 212.941 48.0859C213.926 48.0859 214.801 48.25 215.566 48.5781C216.332 48.9062 216.934 49.3984 217.371 50.0547C217.816 50.7109 218.039 51.5312 218.039 52.5156V57.9414C218.039 58.6367 218.082 59.207 218.168 59.6523C218.254 60.0898 218.379 60.4727 218.543 60.8008V61H215.133C214.969 60.6562 214.844 60.2266 214.758 59.7109C214.68 59.1875 214.641 58.6641 214.641 58.1406ZM215.086 53.2773L215.109 55.1875H213.223C212.777 55.1875 212.391 55.2383 212.062 55.3398C211.734 55.4414 211.465 55.5859 211.254 55.7734C211.043 55.9531 210.887 56.1641 210.785 56.4062C210.691 56.6484 210.645 56.9141 210.645 57.2031C210.645 57.4922 210.711 57.7539 210.844 57.9883C210.977 58.2148 211.168 58.3945 211.418 58.5273C211.668 58.6523 211.961 58.7148 212.297 58.7148C212.805 58.7148 213.246 58.6133 213.621 58.4102C213.996 58.207 214.285 57.957 214.488 57.6602C214.699 57.3633 214.809 57.082 214.816 56.8164L215.707 58.2461C215.582 58.5664 215.41 58.8984 215.191 59.2422C214.98 59.5859 214.711 59.9102 214.383 60.2148C214.055 60.5117 213.66 60.7578 213.199 60.9531C212.738 61.1406 212.191 61.2344 211.559 61.2344C210.754 61.2344 210.023 61.0742 209.367 60.7539C208.719 60.4258 208.203 59.9766 207.82 59.4062C207.445 58.8281 207.258 58.1719 207.258 57.4375C207.258 56.7734 207.383 56.1836 207.633 55.668C207.883 55.1523 208.25 54.7188 208.734 54.3672C209.227 54.0078 209.84 53.7383 210.574 53.5586C211.309 53.3711 212.16 53.2773 213.129 53.2773H215.086ZM227.496 57.4961C227.496 57.2539 227.426 57.0352 227.285 56.8398C227.145 56.6445 226.883 56.4648 226.5 56.3008C226.125 56.1289 225.582 55.9727 224.871 55.832C224.23 55.6914 223.633 55.5156 223.078 55.3047C222.531 55.0859 222.055 54.8242 221.648 54.5195C221.25 54.2148 220.938 53.8555 220.711 53.4414C220.484 53.0195 220.371 52.5391 220.371 52C220.371 51.4688 220.484 50.9688 220.711 50.5C220.945 50.0312 221.277 49.6172 221.707 49.2578C222.145 48.8906 222.676 48.6055 223.301 48.4023C223.934 48.1914 224.645 48.0859 225.434 48.0859C226.535 48.0859 227.48 48.2617 228.27 48.6133C229.066 48.9648 229.676 49.4492 230.098 50.0664C230.527 50.6758 230.742 51.3711 230.742 52.1523H227.367C227.367 51.8242 227.297 51.5312 227.156 51.2734C227.023 51.0078 226.812 50.8008 226.523 50.6523C226.242 50.4961 225.875 50.418 225.422 50.418C225.047 50.418 224.723 50.4844 224.449 50.6172C224.176 50.7422 223.965 50.9141 223.816 51.1328C223.676 51.3438 223.605 51.5781 223.605 51.8359C223.605 52.0312 223.645 52.207 223.723 52.3633C223.809 52.5117 223.945 52.6484 224.133 52.7734C224.32 52.8984 224.562 53.0156 224.859 53.125C225.164 53.2266 225.539 53.3203 225.984 53.4062C226.898 53.5938 227.715 53.8398 228.434 54.1445C229.152 54.4414 229.723 54.8477 230.145 55.3633C230.566 55.8711 230.777 56.5391 230.777 57.3672C230.777 57.9297 230.652 58.4453 230.402 58.9141C230.152 59.3828 229.793 59.793 229.324 60.1445C228.855 60.4883 228.293 60.7578 227.637 60.9531C226.988 61.1406 226.258 61.2344 225.445 61.2344C224.266 61.2344 223.266 61.0234 222.445 60.6016C221.633 60.1797 221.016 59.6445 220.594 58.9961C220.18 58.3398 219.973 57.668 219.973 56.9805H223.172C223.188 57.4414 223.305 57.8125 223.523 58.0938C223.75 58.375 224.035 58.5781 224.379 58.7031C224.73 58.8281 225.109 58.8906 225.516 58.8906C225.953 58.8906 226.316 58.832 226.605 58.7148C226.895 58.5898 227.113 58.4258 227.262 58.2227C227.418 58.0117 227.496 57.7695 227.496 57.4961ZM238.805 61.2344C237.82 61.2344 236.938 61.0781 236.156 60.7656C235.375 60.4453 234.711 60.0039 234.164 59.4414C233.625 58.8789 233.211 58.2266 232.922 57.4844C232.633 56.7344 232.488 55.9375 232.488 55.0938V54.625C232.488 53.6641 232.625 52.7852 232.898 51.9883C233.172 51.1914 233.562 50.5 234.07 49.9141C234.586 49.3281 235.211 48.8789 235.945 48.5664C236.68 48.2461 237.508 48.0859 238.43 48.0859C239.328 48.0859 240.125 48.2344 240.82 48.5312C241.516 48.8281 242.098 49.25 242.566 49.7969C243.043 50.3438 243.402 51 243.645 51.7656C243.887 52.5234 244.008 53.3672 244.008 54.2969V55.7031H233.93V53.4531H240.691V53.1953C240.691 52.7266 240.605 52.3086 240.434 51.9414C240.27 51.5664 240.02 51.2695 239.684 51.0508C239.348 50.832 238.918 50.7227 238.395 50.7227C237.949 50.7227 237.566 50.8203 237.246 51.0156C236.926 51.2109 236.664 51.4844 236.461 51.8359C236.266 52.1875 236.117 52.6016 236.016 53.0781C235.922 53.5469 235.875 54.0625 235.875 54.625V55.0938C235.875 55.6016 235.945 56.0703 236.086 56.5C236.234 56.9297 236.441 57.3008 236.707 57.6133C236.98 57.9258 237.309 58.168 237.691 58.3398C238.082 58.5117 238.523 58.5977 239.016 58.5977C239.625 58.5977 240.191 58.4805 240.715 58.2461C241.246 58.0039 241.703 57.6406 242.086 57.1562L243.727 58.9375C243.461 59.3203 243.098 59.6875 242.637 60.0391C242.184 60.3906 241.637 60.6797 240.996 60.9062C240.355 61.125 239.625 61.2344 238.805 61.2344ZM259.055 46.8555L254.414 61H250.676L257.016 43.9375H259.395L259.055 46.8555ZM262.91 61L258.258 46.8555L257.883 43.9375H260.285L266.66 61H262.91ZM262.699 54.6484V57.4023H253.688V54.6484H262.699ZM270.961 51.0273V61H267.586V48.3203H270.75L270.961 51.0273ZM270.469 54.2148H269.555C269.555 53.2773 269.676 52.4336 269.918 51.6836C270.16 50.9258 270.5 50.2812 270.938 49.75C271.375 49.2109 271.895 48.8008 272.496 48.5195C273.105 48.2305 273.785 48.0859 274.535 48.0859C275.129 48.0859 275.672 48.1719 276.164 48.3438C276.656 48.5156 277.078 48.7891 277.43 49.1641C277.789 49.5391 278.062 50.0352 278.25 50.6523C278.445 51.2695 278.543 52.0234 278.543 52.9141V61H275.145V52.9023C275.145 52.3398 275.066 51.9023 274.91 51.5898C274.754 51.2773 274.523 51.0586 274.219 50.9336C273.922 50.8008 273.555 50.7344 273.117 50.7344C272.664 50.7344 272.27 50.8242 271.934 51.0039C271.605 51.1836 271.332 51.4336 271.113 51.7539C270.902 52.0664 270.742 52.4336 270.633 52.8555C270.523 53.2773 270.469 53.7305 270.469 54.2148ZM287.953 58.1406V52.4922C287.953 52.0859 287.887 51.7383 287.754 51.4492C287.621 51.1523 287.414 50.9219 287.133 50.7578C286.859 50.5938 286.504 50.5117 286.066 50.5117C285.691 50.5117 285.367 50.5781 285.094 50.7109C284.82 50.8359 284.609 51.0195 284.461 51.2617C284.312 51.4961 284.238 51.7734 284.238 52.0938H280.863C280.863 51.5547 280.988 51.043 281.238 50.5586C281.488 50.0742 281.852 49.6484 282.328 49.2812C282.805 48.9062 283.371 48.6133 284.027 48.4023C284.691 48.1914 285.434 48.0859 286.254 48.0859C287.238 48.0859 288.113 48.25 288.879 48.5781C289.645 48.9062 290.246 49.3984 290.684 50.0547C291.129 50.7109 291.352 51.5312 291.352 52.5156V57.9414C291.352 58.6367 291.395 59.207 291.48 59.6523C291.566 60.0898 291.691 60.4727 291.855 60.8008V61H288.445C288.281 60.6562 288.156 60.2266 288.07 59.7109C287.992 59.1875 287.953 58.6641 287.953 58.1406ZM288.398 53.2773L288.422 55.1875H286.535C286.09 55.1875 285.703 55.2383 285.375 55.3398C285.047 55.4414 284.777 55.5859 284.566 55.7734C284.355 55.9531 284.199 56.1641 284.098 56.4062C284.004 56.6484 283.957 56.9141 283.957 57.2031C283.957 57.4922 284.023 57.7539 284.156 57.9883C284.289 58.2148 284.48 58.3945 284.73 58.5273C284.98 58.6523 285.273 58.7148 285.609 58.7148C286.117 58.7148 286.559 58.6133 286.934 58.4102C287.309 58.207 287.598 57.957 287.801 57.6602C288.012 57.3633 288.121 57.082 288.129 56.8164L289.02 58.2461C288.895 58.5664 288.723 58.8984 288.504 59.2422C288.293 59.5859 288.023 59.9102 287.695 60.2148C287.367 60.5117 286.973 60.7578 286.512 60.9531C286.051 61.1406 285.504 61.2344 284.871 61.2344C284.066 61.2344 283.336 61.0742 282.68 60.7539C282.031 60.4258 281.516 59.9766 281.133 59.4062C280.758 58.8281 280.57 58.1719 280.57 57.4375C280.57 56.7734 280.695 56.1836 280.945 55.668C281.195 55.1523 281.562 54.7188 282.047 54.3672C282.539 54.0078 283.152 53.7383 283.887 53.5586C284.621 53.3711 285.473 53.2773 286.441 53.2773H288.398ZM297.516 43V61H294.129V43H297.516ZM304.066 59.5703L307.43 48.3203H311.051L305.953 62.9102C305.844 63.2305 305.695 63.5742 305.508 63.9414C305.328 64.3086 305.082 64.6562 304.77 64.9844C304.465 65.3203 304.078 65.5938 303.609 65.8047C303.148 66.0156 302.582 66.1211 301.91 66.1211C301.59 66.1211 301.328 66.1016 301.125 66.0625C300.922 66.0234 300.68 65.9688 300.398 65.8984V63.4258C300.484 63.4258 300.574 63.4258 300.668 63.4258C300.762 63.4336 300.852 63.4375 300.938 63.4375C301.383 63.4375 301.746 63.3867 302.027 63.2852C302.309 63.1836 302.535 63.0273 302.707 62.8164C302.879 62.6133 303.016 62.3477 303.117 62.0195L304.066 59.5703ZM302.66 48.3203L305.414 57.5078L305.895 61.082L303.598 61.3281L299.039 48.3203H302.66ZM319.254 57.4961C319.254 57.2539 319.184 57.0352 319.043 56.8398C318.902 56.6445 318.641 56.4648 318.258 56.3008C317.883 56.1289 317.34 55.9727 316.629 55.832C315.988 55.6914 315.391 55.5156 314.836 55.3047C314.289 55.0859 313.812 54.8242 313.406 54.5195C313.008 54.2148 312.695 53.8555 312.469 53.4414C312.242 53.0195 312.129 52.5391 312.129 52C312.129 51.4688 312.242 50.9688 312.469 50.5C312.703 50.0312 313.035 49.6172 313.465 49.2578C313.902 48.8906 314.434 48.6055 315.059 48.4023C315.691 48.1914 316.402 48.0859 317.191 48.0859C318.293 48.0859 319.238 48.2617 320.027 48.6133C320.824 48.9648 321.434 49.4492 321.855 50.0664C322.285 50.6758 322.5 51.3711 322.5 52.1523H319.125C319.125 51.8242 319.055 51.5312 318.914 51.2734C318.781 51.0078 318.57 50.8008 318.281 50.6523C318 50.4961 317.633 50.418 317.18 50.418C316.805 50.418 316.48 50.4844 316.207 50.6172C315.934 50.7422 315.723 50.9141 315.574 51.1328C315.434 51.3438 315.363 51.5781 315.363 51.8359C315.363 52.0312 315.402 52.207 315.48 52.3633C315.566 52.5117 315.703 52.6484 315.891 52.7734C316.078 52.8984 316.32 53.0156 316.617 53.125C316.922 53.2266 317.297 53.3203 317.742 53.4062C318.656 53.5938 319.473 53.8398 320.191 54.1445C320.91 54.4414 321.48 54.8477 321.902 55.3633C322.324 55.8711 322.535 56.5391 322.535 57.3672C322.535 57.9297 322.41 58.4453 322.16 58.9141C321.91 59.3828 321.551 59.793 321.082 60.1445C320.613 60.4883 320.051 60.7578 319.395 60.9531C318.746 61.1406 318.016 61.2344 317.203 61.2344C316.023 61.2344 315.023 61.0234 314.203 60.6016C313.391 60.1797 312.773 59.6445 312.352 58.9961C311.938 58.3398 311.73 57.668 311.73 56.9805H314.93C314.945 57.4414 315.062 57.8125 315.281 58.0938C315.508 58.375 315.793 58.5781 316.137 58.7031C316.488 58.8281 316.867 58.8906 317.273 58.8906C317.711 58.8906 318.074 58.832 318.363 58.7148C318.652 58.5898 318.871 58.4258 319.02 58.2227C319.176 58.0117 319.254 57.7695 319.254 57.4961ZM328.289 48.3203V61H324.902V48.3203H328.289ZM324.691 45.0156C324.691 44.5234 324.863 44.1172 325.207 43.7969C325.551 43.4766 326.012 43.3164 326.59 43.3164C327.16 43.3164 327.617 43.4766 327.961 43.7969C328.312 44.1172 328.488 44.5234 328.488 45.0156C328.488 45.5078 328.312 45.9141 327.961 46.2344C327.617 46.5547 327.16 46.7148 326.59 46.7148C326.012 46.7148 325.551 46.5547 325.207 46.2344C324.863 45.9141 324.691 45.5078 324.691 45.0156ZM337.934 57.4961C337.934 57.2539 337.863 57.0352 337.723 56.8398C337.582 56.6445 337.32 56.4648 336.938 56.3008C336.562 56.1289 336.02 55.9727 335.309 55.832C334.668 55.6914 334.07 55.5156 333.516 55.3047C332.969 55.0859 332.492 54.8242 332.086 54.5195C331.688 54.2148 331.375 53.8555 331.148 53.4414C330.922 53.0195 330.809 52.5391 330.809 52C330.809 51.4688 330.922 50.9688 331.148 50.5C331.383 50.0312 331.715 49.6172 332.145 49.2578C332.582 48.8906 333.113 48.6055 333.738 48.4023C334.371 48.1914 335.082 48.0859 335.871 48.0859C336.973 48.0859 337.918 48.2617 338.707 48.6133C339.504 48.9648 340.113 49.4492 340.535 50.0664C340.965 50.6758 341.18 51.3711 341.18 52.1523H337.805C337.805 51.8242 337.734 51.5312 337.594 51.2734C337.461 51.0078 337.25 50.8008 336.961 50.6523C336.68 50.4961 336.312 50.418 335.859 50.418C335.484 50.418 335.16 50.4844 334.887 50.6172C334.613 50.7422 334.402 50.9141 334.254 51.1328C334.113 51.3438 334.043 51.5781 334.043 51.8359C334.043 52.0312 334.082 52.207 334.16 52.3633C334.246 52.5117 334.383 52.6484 334.57 52.7734C334.758 52.8984 335 53.0156 335.297 53.125C335.602 53.2266 335.977 53.3203 336.422 53.4062C337.336 53.5938 338.152 53.8398 338.871 54.1445C339.59 54.4414 340.16 54.8477 340.582 55.3633C341.004 55.8711 341.215 56.5391 341.215 57.3672C341.215 57.9297 341.09 58.4453 340.84 58.9141C340.59 59.3828 340.23 59.793 339.762 60.1445C339.293 60.4883 338.73 60.7578 338.074 60.9531C337.426 61.1406 336.695 61.2344 335.883 61.2344C334.703 61.2344 333.703 61.0234 332.883 60.6016C332.07 60.1797 331.453 59.6445 331.031 58.9961C330.617 58.3398 330.41 57.668 330.41 56.9805H333.609C333.625 57.4414 333.742 57.8125 333.961 58.0938C334.188 58.375 334.473 58.5781 334.816 58.7031C335.168 58.8281 335.547 58.8906 335.953 58.8906C336.391 58.8906 336.754 58.832 337.043 58.7148C337.332 58.5898 337.551 58.4258 337.699 58.2227C337.855 58.0117 337.934 57.7695 337.934 57.4961ZM356.227 58.1406V52.4922C356.227 52.0859 356.16 51.7383 356.027 51.4492C355.895 51.1523 355.688 50.9219 355.406 50.7578C355.133 50.5938 354.777 50.5117 354.34 50.5117C353.965 50.5117 353.641 50.5781 353.367 50.7109C353.094 50.8359 352.883 51.0195 352.734 51.2617C352.586 51.4961 352.512 51.7734 352.512 52.0938H349.137C349.137 51.5547 349.262 51.043 349.512 50.5586C349.762 50.0742 350.125 49.6484 350.602 49.2812C351.078 48.9062 351.645 48.6133 352.301 48.4023C352.965 48.1914 353.707 48.0859 354.527 48.0859C355.512 48.0859 356.387 48.25 357.152 48.5781C357.918 48.9062 358.52 49.3984 358.957 50.0547C359.402 50.7109 359.625 51.5312 359.625 52.5156V57.9414C359.625 58.6367 359.668 59.207 359.754 59.6523C359.84 60.0898 359.965 60.4727 360.129 60.8008V61H356.719C356.555 60.6562 356.43 60.2266 356.344 59.7109C356.266 59.1875 356.227 58.6641 356.227 58.1406ZM356.672 53.2773L356.695 55.1875H354.809C354.363 55.1875 353.977 55.2383 353.648 55.3398C353.32 55.4414 353.051 55.5859 352.84 55.7734C352.629 55.9531 352.473 56.1641 352.371 56.4062C352.277 56.6484 352.23 56.9141 352.23 57.2031C352.23 57.4922 352.297 57.7539 352.43 57.9883C352.562 58.2148 352.754 58.3945 353.004 58.5273C353.254 58.6523 353.547 58.7148 353.883 58.7148C354.391 58.7148 354.832 58.6133 355.207 58.4102C355.582 58.207 355.871 57.957 356.074 57.6602C356.285 57.3633 356.395 57.082 356.402 56.8164L357.293 58.2461C357.168 58.5664 356.996 58.8984 356.777 59.2422C356.566 59.5859 356.297 59.9102 355.969 60.2148C355.641 60.5117 355.246 60.7578 354.785 60.9531C354.324 61.1406 353.777 61.2344 353.145 61.2344C352.34 61.2344 351.609 61.0742 350.953 60.7539C350.305 60.4258 349.789 59.9766 349.406 59.4062C349.031 58.8281 348.844 58.1719 348.844 57.4375C348.844 56.7734 348.969 56.1836 349.219 55.668C349.469 55.1523 349.836 54.7188 350.32 54.3672C350.812 54.0078 351.426 53.7383 352.16 53.5586C352.895 53.3711 353.746 53.2773 354.715 53.2773H356.672ZM365.531 51.0273V61H362.156V48.3203H365.32L365.531 51.0273ZM365.039 54.2148H364.125C364.125 53.2773 364.246 52.4336 364.488 51.6836C364.73 50.9258 365.07 50.2812 365.508 49.75C365.945 49.2109 366.465 48.8008 367.066 48.5195C367.676 48.2305 368.355 48.0859 369.105 48.0859C369.699 48.0859 370.242 48.1719 370.734 48.3438C371.227 48.5156 371.648 48.7891 372 49.1641C372.359 49.5391 372.633 50.0352 372.82 50.6523C373.016 51.2695 373.113 52.0234 373.113 52.9141V61H369.715V52.9023C369.715 52.3398 369.637 51.9023 369.48 51.5898C369.324 51.2773 369.094 51.0586 368.789 50.9336C368.492 50.8008 368.125 50.7344 367.688 50.7344C367.234 50.7344 366.84 50.8242 366.504 51.0039C366.176 51.1836 365.902 51.4336 365.684 51.7539C365.473 52.0664 365.312 52.4336 365.203 52.8555C365.094 53.2773 365.039 53.7305 365.039 54.2148ZM383.168 58.2344V43H386.566V61H383.508L383.168 58.2344ZM375.152 54.8125V54.5664C375.152 53.5977 375.262 52.7188 375.48 51.9297C375.699 51.1328 376.02 50.4492 376.441 49.8789C376.863 49.3086 377.383 48.8672 378 48.5547C378.617 48.2422 379.32 48.0859 380.109 48.0859C380.852 48.0859 381.5 48.2422 382.055 48.5547C382.617 48.8672 383.094 49.3125 383.484 49.8906C383.883 50.4609 384.203 51.1367 384.445 51.918C384.688 52.6914 384.863 53.5391 384.973 54.4609V55C384.863 55.8828 384.688 56.7031 384.445 57.4609C384.203 58.2188 383.883 58.8828 383.484 59.4531C383.094 60.0156 382.617 60.4531 382.055 60.7656C381.492 61.0781 380.836 61.2344 380.086 61.2344C379.297 61.2344 378.594 61.0742 377.977 60.7539C377.367 60.4336 376.852 59.9844 376.43 59.4062C376.016 58.8281 375.699 58.1484 375.48 57.3672C375.262 56.5859 375.152 55.7344 375.152 54.8125ZM378.527 54.5664V54.8125C378.527 55.3359 378.566 55.8242 378.645 56.2773C378.73 56.7305 378.867 57.1328 379.055 57.4844C379.25 57.8281 379.5 58.0977 379.805 58.293C380.117 58.4805 380.496 58.5742 380.941 58.5742C381.52 58.5742 381.996 58.4453 382.371 58.1875C382.746 57.9219 383.031 57.5586 383.227 57.0977C383.43 56.6367 383.547 56.1055 383.578 55.5039V53.9688C383.555 53.4766 383.484 53.0352 383.367 52.6445C383.258 52.2461 383.094 51.9062 382.875 51.625C382.664 51.3438 382.398 51.125 382.078 50.9688C381.766 50.8125 381.395 50.7344 380.965 50.7344C380.527 50.7344 380.152 50.8359 379.84 51.0391C379.527 51.2344 379.273 51.5039 379.078 51.8477C378.891 52.1914 378.75 52.5977 378.656 53.0664C378.57 53.5273 378.527 54.0273 378.527 54.5664ZM402.035 54.918H397.688V52.1758H402.035C402.707 52.1758 403.254 52.0664 403.676 51.8477C404.098 51.6211 404.406 51.3086 404.602 50.9102C404.797 50.5117 404.895 50.0625 404.895 49.5625C404.895 49.0547 404.797 48.582 404.602 48.1445C404.406 47.707 404.098 47.3555 403.676 47.0898C403.254 46.8242 402.707 46.6914 402.035 46.6914H398.906V61H395.391V43.9375H402.035C403.371 43.9375 404.516 44.1797 405.469 44.6641C406.43 45.1406 407.164 45.8008 407.672 46.6445C408.18 47.4883 408.434 48.4531 408.434 49.5391C408.434 50.6406 408.18 51.5938 407.672 52.3984C407.164 53.2031 406.43 53.8242 405.469 54.2617C404.516 54.6992 403.371 54.918 402.035 54.918ZM414.023 51.0859V61H410.648V48.3203H413.824L414.023 51.0859ZM417.844 48.2383L417.785 51.3672C417.621 51.3438 417.422 51.3242 417.188 51.3086C416.961 51.2852 416.754 51.2734 416.566 51.2734C416.09 51.2734 415.676 51.3359 415.324 51.4609C414.98 51.5781 414.691 51.7539 414.457 51.9883C414.23 52.2227 414.059 52.5078 413.941 52.8438C413.832 53.1797 413.77 53.5625 413.754 53.9922L413.074 53.7812C413.074 52.9609 413.156 52.207 413.32 51.5195C413.484 50.8242 413.723 50.2188 414.035 49.7031C414.355 49.1875 414.746 48.7891 415.207 48.5078C415.668 48.2266 416.195 48.0859 416.789 48.0859C416.977 48.0859 417.168 48.1016 417.363 48.1328C417.559 48.1562 417.719 48.1914 417.844 48.2383ZM425.039 61.2344C424.055 61.2344 423.172 61.0781 422.391 60.7656C421.609 60.4453 420.945 60.0039 420.398 59.4414C419.859 58.8789 419.445 58.2266 419.156 57.4844C418.867 56.7344 418.723 55.9375 418.723 55.0938V54.625C418.723 53.6641 418.859 52.7852 419.133 51.9883C419.406 51.1914 419.797 50.5 420.305 49.9141C420.82 49.3281 421.445 48.8789 422.18 48.5664C422.914 48.2461 423.742 48.0859 424.664 48.0859C425.562 48.0859 426.359 48.2344 427.055 48.5312C427.75 48.8281 428.332 49.25 428.801 49.7969C429.277 50.3438 429.637 51 429.879 51.7656C430.121 52.5234 430.242 53.3672 430.242 54.2969V55.7031H420.164V53.4531H426.926V53.1953C426.926 52.7266 426.84 52.3086 426.668 51.9414C426.504 51.5664 426.254 51.2695 425.918 51.0508C425.582 50.832 425.152 50.7227 424.629 50.7227C424.184 50.7227 423.801 50.8203 423.48 51.0156C423.16 51.2109 422.898 51.4844 422.695 51.8359C422.5 52.1875 422.352 52.6016 422.25 53.0781C422.156 53.5469 422.109 54.0625 422.109 54.625V55.0938C422.109 55.6016 422.18 56.0703 422.32 56.5C422.469 56.9297 422.676 57.3008 422.941 57.6133C423.215 57.9258 423.543 58.168 423.926 58.3398C424.316 58.5117 424.758 58.5977 425.25 58.5977C425.859 58.5977 426.426 58.4805 426.949 58.2461C427.48 58.0039 427.938 57.6406 428.32 57.1562L429.961 58.9375C429.695 59.3203 429.332 59.6875 428.871 60.0391C428.418 60.3906 427.871 60.6797 427.23 60.9062C426.59 61.125 425.859 61.2344 425.039 61.2344ZM439.652 58.2344V43H443.051V61H439.992L439.652 58.2344ZM431.637 54.8125V54.5664C431.637 53.5977 431.746 52.7188 431.965 51.9297C432.184 51.1328 432.504 50.4492 432.926 49.8789C433.348 49.3086 433.867 48.8672 434.484 48.5547C435.102 48.2422 435.805 48.0859 436.594 48.0859C437.336 48.0859 437.984 48.2422 438.539 48.5547C439.102 48.8672 439.578 49.3125 439.969 49.8906C440.367 50.4609 440.688 51.1367 440.93 51.918C441.172 52.6914 441.348 53.5391 441.457 54.4609V55C441.348 55.8828 441.172 56.7031 440.93 57.4609C440.688 58.2188 440.367 58.8828 439.969 59.4531C439.578 60.0156 439.102 60.4531 438.539 60.7656C437.977 61.0781 437.32 61.2344 436.57 61.2344C435.781 61.2344 435.078 61.0742 434.461 60.7539C433.852 60.4336 433.336 59.9844 432.914 59.4062C432.5 58.8281 432.184 58.1484 431.965 57.3672C431.746 56.5859 431.637 55.7344 431.637 54.8125ZM435.012 54.5664V54.8125C435.012 55.3359 435.051 55.8242 435.129 56.2773C435.215 56.7305 435.352 57.1328 435.539 57.4844C435.734 57.8281 435.984 58.0977 436.289 58.293C436.602 58.4805 436.98 58.5742 437.426 58.5742C438.004 58.5742 438.48 58.4453 438.855 58.1875C439.23 57.9219 439.516 57.5586 439.711 57.0977C439.914 56.6367 440.031 56.1055 440.062 55.5039V53.9688C440.039 53.4766 439.969 53.0352 439.852 52.6445C439.742 52.2461 439.578 51.9062 439.359 51.625C439.148 51.3438 438.883 51.125 438.562 50.9688C438.25 50.8125 437.879 50.7344 437.449 50.7344C437.012 50.7344 436.637 50.8359 436.324 51.0391C436.012 51.2344 435.758 51.5039 435.562 51.8477C435.375 52.1914 435.234 52.5977 435.141 53.0664C435.055 53.5273 435.012 54.0273 435.012 54.5664ZM449.25 48.3203V61H445.863V48.3203H449.25ZM445.652 45.0156C445.652 44.5234 445.824 44.1172 446.168 43.7969C446.512 43.4766 446.973 43.3164 447.551 43.3164C448.121 43.3164 448.578 43.4766 448.922 43.7969C449.273 44.1172 449.449 44.5234 449.449 45.0156C449.449 45.5078 449.273 45.9141 448.922 46.2344C448.578 46.5547 448.121 46.7148 447.551 46.7148C446.973 46.7148 446.512 46.5547 446.168 46.2344C445.824 45.9141 445.652 45.5078 445.652 45.0156ZM457.277 58.5977C457.691 58.5977 458.059 58.5195 458.379 58.3633C458.699 58.1992 458.949 57.9727 459.129 57.6836C459.316 57.3867 459.414 57.0391 459.422 56.6406H462.598C462.59 57.5312 462.352 58.3242 461.883 59.0195C461.414 59.707 460.785 60.25 459.996 60.6484C459.207 61.0391 458.324 61.2344 457.348 61.2344C456.363 61.2344 455.504 61.0703 454.77 60.7422C454.043 60.4141 453.438 59.9609 452.953 59.3828C452.469 58.7969 452.105 58.1172 451.863 57.3438C451.621 56.5625 451.5 55.7266 451.5 54.8359V54.4961C451.5 53.5977 451.621 52.7617 451.863 51.9883C452.105 51.207 452.469 50.5273 452.953 49.9492C453.438 49.3633 454.043 48.9062 454.77 48.5781C455.496 48.25 456.348 48.0859 457.324 48.0859C458.363 48.0859 459.273 48.2852 460.055 48.6836C460.844 49.082 461.461 49.6523 461.906 50.3945C462.359 51.1289 462.59 52 462.598 53.0078H459.422C459.414 52.5859 459.324 52.2031 459.152 51.8594C458.988 51.5156 458.746 51.2422 458.426 51.0391C458.113 50.8281 457.727 50.7227 457.266 50.7227C456.773 50.7227 456.371 50.8281 456.059 51.0391C455.746 51.2422 455.504 51.5234 455.332 51.8828C455.16 52.2344 455.039 52.6367 454.969 53.0898C454.906 53.5352 454.875 54.0039 454.875 54.4961V54.8359C454.875 55.3281 454.906 55.8008 454.969 56.2539C455.031 56.707 455.148 57.1094 455.32 57.4609C455.5 57.8125 455.746 58.0898 456.059 58.293C456.371 58.4961 456.777 58.5977 457.277 58.5977ZM470.766 48.3203V50.7109H463.383V48.3203H470.766ZM465.211 45.1914H468.586V57.1797C468.586 57.5469 468.633 57.8281 468.727 58.0234C468.828 58.2188 468.977 58.3555 469.172 58.4336C469.367 58.5039 469.613 58.5391 469.91 58.5391C470.121 58.5391 470.309 58.5312 470.473 58.5156C470.645 58.4922 470.789 58.4688 470.906 58.4453L470.918 60.9297C470.629 61.0234 470.316 61.0977 469.98 61.1523C469.645 61.207 469.273 61.2344 468.867 61.2344C468.125 61.2344 467.477 61.1133 466.922 60.8711C466.375 60.6211 465.953 60.2227 465.656 59.6758C465.359 59.1289 465.211 58.4102 465.211 57.5195V45.1914ZM471.844 54.7891V54.543C471.844 53.6133 471.977 52.7578 472.242 51.9766C472.508 51.1875 472.895 50.5039 473.402 49.9258C473.91 49.3477 474.535 48.8984 475.277 48.5781C476.02 48.25 476.871 48.0859 477.832 48.0859C478.793 48.0859 479.648 48.25 480.398 48.5781C481.148 48.8984 481.777 49.3477 482.285 49.9258C482.801 50.5039 483.191 51.1875 483.457 51.9766C483.723 52.7578 483.855 53.6133 483.855 54.543V54.7891C483.855 55.7109 483.723 56.5664 483.457 57.3555C483.191 58.1367 482.801 58.8203 482.285 59.4062C481.777 59.9844 481.152 60.4336 480.41 60.7539C479.668 61.0742 478.816 61.2344 477.855 61.2344C476.895 61.2344 476.039 61.0742 475.289 60.7539C474.547 60.4336 473.918 59.9844 473.402 59.4062C472.895 58.8203 472.508 58.1367 472.242 57.3555C471.977 56.5664 471.844 55.7109 471.844 54.7891ZM475.219 54.543V54.7891C475.219 55.3203 475.266 55.8164 475.359 56.2773C475.453 56.7383 475.602 57.1445 475.805 57.4961C476.016 57.8398 476.289 58.1094 476.625 58.3047C476.961 58.5 477.371 58.5977 477.855 58.5977C478.324 58.5977 478.727 58.5 479.062 58.3047C479.398 58.1094 479.668 57.8398 479.871 57.4961C480.074 57.1445 480.223 56.7383 480.316 56.2773C480.418 55.8164 480.469 55.3203 480.469 54.7891V54.543C480.469 54.0273 480.418 53.543 480.316 53.0898C480.223 52.6289 480.07 52.2227 479.859 51.8711C479.656 51.5117 479.387 51.2305 479.051 51.0273C478.715 50.8242 478.309 50.7227 477.832 50.7227C477.355 50.7227 476.949 50.8242 476.613 51.0273C476.285 51.2305 476.016 51.5117 475.805 51.8711C475.602 52.2227 475.453 52.6289 475.359 53.0898C475.266 53.543 475.219 54.0273 475.219 54.543ZM489.305 51.0859V61H485.93V48.3203H489.105L489.305 51.0859ZM493.125 48.2383L493.066 51.3672C492.902 51.3438 492.703 51.3242 492.469 51.3086C492.242 51.2852 492.035 51.2734 491.848 51.2734C491.371 51.2734 490.957 51.3359 490.605 51.4609C490.262 51.5781 489.973 51.7539 489.738 51.9883C489.512 52.2227 489.34 52.5078 489.223 52.8438C489.113 53.1797 489.051 53.5625 489.035 53.9922L488.355 53.7812C488.355 52.9609 488.438 52.207 488.602 51.5195C488.766 50.8242 489.004 50.2188 489.316 49.7031C489.637 49.1875 490.027 48.7891 490.488 48.5078C490.949 48.2266 491.477 48.0859 492.07 48.0859C492.258 48.0859 492.449 48.1016 492.645 48.1328C492.84 48.1562 493 48.1914 493.125 48.2383Z" fill="#888888"/>
<path d="M109.219 107.422H100.734V101.07H109.219C110.375 101.07 111.312 100.875 112.031 100.484C112.75 100.094 113.273 99.5547 113.602 98.8672C113.945 98.1641 114.117 97.375 114.117 96.5C114.117 95.5625 113.945 94.6953 113.602 93.8984C113.273 93.1016 112.75 92.4609 112.031 91.9766C111.312 91.4766 110.375 91.2266 109.219 91.2266H103.828V119H95.6016V84.875H109.219C111.953 84.875 114.305 85.375 116.273 86.375C118.258 87.375 119.781 88.75 120.844 90.5C121.906 92.2344 122.438 94.2188 122.438 96.4531C122.438 98.6562 121.906 100.578 120.844 102.219C119.781 103.859 118.258 105.141 116.273 106.062C114.305 106.969 111.953 107.422 109.219 107.422ZM134.461 99.9219V119H126.562V93.6406H133.945L134.461 99.9219ZM141.961 93.4531L141.82 100.789C141.508 100.758 141.086 100.719 140.555 100.672C140.023 100.625 139.578 100.602 139.219 100.602C138.297 100.602 137.5 100.711 136.828 100.93C136.172 101.133 135.625 101.445 135.188 101.867C134.766 102.273 134.453 102.789 134.25 103.414C134.062 104.039 133.977 104.766 133.992 105.594L132.562 104.656C132.562 102.953 132.727 101.406 133.055 100.016C133.398 98.6094 133.883 97.3984 134.508 96.3828C135.133 95.3516 135.891 94.5625 136.781 94.0156C137.672 93.4531 138.672 93.1719 139.781 93.1719C140.172 93.1719 140.555 93.1953 140.93 93.2422C141.32 93.2891 141.664 93.3594 141.961 93.4531ZM142.852 106.578V106.086C142.852 104.227 143.117 102.516 143.648 100.953C144.18 99.375 144.961 98.0078 145.992 96.8516C147.023 95.6953 148.297 94.7969 149.812 94.1562C151.328 93.5 153.078 93.1719 155.062 93.1719C157.062 93.1719 158.82 93.5 160.336 94.1562C161.867 94.7969 163.148 95.6953 164.18 96.8516C165.211 98.0078 165.992 99.375 166.523 100.953C167.055 102.516 167.32 104.227 167.32 106.086V106.578C167.32 108.422 167.055 110.133 166.523 111.711C165.992 113.273 165.211 114.641 164.18 115.812C163.148 116.969 161.875 117.867 160.359 118.508C158.844 119.148 157.094 119.469 155.109 119.469C153.125 119.469 151.367 119.148 149.836 118.508C148.305 117.867 147.023 116.969 145.992 115.812C144.961 114.641 144.18 113.273 143.648 111.711C143.117 110.133 142.852 108.422 142.852 106.578ZM150.75 106.086V106.578C150.75 107.531 150.82 108.422 150.961 109.25C151.102 110.078 151.336 110.805 151.664 111.43C151.992 112.039 152.438 112.516 153 112.859C153.562 113.203 154.266 113.375 155.109 113.375C155.938 113.375 156.625 113.203 157.172 112.859C157.734 112.516 158.18 112.039 158.508 111.43C158.836 110.805 159.07 110.078 159.211 109.25C159.352 108.422 159.422 107.531 159.422 106.578V106.086C159.422 105.164 159.352 104.297 159.211 103.484C159.07 102.656 158.836 101.93 158.508 101.305C158.18 100.664 157.734 100.164 157.172 99.8047C156.609 99.4453 155.906 99.2656 155.062 99.2656C154.234 99.2656 153.539 99.4453 152.977 99.8047C152.43 100.164 151.992 100.664 151.664 101.305C151.336 101.93 151.102 102.656 150.961 103.484C150.82 104.297 150.75 105.164 150.75 106.086ZM171.422 93.6406H179.344V119.82C179.344 121.852 178.953 123.562 178.172 124.953C177.391 126.359 176.273 127.422 174.82 128.141C173.367 128.875 171.633 129.242 169.617 129.242C168.945 129.242 168.328 129.211 167.766 129.148C167.188 129.102 166.555 129 165.867 128.844V122.867C166.273 122.93 166.648 122.977 166.992 123.008C167.336 123.055 167.711 123.078 168.117 123.078C168.836 123.078 169.438 122.961 169.922 122.727C170.406 122.492 170.773 122.133 171.023 121.648C171.289 121.164 171.422 120.555 171.422 119.82V93.6406ZM170.836 87.1016C170.836 85.9766 171.242 85.0547 172.055 84.3359C172.867 83.6172 173.922 83.2578 175.219 83.2578C176.516 83.2578 177.57 83.6172 178.383 84.3359C179.195 85.0547 179.602 85.9766 179.602 87.1016C179.602 88.2266 179.195 89.1484 178.383 89.8672C177.57 90.5859 176.516 90.9453 175.219 90.9453C173.922 90.9453 172.867 90.5859 172.055 89.8672C171.242 89.1484 170.836 88.2266 170.836 87.1016ZM196.102 119.469C194.039 119.469 192.195 119.148 190.57 118.508C188.945 117.852 187.57 116.953 186.445 115.812C185.336 114.672 184.484 113.359 183.891 111.875C183.312 110.391 183.023 108.82 183.023 107.164V106.273C183.023 104.414 183.281 102.695 183.797 101.117C184.312 99.5234 185.078 98.1328 186.094 96.9453C187.109 95.7578 188.383 94.8359 189.914 94.1797C191.445 93.5078 193.227 93.1719 195.258 93.1719C197.055 93.1719 198.664 93.4609 200.086 94.0391C201.508 94.6172 202.711 95.4453 203.695 96.5234C204.695 97.6016 205.453 98.9062 205.969 100.438C206.5 101.969 206.766 103.688 206.766 105.594V108.805H186.047V103.859H199.055V103.25C199.07 102.406 198.922 101.688 198.609 101.094C198.312 100.5 197.875 100.047 197.297 99.7344C196.719 99.4219 196.016 99.2656 195.188 99.2656C194.328 99.2656 193.617 99.4531 193.055 99.8281C192.508 100.203 192.078 100.719 191.766 101.375C191.469 102.016 191.258 102.758 191.133 103.602C191.008 104.445 190.945 105.336 190.945 106.273V107.164C190.945 108.102 191.07 108.953 191.32 109.719C191.586 110.484 191.961 111.141 192.445 111.688C192.945 112.219 193.539 112.633 194.227 112.93C194.93 113.227 195.727 113.375 196.617 113.375C197.695 113.375 198.758 113.172 199.805 112.766C200.852 112.359 201.75 111.688 202.5 110.75L206.086 115.016C205.57 115.75 204.836 116.461 203.883 117.148C202.945 117.836 201.82 118.398 200.508 118.836C199.195 119.258 197.727 119.469 196.102 119.469ZM220.688 113.375C221.422 113.375 222.047 113.242 222.562 112.977C223.094 112.695 223.492 112.305 223.758 111.805C224.039 111.289 224.172 110.672 224.156 109.953H231.586C231.602 111.859 231.133 113.531 230.18 114.969C229.242 116.391 227.961 117.5 226.336 118.297C224.727 119.078 222.906 119.469 220.875 119.469C218.891 119.469 217.156 119.148 215.672 118.508C214.188 117.852 212.945 116.945 211.945 115.789C210.961 114.617 210.219 113.25 209.719 111.688C209.234 110.125 208.992 108.43 208.992 106.602V106.062C208.992 104.234 209.234 102.539 209.719 100.977C210.219 99.3984 210.961 98.0312 211.945 96.875C212.945 95.7031 214.18 94.7969 215.648 94.1562C217.133 93.5 218.859 93.1719 220.828 93.1719C222.938 93.1719 224.797 93.5703 226.406 94.3672C228.031 95.1641 229.305 96.3203 230.227 97.8359C231.148 99.3516 231.602 101.188 231.586 103.344H224.156C224.172 102.578 224.055 101.891 223.805 101.281C223.555 100.672 223.164 100.188 222.633 99.8281C222.117 99.4531 221.453 99.2656 220.641 99.2656C219.828 99.2656 219.172 99.4453 218.672 99.8047C218.172 100.164 217.789 100.664 217.523 101.305C217.273 101.93 217.102 102.648 217.008 103.461C216.93 104.273 216.891 105.141 216.891 106.062V106.602C216.891 107.539 216.93 108.422 217.008 109.25C217.102 110.062 217.281 110.781 217.547 111.406C217.812 112.016 218.195 112.5 218.695 112.859C219.195 113.203 219.859 113.375 220.688 113.375ZM248.32 93.6406V99.125H233.039V93.6406H248.32ZM236.25 87.3359H244.148V110.727C244.148 111.398 244.227 111.922 244.383 112.297C244.539 112.656 244.805 112.914 245.18 113.07C245.57 113.211 246.086 113.281 246.727 113.281C247.18 113.281 247.555 113.273 247.852 113.258C248.148 113.227 248.43 113.188 248.695 113.141V118.789C248.023 119.008 247.32 119.172 246.586 119.281C245.852 119.406 245.07 119.469 244.242 119.469C242.555 119.469 241.109 119.203 239.906 118.672C238.719 118.141 237.812 117.305 237.188 116.164C236.562 115.023 236.25 113.539 236.25 111.711V87.3359ZM277.406 107.422H268.922V101.07H277.406C278.562 101.07 279.5 100.875 280.219 100.484C280.938 100.094 281.461 99.5547 281.789 98.8672C282.133 98.1641 282.305 97.375 282.305 96.5C282.305 95.5625 282.133 94.6953 281.789 93.8984C281.461 93.1016 280.938 92.4609 280.219 91.9766C279.5 91.4766 278.562 91.2266 277.406 91.2266H272.016V119H263.789V84.875H277.406C280.141 84.875 282.492 85.375 284.461 86.375C286.445 87.375 287.969 88.75 289.031 90.5C290.094 92.2344 290.625 94.2188 290.625 96.4531C290.625 98.6562 290.094 100.578 289.031 102.219C287.969 103.859 286.445 105.141 284.461 106.062C282.492 106.969 280.141 107.422 277.406 107.422ZM302.414 83V119H294.516V83H302.414ZM301.477 105.453L299.625 105.5C299.625 103.719 299.844 102.078 300.281 100.578C300.719 99.0781 301.344 97.7734 302.156 96.6641C302.969 95.5547 303.945 94.6953 305.086 94.0859C306.227 93.4766 307.492 93.1719 308.883 93.1719C310.133 93.1719 311.273 93.3516 312.305 93.7109C313.352 94.0703 314.25 94.6484 315 95.4453C315.766 96.2422 316.352 97.2812 316.758 98.5625C317.18 99.8438 317.391 101.406 317.391 103.25V119H309.445V103.203C309.445 102.172 309.297 101.375 309 100.812C308.719 100.234 308.312 99.8359 307.781 99.6172C307.25 99.3828 306.602 99.2656 305.836 99.2656C304.914 99.2656 304.164 99.4219 303.586 99.7344C303.008 100.047 302.562 100.484 302.25 101.047C301.953 101.594 301.75 102.242 301.641 102.992C301.531 103.742 301.477 104.562 301.477 105.453ZM330.117 93.6406V119H322.195V93.6406H330.117ZM321.727 87.1016C321.727 85.9766 322.133 85.0547 322.945 84.3359C323.758 83.6172 324.812 83.2578 326.109 83.2578C327.406 83.2578 328.461 83.6172 329.273 84.3359C330.086 85.0547 330.492 85.9766 330.492 87.1016C330.492 88.2266 330.086 89.1484 329.273 89.8672C328.461 90.5859 327.406 90.9453 326.109 90.9453C324.812 90.9453 323.758 90.5859 322.945 89.8672C322.133 89.1484 321.727 88.2266 321.727 87.1016ZM343.336 83V119H335.414V83H343.336ZM347.227 106.578V106.086C347.227 104.227 347.492 102.516 348.023 100.953C348.555 99.375 349.336 98.0078 350.367 96.8516C351.398 95.6953 352.672 94.7969 354.188 94.1562C355.703 93.5 357.453 93.1719 359.438 93.1719C361.438 93.1719 363.195 93.5 364.711 94.1562C366.242 94.7969 367.523 95.6953 368.555 96.8516C369.586 98.0078 370.367 99.375 370.898 100.953C371.43 102.516 371.695 104.227 371.695 106.086V106.578C371.695 108.422 371.43 110.133 370.898 111.711C370.367 113.273 369.586 114.641 368.555 115.812C367.523 116.969 366.25 117.867 364.734 118.508C363.219 119.148 361.469 119.469 359.484 119.469C357.5 119.469 355.742 119.148 354.211 118.508C352.68 117.867 351.398 116.969 350.367 115.812C349.336 114.641 348.555 113.273 348.023 111.711C347.492 110.133 347.227 108.422 347.227 106.578ZM355.125 106.086V106.578C355.125 107.531 355.195 108.422 355.336 109.25C355.477 110.078 355.711 110.805 356.039 111.43C356.367 112.039 356.812 112.516 357.375 112.859C357.938 113.203 358.641 113.375 359.484 113.375C360.312 113.375 361 113.203 361.547 112.859C362.109 112.516 362.555 112.039 362.883 111.43C363.211 110.805 363.445 110.078 363.586 109.25C363.727 108.422 363.797 107.531 363.797 106.578V106.086C363.797 105.164 363.727 104.297 363.586 103.484C363.445 102.656 363.211 101.93 362.883 101.305C362.555 100.664 362.109 100.164 361.547 99.8047C360.984 99.4453 360.281 99.2656 359.438 99.2656C358.609 99.2656 357.914 99.4453 357.352 99.8047C356.805 100.164 356.367 100.664 356.039 101.305C355.711 101.93 355.477 102.656 355.336 103.484C355.195 104.297 355.125 105.164 355.125 106.086ZM388.5 111.875C388.5 111.438 388.352 111.062 388.055 110.75C387.773 110.422 387.273 110.125 386.555 109.859C385.836 109.578 384.828 109.297 383.531 109.016C382.297 108.75 381.133 108.398 380.039 107.961C378.961 107.523 378.016 106.992 377.203 106.367C376.391 105.742 375.75 105 375.281 104.141C374.828 103.281 374.602 102.297 374.602 101.188C374.602 100.109 374.828 99.0938 375.281 98.1406C375.75 97.1719 376.43 96.3203 377.32 95.5859C378.227 94.8359 379.328 94.25 380.625 93.8281C381.922 93.3906 383.398 93.1719 385.055 93.1719C387.336 93.1719 389.305 93.5234 390.961 94.2266C392.617 94.9141 393.891 95.8828 394.781 97.1328C395.688 98.3672 396.141 99.7969 396.141 101.422H388.242C388.242 100.781 388.133 100.234 387.914 99.7812C387.711 99.3281 387.375 98.9844 386.906 98.75C386.438 98.5 385.812 98.375 385.031 98.375C384.484 98.375 383.984 98.4766 383.531 98.6797C383.094 98.8828 382.742 99.1641 382.477 99.5234C382.211 99.8828 382.078 100.305 382.078 100.789C382.078 101.133 382.156 101.445 382.312 101.727C382.484 101.992 382.742 102.242 383.086 102.477C383.43 102.695 383.867 102.898 384.398 103.086C384.93 103.258 385.57 103.414 386.32 103.555C388.023 103.867 389.617 104.312 391.102 104.891C392.586 105.469 393.789 106.289 394.711 107.352C395.648 108.414 396.117 109.844 396.117 111.641C396.117 112.766 395.859 113.805 395.344 114.758C394.828 115.695 394.086 116.523 393.117 117.242C392.148 117.945 390.984 118.492 389.625 118.883C388.266 119.273 386.734 119.469 385.031 119.469C382.609 119.469 380.562 119.039 378.891 118.18C377.219 117.305 375.953 116.211 375.094 114.898C374.25 113.57 373.828 112.227 373.828 110.867H381.188C381.219 111.648 381.406 112.289 381.75 112.789C382.109 113.289 382.586 113.656 383.18 113.891C383.773 114.125 384.461 114.242 385.242 114.242C385.961 114.242 386.555 114.141 387.023 113.938C387.508 113.734 387.875 113.461 388.125 113.117C388.375 112.758 388.5 112.344 388.5 111.875ZM398.836 106.578V106.086C398.836 104.227 399.102 102.516 399.633 100.953C400.164 99.375 400.945 98.0078 401.977 96.8516C403.008 95.6953 404.281 94.7969 405.797 94.1562C407.312 93.5 409.062 93.1719 411.047 93.1719C413.047 93.1719 414.805 93.5 416.32 94.1562C417.852 94.7969 419.133 95.6953 420.164 96.8516C421.195 98.0078 421.977 99.375 422.508 100.953C423.039 102.516 423.305 104.227 423.305 106.086V106.578C423.305 108.422 423.039 110.133 422.508 111.711C421.977 113.273 421.195 114.641 420.164 115.812C419.133 116.969 417.859 117.867 416.344 118.508C414.828 119.148 413.078 119.469 411.094 119.469C409.109 119.469 407.352 119.148 405.82 118.508C404.289 117.867 403.008 116.969 401.977 115.812C400.945 114.641 400.164 113.273 399.633 111.711C399.102 110.133 398.836 108.422 398.836 106.578ZM406.734 106.086V106.578C406.734 107.531 406.805 108.422 406.945 109.25C407.086 110.078 407.32 110.805 407.648 111.43C407.977 112.039 408.422 112.516 408.984 112.859C409.547 113.203 410.25 113.375 411.094 113.375C411.922 113.375 412.609 113.203 413.156 112.859C413.719 112.516 414.164 112.039 414.492 111.43C414.82 110.805 415.055 110.078 415.195 109.25C415.336 108.422 415.406 107.531 415.406 106.578V106.086C415.406 105.164 415.336 104.297 415.195 103.484C415.055 102.656 414.82 101.93 414.492 101.305C414.164 100.664 413.719 100.164 413.156 99.8047C412.594 99.4453 411.891 99.2656 411.047 99.2656C410.219 99.2656 409.523 99.4453 408.961 99.8047C408.414 100.164 407.977 100.664 407.648 101.305C407.32 101.93 407.086 102.656 406.945 103.484C406.805 104.297 406.734 105.164 406.734 106.086ZM434.789 98.5156V128.75H426.891V93.6406H434.25L434.789 98.5156ZM450.352 106.016V106.508C450.352 108.352 450.141 110.062 449.719 111.641C449.297 113.219 448.672 114.594 447.844 115.766C447.016 116.938 445.984 117.852 444.75 118.508C443.531 119.148 442.117 119.469 440.508 119.469C438.992 119.469 437.688 119.133 436.594 118.461C435.5 117.789 434.586 116.859 433.852 115.672C433.117 114.484 432.523 113.125 432.07 111.594C431.617 110.062 431.258 108.445 430.992 106.742V106.109C431.258 104.281 431.617 102.586 432.07 101.023C432.523 99.4453 433.117 98.0703 433.852 96.8984C434.586 95.7266 435.492 94.8125 436.57 94.1562C437.664 93.5 438.969 93.1719 440.484 93.1719C442.094 93.1719 443.508 93.4766 444.727 94.0859C445.961 94.6953 446.992 95.5703 447.82 96.7109C448.664 97.8359 449.297 99.1875 449.719 100.766C450.141 102.344 450.352 104.094 450.352 106.016ZM442.453 106.508V106.016C442.453 105.031 442.383 104.133 442.242 103.32C442.102 102.492 441.875 101.773 441.562 101.164C441.266 100.555 440.867 100.086 440.367 99.7578C439.867 99.4297 439.25 99.2656 438.516 99.2656C437.672 99.2656 436.961 99.3984 436.383 99.6641C435.82 99.9141 435.367 100.305 435.023 100.836C434.695 101.352 434.461 102 434.32 102.781C434.195 103.547 434.141 104.445 434.156 105.477V107.398C434.125 108.586 434.242 109.633 434.508 110.539C434.773 111.43 435.234 112.125 435.891 112.625C436.547 113.125 437.438 113.375 438.562 113.375C439.312 113.375 439.938 113.203 440.438 112.859C440.938 112.5 441.336 112.008 441.633 111.383C441.93 110.742 442.141 110.008 442.266 109.18C442.391 108.352 442.453 107.461 442.453 106.508ZM461.602 83V119H453.703V83H461.602ZM460.664 105.453L458.812 105.5C458.812 103.719 459.031 102.078 459.469 100.578C459.906 99.0781 460.531 97.7734 461.344 96.6641C462.156 95.5547 463.133 94.6953 464.273 94.0859C465.414 93.4766 466.68 93.1719 468.07 93.1719C469.32 93.1719 470.461 93.3516 471.492 93.7109C472.539 94.0703 473.438 94.6484 474.188 95.4453C474.953 96.2422 475.539 97.2812 475.945 98.5625C476.367 99.8438 476.578 101.406 476.578 103.25V119H468.633V103.203C468.633 102.172 468.484 101.375 468.188 100.812C467.906 100.234 467.5 99.8359 466.969 99.6172C466.438 99.3828 465.789 99.2656 465.023 99.2656C464.102 99.2656 463.352 99.4219 462.773 99.7344C462.195 100.047 461.75 100.484 461.438 101.047C461.141 101.594 460.938 102.242 460.828 102.992C460.719 103.742 460.664 104.562 460.664 105.453ZM488.742 116.023L495.305 93.6406H503.789L493.594 122.773C493.375 123.414 493.086 124.102 492.727 124.836C492.367 125.586 491.875 126.297 491.25 126.969C490.625 127.641 489.82 128.188 488.836 128.609C487.867 129.031 486.664 129.242 485.227 129.242C484.461 129.242 483.898 129.203 483.539 129.125C483.195 129.062 482.664 128.945 481.945 128.773V123.125C482.148 123.125 482.32 123.125 482.461 123.125C482.617 123.125 482.789 123.125 482.977 123.125C483.82 123.125 484.492 123.039 484.992 122.867C485.508 122.695 485.898 122.445 486.164 122.117C486.445 121.789 486.664 121.391 486.82 120.922L488.742 116.023ZM487.078 93.6406L492.07 111.383L492.938 119.75H487.641L478.617 93.6406H487.078Z" fill="black"/>
<path d="M1134 0H1348C1356.28 0 1363 6.71573 1363 15V148C1363 156.284 1356.28 163 1348 163H1134V0Z" fill="#488891"/>
<path d="M1234.26 103.786H1262.74V109.357H1234.26V103.786ZM1239.96 114.929H1257.04V120.5H1239.96V114.929ZM1248.5 42.5C1240.95 42.5 1233.71 45.4349 1228.37 50.6592C1223.03 55.8834 1220.03 62.969 1220.03 70.3571C1219.84 74.4057 1220.63 78.4412 1222.34 82.1315C1224.05 85.8219 1226.64 89.0616 1229.88 91.5843C1232.73 94.175 1234.26 95.6514 1234.26 98.2143H1239.96C1239.96 93.0886 1236.8 90.2193 1233.72 87.4614C1231.06 85.4676 1228.94 82.8658 1227.55 79.8838C1226.15 76.9019 1225.53 73.6308 1225.72 70.3571C1225.72 64.4466 1228.12 58.7781 1232.39 54.5988C1236.67 50.4194 1242.46 48.0714 1248.5 48.0714C1254.54 48.0714 1260.33 50.4194 1264.61 54.5988C1268.88 58.7781 1271.28 64.4466 1271.28 70.3571C1271.47 73.6333 1270.84 76.9059 1269.44 79.888C1268.04 82.8701 1265.92 85.4706 1263.25 87.4614C1260.2 90.2471 1257.04 93.0329 1257.04 98.2143H1262.74C1262.74 95.6514 1264.25 94.175 1267.12 91.5564C1270.36 89.0381 1272.94 85.8031 1274.66 82.1176C1276.37 78.4321 1277.16 74.4014 1276.97 70.3571C1276.97 66.6989 1276.24 63.0765 1274.81 59.6967C1273.37 56.3169 1271.28 53.2459 1268.63 50.6592C1265.99 48.0724 1262.85 46.0205 1259.4 44.6205C1255.94 43.2205 1252.24 42.5 1248.5 42.5Z" fill="white"/>
</svg>
