<svg width="1363" height="163" viewBox="0 0 1363 163" fill="none" xmlns="http://www.w3.org/2000/svg">
<path d="M0 15C0 6.71573 6.71573 0 15 0H37V163H15C6.71573 163 0 156.284 0 148V15Z" fill="#424242"/>
<rect width="1097" height="163" transform="translate(37)" fill="#F0F0F0"/>
<path d="M101.906 53.9219L94.3945 51.2383V48.0859L104.602 52.375V54.6367L101.906 53.9219ZM94.3945 56.1719L101.918 53.4297L104.602 52.7852V55.0352L94.3945 59.3242V56.1719ZM124.277 50.8867V53.6289H115.371V50.8867H124.277ZM116.414 43.9375V61H112.898V43.9375H116.414ZM126.785 43.9375V61H123.281V43.9375H126.785ZM135.469 61.2344C134.484 61.2344 133.602 61.0781 132.82 60.7656C132.039 60.4453 131.375 60.0039 130.828 59.4414C130.289 58.8789 129.875 58.2266 129.586 57.4844C129.297 56.7344 129.152 55.9375 129.152 55.0938V54.625C129.152 53.6641 129.289 52.7852 129.562 51.9883C129.836 51.1914 130.227 50.5 130.734 49.9141C131.25 49.3281 131.875 48.8789 132.609 48.5664C133.344 48.2461 134.172 48.0859 135.094 48.0859C135.992 48.0859 136.789 48.2344 137.484 48.5312C138.18 48.8281 138.762 49.25 139.23 49.7969C139.707 50.3438 140.066 51 140.309 51.7656C140.551 52.5234 140.672 53.3672 140.672 54.2969V55.7031H130.594V53.4531H137.355V53.1953C137.355 52.7266 137.27 52.3086 137.098 51.9414C136.934 51.5664 136.684 51.2695 136.348 51.0508C136.012 50.832 135.582 50.7227 135.059 50.7227C134.613 50.7227 134.23 50.8203 133.91 51.0156C133.59 51.2109 133.328 51.4844 133.125 51.8359C132.93 52.1875 132.781 52.6016 132.68 53.0781C132.586 53.5469 132.539 54.0625 132.539 54.625V55.0938C132.539 55.6016 132.609 56.0703 132.75 56.5C132.898 56.9297 133.105 57.3008 133.371 57.6133C133.645 57.9258 133.973 58.168 134.355 58.3398C134.746 58.5117 135.188 58.5977 135.68 58.5977C136.289 58.5977 136.855 58.4805 137.379 58.2461C137.91 58.0039 138.367 57.6406 138.75 57.1562L140.391 58.9375C140.125 59.3203 139.762 59.6875 139.301 60.0391C138.848 60.3906 138.301 60.6797 137.66 60.9062C137.02 61.125 136.289 61.2344 135.469 61.2344ZM149.438 58.1406V52.4922C149.438 52.0859 149.371 51.7383 149.238 51.4492C149.105 51.1523 148.898 50.9219 148.617 50.7578C148.344 50.5938 147.988 50.5117 147.551 50.5117C147.176 50.5117 146.852 50.5781 146.578 50.7109C146.305 50.8359 146.094 51.0195 145.945 51.2617C145.797 51.4961 145.723 51.7734 145.723 52.0938H142.348C142.348 51.5547 142.473 51.043 142.723 50.5586C142.973 50.0742 143.336 49.6484 143.812 49.2812C144.289 48.9062 144.855 48.6133 145.512 48.4023C146.176 48.1914 146.918 48.0859 147.738 48.0859C148.723 48.0859 149.598 48.25 150.363 48.5781C151.129 48.9062 151.73 49.3984 152.168 50.0547C152.613 50.7109 152.836 51.5312 152.836 52.5156V57.9414C152.836 58.6367 152.879 59.207 152.965 59.6523C153.051 60.0898 153.176 60.4727 153.34 60.8008V61H149.93C149.766 60.6562 149.641 60.2266 149.555 59.7109C149.477 59.1875 149.438 58.6641 149.438 58.1406ZM149.883 53.2773L149.906 55.1875H148.02C147.574 55.1875 147.188 55.2383 146.859 55.3398C146.531 55.4414 146.262 55.5859 146.051 55.7734C145.84 55.9531 145.684 56.1641 145.582 56.4062C145.488 56.6484 145.441 56.9141 145.441 57.2031C145.441 57.4922 145.508 57.7539 145.641 57.9883C145.773 58.2148 145.965 58.3945 146.215 58.5273C146.465 58.6523 146.758 58.7148 147.094 58.7148C147.602 58.7148 148.043 58.6133 148.418 58.4102C148.793 58.207 149.082 57.957 149.285 57.6602C149.496 57.3633 149.605 57.082 149.613 56.8164L150.504 58.2461C150.379 58.5664 150.207 58.8984 149.988 59.2422C149.777 59.5859 149.508 59.9102 149.18 60.2148C148.852 60.5117 148.457 60.7578 147.996 60.9531C147.535 61.1406 146.988 61.2344 146.355 61.2344C145.551 61.2344 144.82 61.0742 144.164 60.7539C143.516 60.4258 143 59.9766 142.617 59.4062C142.242 58.8281 142.055 58.1719 142.055 57.4375C142.055 56.7734 142.18 56.1836 142.43 55.668C142.68 55.1523 143.047 54.7188 143.531 54.3672C144.023 54.0078 144.637 53.7383 145.371 53.5586C146.105 53.3711 146.957 53.2773 147.926 53.2773H149.883ZM158.812 51.0859V61H155.438V48.3203H158.613L158.812 51.0859ZM162.633 48.2383L162.574 51.3672C162.41 51.3438 162.211 51.3242 161.977 51.3086C161.75 51.2852 161.543 51.2734 161.355 51.2734C160.879 51.2734 160.465 51.3359 160.113 51.4609C159.77 51.5781 159.48 51.7539 159.246 51.9883C159.02 52.2227 158.848 52.5078 158.73 52.8438C158.621 53.1797 158.559 53.5625 158.543 53.9922L157.863 53.7812C157.863 52.9609 157.945 52.207 158.109 51.5195C158.273 50.8242 158.512 50.2188 158.824 49.7031C159.145 49.1875 159.535 48.7891 159.996 48.5078C160.457 48.2266 160.984 48.0859 161.578 48.0859C161.766 48.0859 161.957 48.1016 162.152 48.1328C162.348 48.1562 162.508 48.1914 162.633 48.2383ZM171.023 48.3203V50.7109H163.641V48.3203H171.023ZM165.469 45.1914H168.844V57.1797C168.844 57.5469 168.891 57.8281 168.984 58.0234C169.086 58.2188 169.234 58.3555 169.43 58.4336C169.625 58.5039 169.871 58.5391 170.168 58.5391C170.379 58.5391 170.566 58.5312 170.73 58.5156C170.902 58.4922 171.047 58.4688 171.164 58.4453L171.176 60.9297C170.887 61.0234 170.574 61.0977 170.238 61.1523C169.902 61.207 169.531 61.2344 169.125 61.2344C168.383 61.2344 167.734 61.1133 167.18 60.8711C166.633 60.6211 166.211 60.2227 165.914 59.6758C165.617 59.1289 165.469 58.4102 165.469 57.5195V45.1914ZM184.371 61H180.656L180.68 58.2578H184.371C185.293 58.2578 186.07 58.0508 186.703 57.6367C187.336 57.2148 187.812 56.6016 188.133 55.7969C188.461 54.9922 188.625 54.0195 188.625 52.8789V52.0469C188.625 51.1719 188.531 50.4023 188.344 49.7383C188.164 49.0742 187.895 48.5156 187.535 48.0625C187.176 47.6094 186.734 47.2695 186.211 47.043C185.688 46.8086 185.086 46.6914 184.406 46.6914H180.586V43.9375H184.406C185.547 43.9375 186.59 44.1328 187.535 44.5234C188.488 44.9062 189.312 45.457 190.008 46.1758C190.703 46.8945 191.238 47.7539 191.613 48.7539C191.996 49.7461 192.188 50.8516 192.188 52.0703V52.8789C192.188 54.0898 191.996 55.1953 191.613 56.1953C191.238 57.1953 190.703 58.0547 190.008 58.7734C189.32 59.4844 188.496 60.0352 187.535 60.4258C186.582 60.8086 185.527 61 184.371 61ZM182.648 43.9375V61H179.133V43.9375H182.648ZM198.094 48.3203V61H194.707V48.3203H198.094ZM194.496 45.0156C194.496 44.5234 194.668 44.1172 195.012 43.7969C195.355 43.4766 195.816 43.3164 196.395 43.3164C196.965 43.3164 197.422 43.4766 197.766 43.7969C198.117 44.1172 198.293 44.5234 198.293 45.0156C198.293 45.5078 198.117 45.9141 197.766 46.2344C197.422 46.5547 196.965 46.7148 196.395 46.7148C195.816 46.7148 195.355 46.5547 195.012 46.2344C194.668 45.9141 194.496 45.5078 194.496 45.0156ZM207.738 57.4961C207.738 57.2539 207.668 57.0352 207.527 56.8398C207.387 56.6445 207.125 56.4648 206.742 56.3008C206.367 56.1289 205.824 55.9727 205.113 55.832C204.473 55.6914 203.875 55.5156 203.32 55.3047C202.773 55.0859 202.297 54.8242 201.891 54.5195C201.492 54.2148 201.18 53.8555 200.953 53.4414C200.727 53.0195 200.613 52.5391 200.613 52C200.613 51.4688 200.727 50.9688 200.953 50.5C201.188 50.0312 201.52 49.6172 201.949 49.2578C202.387 48.8906 202.918 48.6055 203.543 48.4023C204.176 48.1914 204.887 48.0859 205.676 48.0859C206.777 48.0859 207.723 48.2617 208.512 48.6133C209.309 48.9648 209.918 49.4492 210.34 50.0664C210.77 50.6758 210.984 51.3711 210.984 52.1523H207.609C207.609 51.8242 207.539 51.5312 207.398 51.2734C207.266 51.0078 207.055 50.8008 206.766 50.6523C206.484 50.4961 206.117 50.418 205.664 50.418C205.289 50.418 204.965 50.4844 204.691 50.6172C204.418 50.7422 204.207 50.9141 204.059 51.1328C203.918 51.3438 203.848 51.5781 203.848 51.8359C203.848 52.0312 203.887 52.207 203.965 52.3633C204.051 52.5117 204.188 52.6484 204.375 52.7734C204.562 52.8984 204.805 53.0156 205.102 53.125C205.406 53.2266 205.781 53.3203 206.227 53.4062C207.141 53.5938 207.957 53.8398 208.676 54.1445C209.395 54.4414 209.965 54.8477 210.387 55.3633C210.809 55.8711 211.02 56.5391 211.02 57.3672C211.02 57.9297 210.895 58.4453 210.645 58.9141C210.395 59.3828 210.035 59.793 209.566 60.1445C209.098 60.4883 208.535 60.7578 207.879 60.9531C207.23 61.1406 206.5 61.2344 205.688 61.2344C204.508 61.2344 203.508 61.0234 202.688 60.6016C201.875 60.1797 201.258 59.6445 200.836 58.9961C200.422 58.3398 200.215 57.668 200.215 56.9805H203.414C203.43 57.4414 203.547 57.8125 203.766 58.0938C203.992 58.375 204.277 58.5781 204.621 58.7031C204.973 58.8281 205.352 58.8906 205.758 58.8906C206.195 58.8906 206.559 58.832 206.848 58.7148C207.137 58.5898 207.355 58.4258 207.504 58.2227C207.66 58.0117 207.738 57.7695 207.738 57.4961ZM219.047 61.2344C218.062 61.2344 217.18 61.0781 216.398 60.7656C215.617 60.4453 214.953 60.0039 214.406 59.4414C213.867 58.8789 213.453 58.2266 213.164 57.4844C212.875 56.7344 212.73 55.9375 212.73 55.0938V54.625C212.73 53.6641 212.867 52.7852 213.141 51.9883C213.414 51.1914 213.805 50.5 214.312 49.9141C214.828 49.3281 215.453 48.8789 216.188 48.5664C216.922 48.2461 217.75 48.0859 218.672 48.0859C219.57 48.0859 220.367 48.2344 221.062 48.5312C221.758 48.8281 222.34 49.25 222.809 49.7969C223.285 50.3438 223.645 51 223.887 51.7656C224.129 52.5234 224.25 53.3672 224.25 54.2969V55.7031H214.172V53.4531H220.934V53.1953C220.934 52.7266 220.848 52.3086 220.676 51.9414C220.512 51.5664 220.262 51.2695 219.926 51.0508C219.59 50.832 219.16 50.7227 218.637 50.7227C218.191 50.7227 217.809 50.8203 217.488 51.0156C217.168 51.2109 216.906 51.4844 216.703 51.8359C216.508 52.1875 216.359 52.6016 216.258 53.0781C216.164 53.5469 216.117 54.0625 216.117 54.625V55.0938C216.117 55.6016 216.188 56.0703 216.328 56.5C216.477 56.9297 216.684 57.3008 216.949 57.6133C217.223 57.9258 217.551 58.168 217.934 58.3398C218.324 58.5117 218.766 58.5977 219.258 58.5977C219.867 58.5977 220.434 58.4805 220.957 58.2461C221.488 58.0039 221.945 57.6406 222.328 57.1562L223.969 58.9375C223.703 59.3203 223.34 59.6875 222.879 60.0391C222.426 60.3906 221.879 60.6797 221.238 60.9062C220.598 61.125 219.867 61.2344 219.047 61.2344ZM233.016 58.1406V52.4922C233.016 52.0859 232.949 51.7383 232.816 51.4492C232.684 51.1523 232.477 50.9219 232.195 50.7578C231.922 50.5938 231.566 50.5117 231.129 50.5117C230.754 50.5117 230.43 50.5781 230.156 50.7109C229.883 50.8359 229.672 51.0195 229.523 51.2617C229.375 51.4961 229.301 51.7734 229.301 52.0938H225.926C225.926 51.5547 226.051 51.043 226.301 50.5586C226.551 50.0742 226.914 49.6484 227.391 49.2812C227.867 48.9062 228.434 48.6133 229.09 48.4023C229.754 48.1914 230.496 48.0859 231.316 48.0859C232.301 48.0859 233.176 48.25 233.941 48.5781C234.707 48.9062 235.309 49.3984 235.746 50.0547C236.191 50.7109 236.414 51.5312 236.414 52.5156V57.9414C236.414 58.6367 236.457 59.207 236.543 59.6523C236.629 60.0898 236.754 60.4727 236.918 60.8008V61H233.508C233.344 60.6562 233.219 60.2266 233.133 59.7109C233.055 59.1875 233.016 58.6641 233.016 58.1406ZM233.461 53.2773L233.484 55.1875H231.598C231.152 55.1875 230.766 55.2383 230.438 55.3398C230.109 55.4414 229.84 55.5859 229.629 55.7734C229.418 55.9531 229.262 56.1641 229.16 56.4062C229.066 56.6484 229.02 56.9141 229.02 57.2031C229.02 57.4922 229.086 57.7539 229.219 57.9883C229.352 58.2148 229.543 58.3945 229.793 58.5273C230.043 58.6523 230.336 58.7148 230.672 58.7148C231.18 58.7148 231.621 58.6133 231.996 58.4102C232.371 58.207 232.66 57.957 232.863 57.6602C233.074 57.3633 233.184 57.082 233.191 56.8164L234.082 58.2461C233.957 58.5664 233.785 58.8984 233.566 59.2422C233.355 59.5859 233.086 59.9102 232.758 60.2148C232.43 60.5117 232.035 60.7578 231.574 60.9531C231.113 61.1406 230.566 61.2344 229.934 61.2344C229.129 61.2344 228.398 61.0742 227.742 60.7539C227.094 60.4258 226.578 59.9766 226.195 59.4062C225.82 58.8281 225.633 58.1719 225.633 57.4375C225.633 56.7734 225.758 56.1836 226.008 55.668C226.258 55.1523 226.625 54.7188 227.109 54.3672C227.602 54.0078 228.215 53.7383 228.949 53.5586C229.684 53.3711 230.535 53.2773 231.504 53.2773H233.461ZM245.871 57.4961C245.871 57.2539 245.801 57.0352 245.66 56.8398C245.52 56.6445 245.258 56.4648 244.875 56.3008C244.5 56.1289 243.957 55.9727 243.246 55.832C242.605 55.6914 242.008 55.5156 241.453 55.3047C240.906 55.0859 240.43 54.8242 240.023 54.5195C239.625 54.2148 239.312 53.8555 239.086 53.4414C238.859 53.0195 238.746 52.5391 238.746 52C238.746 51.4688 238.859 50.9688 239.086 50.5C239.32 50.0312 239.652 49.6172 240.082 49.2578C240.52 48.8906 241.051 48.6055 241.676 48.4023C242.309 48.1914 243.02 48.0859 243.809 48.0859C244.91 48.0859 245.855 48.2617 246.645 48.6133C247.441 48.9648 248.051 49.4492 248.473 50.0664C248.902 50.6758 249.117 51.3711 249.117 52.1523H245.742C245.742 51.8242 245.672 51.5312 245.531 51.2734C245.398 51.0078 245.188 50.8008 244.898 50.6523C244.617 50.4961 244.25 50.418 243.797 50.418C243.422 50.418 243.098 50.4844 242.824 50.6172C242.551 50.7422 242.34 50.9141 242.191 51.1328C242.051 51.3438 241.98 51.5781 241.98 51.8359C241.98 52.0312 242.02 52.207 242.098 52.3633C242.184 52.5117 242.32 52.6484 242.508 52.7734C242.695 52.8984 242.938 53.0156 243.234 53.125C243.539 53.2266 243.914 53.3203 244.359 53.4062C245.273 53.5938 246.09 53.8398 246.809 54.1445C247.527 54.4414 248.098 54.8477 248.52 55.3633C248.941 55.8711 249.152 56.5391 249.152 57.3672C249.152 57.9297 249.027 58.4453 248.777 58.9141C248.527 59.3828 248.168 59.793 247.699 60.1445C247.23 60.4883 246.668 60.7578 246.012 60.9531C245.363 61.1406 244.633 61.2344 243.82 61.2344C242.641 61.2344 241.641 61.0234 240.82 60.6016C240.008 60.1797 239.391 59.6445 238.969 58.9961C238.555 58.3398 238.348 57.668 238.348 56.9805H241.547C241.562 57.4414 241.68 57.8125 241.898 58.0938C242.125 58.375 242.41 58.5781 242.754 58.7031C243.105 58.8281 243.484 58.8906 243.891 58.8906C244.328 58.8906 244.691 58.832 244.98 58.7148C245.27 58.5898 245.488 58.4258 245.637 58.2227C245.793 58.0117 245.871 57.7695 245.871 57.4961ZM257.18 61.2344C256.195 61.2344 255.312 61.0781 254.531 60.7656C253.75 60.4453 253.086 60.0039 252.539 59.4414C252 58.8789 251.586 58.2266 251.297 57.4844C251.008 56.7344 250.863 55.9375 250.863 55.0938V54.625C250.863 53.6641 251 52.7852 251.273 51.9883C251.547 51.1914 251.938 50.5 252.445 49.9141C252.961 49.3281 253.586 48.8789 254.32 48.5664C255.055 48.2461 255.883 48.0859 256.805 48.0859C257.703 48.0859 258.5 48.2344 259.195 48.5312C259.891 48.8281 260.473 49.25 260.941 49.7969C261.418 50.3438 261.777 51 262.02 51.7656C262.262 52.5234 262.383 53.3672 262.383 54.2969V55.7031H252.305V53.4531H259.066V53.1953C259.066 52.7266 258.98 52.3086 258.809 51.9414C258.645 51.5664 258.395 51.2695 258.059 51.0508C257.723 50.832 257.293 50.7227 256.77 50.7227C256.324 50.7227 255.941 50.8203 255.621 51.0156C255.301 51.2109 255.039 51.4844 254.836 51.8359C254.641 52.1875 254.492 52.6016 254.391 53.0781C254.297 53.5469 254.25 54.0625 254.25 54.625V55.0938C254.25 55.6016 254.32 56.0703 254.461 56.5C254.609 56.9297 254.816 57.3008 255.082 57.6133C255.355 57.9258 255.684 58.168 256.066 58.3398C256.457 58.5117 256.898 58.5977 257.391 58.5977C258 58.5977 258.566 58.4805 259.09 58.2461C259.621 58.0039 260.078 57.6406 260.461 57.1562L262.102 58.9375C261.836 59.3203 261.473 59.6875 261.012 60.0391C260.559 60.3906 260.012 60.6797 259.371 60.9062C258.73 61.125 258 61.2344 257.18 61.2344ZM277.43 46.8555L272.789 61H269.051L275.391 43.9375H277.77L277.43 46.8555ZM281.285 61L276.633 46.8555L276.258 43.9375H278.66L285.035 61H281.285ZM281.074 54.6484V57.4023H272.062V54.6484H281.074ZM289.336 51.0273V61H285.961V48.3203H289.125L289.336 51.0273ZM288.844 54.2148H287.93C287.93 53.2773 288.051 52.4336 288.293 51.6836C288.535 50.9258 288.875 50.2812 289.312 49.75C289.75 49.2109 290.27 48.8008 290.871 48.5195C291.48 48.2305 292.16 48.0859 292.91 48.0859C293.504 48.0859 294.047 48.1719 294.539 48.3438C295.031 48.5156 295.453 48.7891 295.805 49.1641C296.164 49.5391 296.438 50.0352 296.625 50.6523C296.82 51.2695 296.918 52.0234 296.918 52.9141V61H293.52V52.9023C293.52 52.3398 293.441 51.9023 293.285 51.5898C293.129 51.2773 292.898 51.0586 292.594 50.9336C292.297 50.8008 291.93 50.7344 291.492 50.7344C291.039 50.7344 290.645 50.8242 290.309 51.0039C289.98 51.1836 289.707 51.4336 289.488 51.7539C289.277 52.0664 289.117 52.4336 289.008 52.8555C288.898 53.2773 288.844 53.7305 288.844 54.2148ZM306.328 58.1406V52.4922C306.328 52.0859 306.262 51.7383 306.129 51.4492C305.996 51.1523 305.789 50.9219 305.508 50.7578C305.234 50.5938 304.879 50.5117 304.441 50.5117C304.066 50.5117 303.742 50.5781 303.469 50.7109C303.195 50.8359 302.984 51.0195 302.836 51.2617C302.688 51.4961 302.613 51.7734 302.613 52.0938H299.238C299.238 51.5547 299.363 51.043 299.613 50.5586C299.863 50.0742 300.227 49.6484 300.703 49.2812C301.18 48.9062 301.746 48.6133 302.402 48.4023C303.066 48.1914 303.809 48.0859 304.629 48.0859C305.613 48.0859 306.488 48.25 307.254 48.5781C308.02 48.9062 308.621 49.3984 309.059 50.0547C309.504 50.7109 309.727 51.5312 309.727 52.5156V57.9414C309.727 58.6367 309.77 59.207 309.855 59.6523C309.941 60.0898 310.066 60.4727 310.23 60.8008V61H306.82C306.656 60.6562 306.531 60.2266 306.445 59.7109C306.367 59.1875 306.328 58.6641 306.328 58.1406ZM306.773 53.2773L306.797 55.1875H304.91C304.465 55.1875 304.078 55.2383 303.75 55.3398C303.422 55.4414 303.152 55.5859 302.941 55.7734C302.73 55.9531 302.574 56.1641 302.473 56.4062C302.379 56.6484 302.332 56.9141 302.332 57.2031C302.332 57.4922 302.398 57.7539 302.531 57.9883C302.664 58.2148 302.855 58.3945 303.105 58.5273C303.355 58.6523 303.648 58.7148 303.984 58.7148C304.492 58.7148 304.934 58.6133 305.309 58.4102C305.684 58.207 305.973 57.957 306.176 57.6602C306.387 57.3633 306.496 57.082 306.504 56.8164L307.395 58.2461C307.27 58.5664 307.098 58.8984 306.879 59.2422C306.668 59.5859 306.398 59.9102 306.07 60.2148C305.742 60.5117 305.348 60.7578 304.887 60.9531C304.426 61.1406 303.879 61.2344 303.246 61.2344C302.441 61.2344 301.711 61.0742 301.055 60.7539C300.406 60.4258 299.891 59.9766 299.508 59.4062C299.133 58.8281 298.945 58.1719 298.945 57.4375C298.945 56.7734 299.07 56.1836 299.32 55.668C299.57 55.1523 299.938 54.7188 300.422 54.3672C300.914 54.0078 301.527 53.7383 302.262 53.5586C302.996 53.3711 303.848 53.2773 304.816 53.2773H306.773ZM315.891 43V61H312.504V43H315.891ZM322.441 59.5703L325.805 48.3203H329.426L324.328 62.9102C324.219 63.2305 324.07 63.5742 323.883 63.9414C323.703 64.3086 323.457 64.6562 323.145 64.9844C322.84 65.3203 322.453 65.5938 321.984 65.8047C321.523 66.0156 320.957 66.1211 320.285 66.1211C319.965 66.1211 319.703 66.1016 319.5 66.0625C319.297 66.0234 319.055 65.9688 318.773 65.8984V63.4258C318.859 63.4258 318.949 63.4258 319.043 63.4258C319.137 63.4336 319.227 63.4375 319.312 63.4375C319.758 63.4375 320.121 63.3867 320.402 63.2852C320.684 63.1836 320.91 63.0273 321.082 62.8164C321.254 62.6133 321.391 62.3477 321.492 62.0195L322.441 59.5703ZM321.035 48.3203L323.789 57.5078L324.27 61.082L321.973 61.3281L317.414 48.3203H321.035ZM337.629 57.4961C337.629 57.2539 337.559 57.0352 337.418 56.8398C337.277 56.6445 337.016 56.4648 336.633 56.3008C336.258 56.1289 335.715 55.9727 335.004 55.832C334.363 55.6914 333.766 55.5156 333.211 55.3047C332.664 55.0859 332.188 54.8242 331.781 54.5195C331.383 54.2148 331.07 53.8555 330.844 53.4414C330.617 53.0195 330.504 52.5391 330.504 52C330.504 51.4688 330.617 50.9688 330.844 50.5C331.078 50.0312 331.41 49.6172 331.84 49.2578C332.277 48.8906 332.809 48.6055 333.434 48.4023C334.066 48.1914 334.777 48.0859 335.566 48.0859C336.668 48.0859 337.613 48.2617 338.402 48.6133C339.199 48.9648 339.809 49.4492 340.23 50.0664C340.66 50.6758 340.875 51.3711 340.875 52.1523H337.5C337.5 51.8242 337.43 51.5312 337.289 51.2734C337.156 51.0078 336.945 50.8008 336.656 50.6523C336.375 50.4961 336.008 50.418 335.555 50.418C335.18 50.418 334.855 50.4844 334.582 50.6172C334.309 50.7422 334.098 50.9141 333.949 51.1328C333.809 51.3438 333.738 51.5781 333.738 51.8359C333.738 52.0312 333.777 52.207 333.855 52.3633C333.941 52.5117 334.078 52.6484 334.266 52.7734C334.453 52.8984 334.695 53.0156 334.992 53.125C335.297 53.2266 335.672 53.3203 336.117 53.4062C337.031 53.5938 337.848 53.8398 338.566 54.1445C339.285 54.4414 339.855 54.8477 340.277 55.3633C340.699 55.8711 340.91 56.5391 340.91 57.3672C340.91 57.9297 340.785 58.4453 340.535 58.9141C340.285 59.3828 339.926 59.793 339.457 60.1445C338.988 60.4883 338.426 60.7578 337.77 60.9531C337.121 61.1406 336.391 61.2344 335.578 61.2344C334.398 61.2344 333.398 61.0234 332.578 60.6016C331.766 60.1797 331.148 59.6445 330.727 58.9961C330.312 58.3398 330.105 57.668 330.105 56.9805H333.305C333.32 57.4414 333.438 57.8125 333.656 58.0938C333.883 58.375 334.168 58.5781 334.512 58.7031C334.863 58.8281 335.242 58.8906 335.648 58.8906C336.086 58.8906 336.449 58.832 336.738 58.7148C337.027 58.5898 337.246 58.4258 337.395 58.2227C337.551 58.0117 337.629 57.7695 337.629 57.4961ZM346.664 48.3203V61H343.277V48.3203H346.664ZM343.066 45.0156C343.066 44.5234 343.238 44.1172 343.582 43.7969C343.926 43.4766 344.387 43.3164 344.965 43.3164C345.535 43.3164 345.992 43.4766 346.336 43.7969C346.688 44.1172 346.863 44.5234 346.863 45.0156C346.863 45.5078 346.688 45.9141 346.336 46.2344C345.992 46.5547 345.535 46.7148 344.965 46.7148C344.387 46.7148 343.926 46.5547 343.582 46.2344C343.238 45.9141 343.066 45.5078 343.066 45.0156ZM356.309 57.4961C356.309 57.2539 356.238 57.0352 356.098 56.8398C355.957 56.6445 355.695 56.4648 355.312 56.3008C354.938 56.1289 354.395 55.9727 353.684 55.832C353.043 55.6914 352.445 55.5156 351.891 55.3047C351.344 55.0859 350.867 54.8242 350.461 54.5195C350.062 54.2148 349.75 53.8555 349.523 53.4414C349.297 53.0195 349.184 52.5391 349.184 52C349.184 51.4688 349.297 50.9688 349.523 50.5C349.758 50.0312 350.09 49.6172 350.52 49.2578C350.957 48.8906 351.488 48.6055 352.113 48.4023C352.746 48.1914 353.457 48.0859 354.246 48.0859C355.348 48.0859 356.293 48.2617 357.082 48.6133C357.879 48.9648 358.488 49.4492 358.91 50.0664C359.34 50.6758 359.555 51.3711 359.555 52.1523H356.18C356.18 51.8242 356.109 51.5312 355.969 51.2734C355.836 51.0078 355.625 50.8008 355.336 50.6523C355.055 50.4961 354.688 50.418 354.234 50.418C353.859 50.418 353.535 50.4844 353.262 50.6172C352.988 50.7422 352.777 50.9141 352.629 51.1328C352.488 51.3438 352.418 51.5781 352.418 51.8359C352.418 52.0312 352.457 52.207 352.535 52.3633C352.621 52.5117 352.758 52.6484 352.945 52.7734C353.133 52.8984 353.375 53.0156 353.672 53.125C353.977 53.2266 354.352 53.3203 354.797 53.4062C355.711 53.5938 356.527 53.8398 357.246 54.1445C357.965 54.4414 358.535 54.8477 358.957 55.3633C359.379 55.8711 359.59 56.5391 359.59 57.3672C359.59 57.9297 359.465 58.4453 359.215 58.9141C358.965 59.3828 358.605 59.793 358.137 60.1445C357.668 60.4883 357.105 60.7578 356.449 60.9531C355.801 61.1406 355.07 61.2344 354.258 61.2344C353.078 61.2344 352.078 61.0234 351.258 60.6016C350.445 60.1797 349.828 59.6445 349.406 58.9961C348.992 58.3398 348.785 57.668 348.785 56.9805H351.984C352 57.4414 352.117 57.8125 352.336 58.0938C352.562 58.375 352.848 58.5781 353.191 58.7031C353.543 58.8281 353.922 58.8906 354.328 58.8906C354.766 58.8906 355.129 58.832 355.418 58.7148C355.707 58.5898 355.926 58.4258 356.074 58.2227C356.23 58.0117 356.309 57.7695 356.309 57.4961ZM374.602 58.1406V52.4922C374.602 52.0859 374.535 51.7383 374.402 51.4492C374.27 51.1523 374.062 50.9219 373.781 50.7578C373.508 50.5938 373.152 50.5117 372.715 50.5117C372.34 50.5117 372.016 50.5781 371.742 50.7109C371.469 50.8359 371.258 51.0195 371.109 51.2617C370.961 51.4961 370.887 51.7734 370.887 52.0938H367.512C367.512 51.5547 367.637 51.043 367.887 50.5586C368.137 50.0742 368.5 49.6484 368.977 49.2812C369.453 48.9062 370.02 48.6133 370.676 48.4023C371.34 48.1914 372.082 48.0859 372.902 48.0859C373.887 48.0859 374.762 48.25 375.527 48.5781C376.293 48.9062 376.895 49.3984 377.332 50.0547C377.777 50.7109 378 51.5312 378 52.5156V57.9414C378 58.6367 378.043 59.207 378.129 59.6523C378.215 60.0898 378.34 60.4727 378.504 60.8008V61H375.094C374.93 60.6562 374.805 60.2266 374.719 59.7109C374.641 59.1875 374.602 58.6641 374.602 58.1406ZM375.047 53.2773L375.07 55.1875H373.184C372.738 55.1875 372.352 55.2383 372.023 55.3398C371.695 55.4414 371.426 55.5859 371.215 55.7734C371.004 55.9531 370.848 56.1641 370.746 56.4062C370.652 56.6484 370.605 56.9141 370.605 57.2031C370.605 57.4922 370.672 57.7539 370.805 57.9883C370.938 58.2148 371.129 58.3945 371.379 58.5273C371.629 58.6523 371.922 58.7148 372.258 58.7148C372.766 58.7148 373.207 58.6133 373.582 58.4102C373.957 58.207 374.246 57.957 374.449 57.6602C374.66 57.3633 374.77 57.082 374.777 56.8164L375.668 58.2461C375.543 58.5664 375.371 58.8984 375.152 59.2422C374.941 59.5859 374.672 59.9102 374.344 60.2148C374.016 60.5117 373.621 60.7578 373.16 60.9531C372.699 61.1406 372.152 61.2344 371.52 61.2344C370.715 61.2344 369.984 61.0742 369.328 60.7539C368.68 60.4258 368.164 59.9766 367.781 59.4062C367.406 58.8281 367.219 58.1719 367.219 57.4375C367.219 56.7734 367.344 56.1836 367.594 55.668C367.844 55.1523 368.211 54.7188 368.695 54.3672C369.188 54.0078 369.801 53.7383 370.535 53.5586C371.27 53.3711 372.121 53.2773 373.09 53.2773H375.047ZM383.906 51.0273V61H380.531V48.3203H383.695L383.906 51.0273ZM383.414 54.2148H382.5C382.5 53.2773 382.621 52.4336 382.863 51.6836C383.105 50.9258 383.445 50.2812 383.883 49.75C384.32 49.2109 384.84 48.8008 385.441 48.5195C386.051 48.2305 386.73 48.0859 387.48 48.0859C388.074 48.0859 388.617 48.1719 389.109 48.3438C389.602 48.5156 390.023 48.7891 390.375 49.1641C390.734 49.5391 391.008 50.0352 391.195 50.6523C391.391 51.2695 391.488 52.0234 391.488 52.9141V61H388.09V52.9023C388.09 52.3398 388.012 51.9023 387.855 51.5898C387.699 51.2773 387.469 51.0586 387.164 50.9336C386.867 50.8008 386.5 50.7344 386.062 50.7344C385.609 50.7344 385.215 50.8242 384.879 51.0039C384.551 51.1836 384.277 51.4336 384.059 51.7539C383.848 52.0664 383.688 52.4336 383.578 52.8555C383.469 53.2773 383.414 53.7305 383.414 54.2148ZM401.543 58.2344V43H404.941V61H401.883L401.543 58.2344ZM393.527 54.8125V54.5664C393.527 53.5977 393.637 52.7188 393.855 51.9297C394.074 51.1328 394.395 50.4492 394.816 49.8789C395.238 49.3086 395.758 48.8672 396.375 48.5547C396.992 48.2422 397.695 48.0859 398.484 48.0859C399.227 48.0859 399.875 48.2422 400.43 48.5547C400.992 48.8672 401.469 49.3125 401.859 49.8906C402.258 50.4609 402.578 51.1367 402.82 51.918C403.062 52.6914 403.238 53.5391 403.348 54.4609V55C403.238 55.8828 403.062 56.7031 402.82 57.4609C402.578 58.2188 402.258 58.8828 401.859 59.4531C401.469 60.0156 400.992 60.4531 400.43 60.7656C399.867 61.0781 399.211 61.2344 398.461 61.2344C397.672 61.2344 396.969 61.0742 396.352 60.7539C395.742 60.4336 395.227 59.9844 394.805 59.4062C394.391 58.8281 394.074 58.1484 393.855 57.3672C393.637 56.5859 393.527 55.7344 393.527 54.8125ZM396.902 54.5664V54.8125C396.902 55.3359 396.941 55.8242 397.02 56.2773C397.105 56.7305 397.242 57.1328 397.43 57.4844C397.625 57.8281 397.875 58.0977 398.18 58.293C398.492 58.4805 398.871 58.5742 399.316 58.5742C399.895 58.5742 400.371 58.4453 400.746 58.1875C401.121 57.9219 401.406 57.5586 401.602 57.0977C401.805 56.6367 401.922 56.1055 401.953 55.5039V53.9688C401.93 53.4766 401.859 53.0352 401.742 52.6445C401.633 52.2461 401.469 51.9062 401.25 51.625C401.039 51.3438 400.773 51.125 400.453 50.9688C400.141 50.8125 399.77 50.7344 399.34 50.7344C398.902 50.7344 398.527 50.8359 398.215 51.0391C397.902 51.2344 397.648 51.5039 397.453 51.8477C397.266 52.1914 397.125 52.5977 397.031 53.0664C396.945 53.5273 396.902 54.0273 396.902 54.5664ZM420.41 54.918H416.062V52.1758H420.41C421.082 52.1758 421.629 52.0664 422.051 51.8477C422.473 51.6211 422.781 51.3086 422.977 50.9102C423.172 50.5117 423.27 50.0625 423.27 49.5625C423.27 49.0547 423.172 48.582 422.977 48.1445C422.781 47.707 422.473 47.3555 422.051 47.0898C421.629 46.8242 421.082 46.6914 420.41 46.6914H417.281V61H413.766V43.9375H420.41C421.746 43.9375 422.891 44.1797 423.844 44.6641C424.805 45.1406 425.539 45.8008 426.047 46.6445C426.555 47.4883 426.809 48.4531 426.809 49.5391C426.809 50.6406 426.555 51.5938 426.047 52.3984C425.539 53.2031 424.805 53.8242 423.844 54.2617C422.891 54.6992 421.746 54.918 420.41 54.918ZM432.398 51.0859V61H429.023V48.3203H432.199L432.398 51.0859ZM436.219 48.2383L436.16 51.3672C435.996 51.3438 435.797 51.3242 435.562 51.3086C435.336 51.2852 435.129 51.2734 434.941 51.2734C434.465 51.2734 434.051 51.3359 433.699 51.4609C433.355 51.5781 433.066 51.7539 432.832 51.9883C432.605 52.2227 432.434 52.5078 432.316 52.8438C432.207 53.1797 432.145 53.5625 432.129 53.9922L431.449 53.7812C431.449 52.9609 431.531 52.207 431.695 51.5195C431.859 50.8242 432.098 50.2188 432.41 49.7031C432.73 49.1875 433.121 48.7891 433.582 48.5078C434.043 48.2266 434.57 48.0859 435.164 48.0859C435.352 48.0859 435.543 48.1016 435.738 48.1328C435.934 48.1562 436.094 48.1914 436.219 48.2383ZM443.414 61.2344C442.43 61.2344 441.547 61.0781 440.766 60.7656C439.984 60.4453 439.32 60.0039 438.773 59.4414C438.234 58.8789 437.82 58.2266 437.531 57.4844C437.242 56.7344 437.098 55.9375 437.098 55.0938V54.625C437.098 53.6641 437.234 52.7852 437.508 51.9883C437.781 51.1914 438.172 50.5 438.68 49.9141C439.195 49.3281 439.82 48.8789 440.555 48.5664C441.289 48.2461 442.117 48.0859 443.039 48.0859C443.938 48.0859 444.734 48.2344 445.43 48.5312C446.125 48.8281 446.707 49.25 447.176 49.7969C447.652 50.3438 448.012 51 448.254 51.7656C448.496 52.5234 448.617 53.3672 448.617 54.2969V55.7031H438.539V53.4531H445.301V53.1953C445.301 52.7266 445.215 52.3086 445.043 51.9414C444.879 51.5664 444.629 51.2695 444.293 51.0508C443.957 50.832 443.527 50.7227 443.004 50.7227C442.559 50.7227 442.176 50.8203 441.855 51.0156C441.535 51.2109 441.273 51.4844 441.07 51.8359C440.875 52.1875 440.727 52.6016 440.625 53.0781C440.531 53.5469 440.484 54.0625 440.484 54.625V55.0938C440.484 55.6016 440.555 56.0703 440.695 56.5C440.844 56.9297 441.051 57.3008 441.316 57.6133C441.59 57.9258 441.918 58.168 442.301 58.3398C442.691 58.5117 443.133 58.5977 443.625 58.5977C444.234 58.5977 444.801 58.4805 445.324 58.2461C445.855 58.0039 446.312 57.6406 446.695 57.1562L448.336 58.9375C448.07 59.3203 447.707 59.6875 447.246 60.0391C446.793 60.3906 446.246 60.6797 445.605 60.9062C444.965 61.125 444.234 61.2344 443.414 61.2344ZM458.027 58.2344V43H461.426V61H458.367L458.027 58.2344ZM450.012 54.8125V54.5664C450.012 53.5977 450.121 52.7188 450.34 51.9297C450.559 51.1328 450.879 50.4492 451.301 49.8789C451.723 49.3086 452.242 48.8672 452.859 48.5547C453.477 48.2422 454.18 48.0859 454.969 48.0859C455.711 48.0859 456.359 48.2422 456.914 48.5547C457.477 48.8672 457.953 49.3125 458.344 49.8906C458.742 50.4609 459.062 51.1367 459.305 51.918C459.547 52.6914 459.723 53.5391 459.832 54.4609V55C459.723 55.8828 459.547 56.7031 459.305 57.4609C459.062 58.2188 458.742 58.8828 458.344 59.4531C457.953 60.0156 457.477 60.4531 456.914 60.7656C456.352 61.0781 455.695 61.2344 454.945 61.2344C454.156 61.2344 453.453 61.0742 452.836 60.7539C452.227 60.4336 451.711 59.9844 451.289 59.4062C450.875 58.8281 450.559 58.1484 450.34 57.3672C450.121 56.5859 450.012 55.7344 450.012 54.8125ZM453.387 54.5664V54.8125C453.387 55.3359 453.426 55.8242 453.504 56.2773C453.59 56.7305 453.727 57.1328 453.914 57.4844C454.109 57.8281 454.359 58.0977 454.664 58.293C454.977 58.4805 455.355 58.5742 455.801 58.5742C456.379 58.5742 456.855 58.4453 457.23 58.1875C457.605 57.9219 457.891 57.5586 458.086 57.0977C458.289 56.6367 458.406 56.1055 458.438 55.5039V53.9688C458.414 53.4766 458.344 53.0352 458.227 52.6445C458.117 52.2461 457.953 51.9062 457.734 51.625C457.523 51.3438 457.258 51.125 456.938 50.9688C456.625 50.8125 456.254 50.7344 455.824 50.7344C455.387 50.7344 455.012 50.8359 454.699 51.0391C454.387 51.2344 454.133 51.5039 453.938 51.8477C453.75 52.1914 453.609 52.5977 453.516 53.0664C453.43 53.5273 453.387 54.0273 453.387 54.5664ZM467.625 48.3203V61H464.238V48.3203H467.625ZM464.027 45.0156C464.027 44.5234 464.199 44.1172 464.543 43.7969C464.887 43.4766 465.348 43.3164 465.926 43.3164C466.496 43.3164 466.953 43.4766 467.297 43.7969C467.648 44.1172 467.824 44.5234 467.824 45.0156C467.824 45.5078 467.648 45.9141 467.297 46.2344C466.953 46.5547 466.496 46.7148 465.926 46.7148C465.348 46.7148 464.887 46.5547 464.543 46.2344C464.199 45.9141 464.027 45.5078 464.027 45.0156ZM475.652 58.5977C476.066 58.5977 476.434 58.5195 476.754 58.3633C477.074 58.1992 477.324 57.9727 477.504 57.6836C477.691 57.3867 477.789 57.0391 477.797 56.6406H480.973C480.965 57.5312 480.727 58.3242 480.258 59.0195C479.789 59.707 479.16 60.25 478.371 60.6484C477.582 61.0391 476.699 61.2344 475.723 61.2344C474.738 61.2344 473.879 61.0703 473.145 60.7422C472.418 60.4141 471.812 59.9609 471.328 59.3828C470.844 58.7969 470.48 58.1172 470.238 57.3438C469.996 56.5625 469.875 55.7266 469.875 54.8359V54.4961C469.875 53.5977 469.996 52.7617 470.238 51.9883C470.48 51.207 470.844 50.5273 471.328 49.9492C471.812 49.3633 472.418 48.9062 473.145 48.5781C473.871 48.25 474.723 48.0859 475.699 48.0859C476.738 48.0859 477.648 48.2852 478.43 48.6836C479.219 49.082 479.836 49.6523 480.281 50.3945C480.734 51.1289 480.965 52 480.973 53.0078H477.797C477.789 52.5859 477.699 52.2031 477.527 51.8594C477.363 51.5156 477.121 51.2422 476.801 51.0391C476.488 50.8281 476.102 50.7227 475.641 50.7227C475.148 50.7227 474.746 50.8281 474.434 51.0391C474.121 51.2422 473.879 51.5234 473.707 51.8828C473.535 52.2344 473.414 52.6367 473.344 53.0898C473.281 53.5352 473.25 54.0039 473.25 54.4961V54.8359C473.25 55.3281 473.281 55.8008 473.344 56.2539C473.406 56.707 473.523 57.1094 473.695 57.4609C473.875 57.8125 474.121 58.0898 474.434 58.293C474.746 58.4961 475.152 58.5977 475.652 58.5977ZM489.141 48.3203V50.7109H481.758V48.3203H489.141ZM483.586 45.1914H486.961V57.1797C486.961 57.5469 487.008 57.8281 487.102 58.0234C487.203 58.2188 487.352 58.3555 487.547 58.4336C487.742 58.5039 487.988 58.5391 488.285 58.5391C488.496 58.5391 488.684 58.5312 488.848 58.5156C489.02 58.4922 489.164 58.4688 489.281 58.4453L489.293 60.9297C489.004 61.0234 488.691 61.0977 488.355 61.1523C488.02 61.207 487.648 61.2344 487.242 61.2344C486.5 61.2344 485.852 61.1133 485.297 60.8711C484.75 60.6211 484.328 60.2227 484.031 59.6758C483.734 59.1289 483.586 58.4102 483.586 57.5195V45.1914ZM490.219 54.7891V54.543C490.219 53.6133 490.352 52.7578 490.617 51.9766C490.883 51.1875 491.27 50.5039 491.777 49.9258C492.285 49.3477 492.91 48.8984 493.652 48.5781C494.395 48.25 495.246 48.0859 496.207 48.0859C497.168 48.0859 498.023 48.25 498.773 48.5781C499.523 48.8984 500.152 49.3477 500.66 49.9258C501.176 50.5039 501.566 51.1875 501.832 51.9766C502.098 52.7578 502.23 53.6133 502.23 54.543V54.7891C502.23 55.7109 502.098 56.5664 501.832 57.3555C501.566 58.1367 501.176 58.8203 500.66 59.4062C500.152 59.9844 499.527 60.4336 498.785 60.7539C498.043 61.0742 497.191 61.2344 496.23 61.2344C495.27 61.2344 494.414 61.0742 493.664 60.7539C492.922 60.4336 492.293 59.9844 491.777 59.4062C491.27 58.8203 490.883 58.1367 490.617 57.3555C490.352 56.5664 490.219 55.7109 490.219 54.7891ZM493.594 54.543V54.7891C493.594 55.3203 493.641 55.8164 493.734 56.2773C493.828 56.7383 493.977 57.1445 494.18 57.4961C494.391 57.8398 494.664 58.1094 495 58.3047C495.336 58.5 495.746 58.5977 496.23 58.5977C496.699 58.5977 497.102 58.5 497.438 58.3047C497.773 58.1094 498.043 57.8398 498.246 57.4961C498.449 57.1445 498.598 56.7383 498.691 56.2773C498.793 55.8164 498.844 55.3203 498.844 54.7891V54.543C498.844 54.0273 498.793 53.543 498.691 53.0898C498.598 52.6289 498.445 52.2227 498.234 51.8711C498.031 51.5117 497.762 51.2305 497.426 51.0273C497.09 50.8242 496.684 50.7227 496.207 50.7227C495.73 50.7227 495.324 50.8242 494.988 51.0273C494.66 51.2305 494.391 51.5117 494.18 51.8711C493.977 52.2227 493.828 52.6289 493.734 53.0898C493.641 53.543 493.594 54.0273 493.594 54.543ZM507.68 51.0859V61H504.305V48.3203H507.48L507.68 51.0859ZM511.5 48.2383L511.441 51.3672C511.277 51.3438 511.078 51.3242 510.844 51.3086C510.617 51.2852 510.41 51.2734 510.223 51.2734C509.746 51.2734 509.332 51.3359 508.98 51.4609C508.637 51.5781 508.348 51.7539 508.113 51.9883C507.887 52.2227 507.715 52.5078 507.598 52.8438C507.488 53.1797 507.426 53.5625 507.41 53.9922L506.73 53.7812C506.73 52.9609 506.812 52.207 506.977 51.5195C507.141 50.8242 507.379 50.2188 507.691 49.7031C508.012 49.1875 508.402 48.7891 508.863 48.5078C509.324 48.2266 509.852 48.0859 510.445 48.0859C510.633 48.0859 510.824 48.1016 511.02 48.1328C511.215 48.1562 511.375 48.1914 511.5 48.2383Z" fill="#888888"/>
<path d="M118.594 98.4219V104.75H101.086V98.4219H118.594ZM103.828 84.875V119H95.6016V84.875H103.828ZM124.125 84.875V119H115.922V84.875H124.125ZM127.992 106.578V106.086C127.992 104.227 128.258 102.516 128.789 100.953C129.32 99.375 130.102 98.0078 131.133 96.8516C132.164 95.6953 133.438 94.7969 134.953 94.1562C136.469 93.5 138.219 93.1719 140.203 93.1719C142.203 93.1719 143.961 93.5 145.477 94.1562C147.008 94.7969 148.289 95.6953 149.32 96.8516C150.352 98.0078 151.133 99.375 151.664 100.953C152.195 102.516 152.461 104.227 152.461 106.086V106.578C152.461 108.422 152.195 110.133 151.664 111.711C151.133 113.273 150.352 114.641 149.32 115.812C148.289 116.969 147.016 117.867 145.5 118.508C143.984 119.148 142.234 119.469 140.25 119.469C138.266 119.469 136.508 119.148 134.977 118.508C133.445 117.867 132.164 116.969 131.133 115.812C130.102 114.641 129.32 113.273 128.789 111.711C128.258 110.133 127.992 108.422 127.992 106.578ZM135.891 106.086V106.578C135.891 107.531 135.961 108.422 136.102 109.25C136.242 110.078 136.477 110.805 136.805 111.43C137.133 112.039 137.578 112.516 138.141 112.859C138.703 113.203 139.406 113.375 140.25 113.375C141.078 113.375 141.766 113.203 142.312 112.859C142.875 112.516 143.32 112.039 143.648 111.43C143.977 110.805 144.211 110.078 144.352 109.25C144.492 108.422 144.562 107.531 144.562 106.578V106.086C144.562 105.164 144.492 104.297 144.352 103.484C144.211 102.656 143.977 101.93 143.648 101.305C143.32 100.664 142.875 100.164 142.312 99.8047C141.75 99.4453 141.047 99.2656 140.203 99.2656C139.375 99.2656 138.68 99.4453 138.117 99.8047C137.57 100.164 137.133 100.664 136.805 101.305C136.477 101.93 136.242 102.656 136.102 103.484C135.961 104.297 135.891 105.164 135.891 106.086ZM163.688 111.453L168.375 93.6406H173.32L171.562 102.57L166.922 119H162.961L163.688 111.453ZM161.836 93.6406L164.742 111.312L165.07 119H160.266L154.266 93.6406H161.836ZM177.492 110.938L180.422 93.6406H187.992L182.039 119H177.234L177.492 110.938ZM173.883 93.6406L178.617 111.406L179.344 119H175.336L170.789 102.617L169.102 93.6406H173.883ZM218.297 84.875V119H210.07V84.875H218.297ZM228.562 84.875V91.2266H200.039V84.875H228.562ZM225.773 106.578V106.086C225.773 104.227 226.039 102.516 226.57 100.953C227.102 99.375 227.883 98.0078 228.914 96.8516C229.945 95.6953 231.219 94.7969 232.734 94.1562C234.25 93.5 236 93.1719 237.984 93.1719C239.984 93.1719 241.742 93.5 243.258 94.1562C244.789 94.7969 246.07 95.6953 247.102 96.8516C248.133 98.0078 248.914 99.375 249.445 100.953C249.977 102.516 250.242 104.227 250.242 106.086V106.578C250.242 108.422 249.977 110.133 249.445 111.711C248.914 113.273 248.133 114.641 247.102 115.812C246.07 116.969 244.797 117.867 243.281 118.508C241.766 119.148 240.016 119.469 238.031 119.469C236.047 119.469 234.289 119.148 232.758 118.508C231.227 117.867 229.945 116.969 228.914 115.812C227.883 114.641 227.102 113.273 226.57 111.711C226.039 110.133 225.773 108.422 225.773 106.578ZM233.672 106.086V106.578C233.672 107.531 233.742 108.422 233.883 109.25C234.023 110.078 234.258 110.805 234.586 111.43C234.914 112.039 235.359 112.516 235.922 112.859C236.484 113.203 237.188 113.375 238.031 113.375C238.859 113.375 239.547 113.203 240.094 112.859C240.656 112.516 241.102 112.039 241.43 111.43C241.758 110.805 241.992 110.078 242.133 109.25C242.273 108.422 242.344 107.531 242.344 106.578V106.086C242.344 105.164 242.273 104.297 242.133 103.484C241.992 102.656 241.758 101.93 241.43 101.305C241.102 100.664 240.656 100.164 240.094 99.8047C239.531 99.4453 238.828 99.2656 237.984 99.2656C237.156 99.2656 236.461 99.4453 235.898 99.8047C235.352 100.164 234.914 100.664 234.586 101.305C234.258 101.93 234.023 102.656 233.883 103.484C233.742 104.297 233.672 105.164 233.672 106.086ZM266.086 84.875H279.516C282.141 84.875 284.422 85.2656 286.359 86.0469C288.297 86.8281 289.789 87.9844 290.836 89.5156C291.898 91.0469 292.43 92.9375 292.43 95.1875C292.43 97.1406 292.125 98.7734 291.516 100.086C290.906 101.398 290.055 102.484 288.961 103.344C287.883 104.188 286.625 104.883 285.188 105.43L282.492 106.953H271.219L271.172 100.602H279.516C280.562 100.602 281.43 100.414 282.117 100.039C282.805 99.6641 283.32 99.1328 283.664 98.4453C284.023 97.7422 284.203 96.9062 284.203 95.9375C284.203 94.9531 284.023 94.1094 283.664 93.4062C283.305 92.7031 282.773 92.1641 282.07 91.7891C281.383 91.4141 280.531 91.2266 279.516 91.2266H274.312V119H266.086V84.875ZM284.766 119L277.219 103.906L285.938 103.859L293.578 118.648V119H284.766ZM311.836 112.836V93.6406H319.758V119H312.352L311.836 112.836ZM312.586 107.68L314.648 107.633C314.648 109.336 314.445 110.914 314.039 112.367C313.633 113.805 313.031 115.055 312.234 116.117C311.453 117.18 310.484 118.008 309.328 118.602C308.188 119.18 306.867 119.469 305.367 119.469C304.117 119.469 302.969 119.297 301.922 118.953C300.891 118.594 300 118.039 299.25 117.289C298.5 116.523 297.914 115.547 297.492 114.359C297.086 113.156 296.883 111.719 296.883 110.047V93.6406H304.781V110.094C304.781 110.656 304.852 111.141 304.992 111.547C305.133 111.953 305.336 112.297 305.602 112.578C305.867 112.844 306.195 113.047 306.586 113.188C306.992 113.312 307.453 113.375 307.969 113.375C309.156 113.375 310.086 113.125 310.758 112.625C311.43 112.125 311.898 111.445 312.164 110.586C312.445 109.727 312.586 108.758 312.586 107.68ZM331.875 99.0547V119H323.977V93.6406H331.383L331.875 99.0547ZM330.938 105.453L329.086 105.5C329.086 103.562 329.32 101.836 329.789 100.32C330.258 98.7891 330.922 97.4922 331.781 96.4297C332.641 95.3672 333.664 94.5625 334.852 94.0156C336.055 93.4531 337.391 93.1719 338.859 93.1719C340.031 93.1719 341.102 93.3438 342.07 93.6875C343.055 94.0312 343.898 94.5859 344.602 95.3516C345.32 96.1172 345.867 97.1328 346.242 98.3984C346.633 99.6484 346.828 101.195 346.828 103.039V119H338.883V103.016C338.883 102 338.742 101.227 338.461 100.695C338.18 100.148 337.773 99.7734 337.242 99.5703C336.711 99.3672 336.062 99.2656 335.297 99.2656C334.484 99.2656 333.797 99.4219 333.234 99.7344C332.672 100.047 332.219 100.484 331.875 101.047C331.547 101.594 331.305 102.242 331.148 102.992C331.008 103.742 330.938 104.562 330.938 105.453ZM363.773 108.195H357.047C357.047 106.82 357.141 105.609 357.328 104.562C357.531 103.5 357.875 102.547 358.359 101.703C358.844 100.859 359.5 100.078 360.328 99.3594C361.062 98.75 361.695 98.1641 362.227 97.6016C362.758 97.0391 363.164 96.4688 363.445 95.8906C363.727 95.3125 363.867 94.6953 363.867 94.0391C363.867 93.2266 363.75 92.5625 363.516 92.0469C363.297 91.5312 362.961 91.1484 362.508 90.8984C362.07 90.6328 361.516 90.5 360.844 90.5C360.297 90.5 359.781 90.6328 359.297 90.8984C358.828 91.1641 358.445 91.5781 358.148 92.1406C357.852 92.6875 357.688 93.4141 357.656 94.3203H349.711C349.758 91.9922 350.273 90.1016 351.258 88.6484C352.258 87.1797 353.586 86.1094 355.242 85.4375C356.914 84.75 358.781 84.4062 360.844 84.4062C363.125 84.4062 365.086 84.7578 366.727 85.4609C368.367 86.1641 369.625 87.2109 370.5 88.6016C371.375 89.9766 371.812 91.6719 371.812 93.6875C371.812 95.0312 371.555 96.2031 371.039 97.2031C370.539 98.1875 369.859 99.1094 369 99.9688C368.156 100.812 367.211 101.719 366.164 102.688C365.258 103.484 364.641 104.297 364.312 105.125C363.984 105.938 363.805 106.961 363.773 108.195ZM356.086 115.32C356.086 114.195 356.492 113.258 357.305 112.508C358.117 111.742 359.172 111.359 360.469 111.359C361.766 111.359 362.82 111.742 363.633 112.508C364.445 113.258 364.852 114.195 364.852 115.32C364.852 116.445 364.445 117.391 363.633 118.156C362.82 118.906 361.766 119.281 360.469 119.281C359.172 119.281 358.117 118.906 357.305 118.156C356.492 117.391 356.086 116.445 356.086 115.32Z" fill="black"/>
<path d="M1134 0H1348C1356.28 0 1363 6.71573 1363 15V148C1363 156.284 1356.28 163 1348 163H1134V0Z" fill="#488891"/>
<path d="M1260.62 78.8078C1263.81 78.8078 1266.93 79.7552 1269.59 81.5302C1272.25 83.3052 1274.32 85.8281 1275.54 88.7798C1276.76 91.7315 1277.08 94.9795 1276.46 98.1131C1275.84 101.247 1274.3 104.125 1272.04 106.384C1269.78 108.643 1266.9 110.182 1263.77 110.805C1260.63 111.428 1257.39 111.108 1254.43 109.886C1251.48 108.663 1248.96 106.593 1247.18 103.936C1245.41 101.28 1244.46 98.1565 1244.46 94.9616C1244.46 90.6774 1246.16 86.5686 1249.19 83.5392C1252.22 80.5097 1256.33 78.8078 1260.62 78.8078ZM1260.62 73.4232C1256.36 73.4232 1252.19 74.6864 1248.65 77.0531C1245.11 79.4198 1242.35 82.7836 1240.72 86.7192C1239.09 90.6549 1238.66 94.9855 1239.49 99.1636C1240.32 103.342 1242.37 107.179 1245.39 110.192C1248.4 113.204 1252.24 115.255 1256.41 116.086C1260.59 116.917 1264.92 116.491 1268.86 114.861C1272.79 113.23 1276.16 110.47 1278.52 106.928C1280.89 103.386 1282.15 99.2215 1282.15 94.9616C1282.15 89.2493 1279.88 83.7709 1275.85 79.7317C1271.81 75.6924 1266.33 73.4232 1260.62 73.4232Z" fill="white"/>
<path d="M1274.08 46.4999H1220.23C1218.8 46.4999 1217.43 47.0672 1216.42 48.0771C1215.41 49.0869 1214.85 50.4565 1214.85 51.8845V105.731C1214.85 107.159 1215.41 108.528 1216.42 109.538C1217.43 110.548 1218.8 111.115 1220.23 111.115H1231V105.731H1220.23V68.0383H1279.46V51.8845C1279.46 50.4565 1278.89 49.0869 1277.88 48.0771C1276.87 47.0672 1275.5 46.4999 1274.08 46.4999ZM1220.23 62.6537V51.8845H1274.08V62.6537H1220.23Z" fill="white"/>
<path d="M1255.23 86.8848V103.039L1268.69 94.9617L1255.23 86.8848Z" fill="white"/>
</svg>
