<svg width="1363" height="163" viewBox="0 0 1363 163" fill="none" xmlns="http://www.w3.org/2000/svg">
<path d="M0 15C0 6.71573 6.71573 0 15 0H37V163H15C6.71573 163 0 156.284 0 148V15Z" fill="#488891"/>
<rect width="1097" height="163" transform="translate(37)" fill="#F0F0F0"/>
<path d="M101.906 53.9219L94.3945 51.2383V48.0859L104.602 52.375V54.6367L101.906 53.9219ZM94.3945 56.1719L101.918 53.4297L104.602 52.7852V55.0352L94.3945 59.3242V56.1719ZM118.301 50.8867V53.6289H109.395V50.8867H118.301ZM110.438 43.9375V61H106.922V43.9375H110.438ZM120.809 43.9375V61H117.305V43.9375H120.809ZM129.492 61.2344C128.508 61.2344 127.625 61.0781 126.844 60.7656C126.062 60.4453 125.398 60.0039 124.852 59.4414C124.312 58.8789 123.898 58.2266 123.609 57.4844C123.32 56.7344 123.176 55.9375 123.176 55.0938V54.625C123.176 53.6641 123.312 52.7852 123.586 51.9883C123.859 51.1914 124.25 50.5 124.758 49.9141C125.273 49.3281 125.898 48.8789 126.633 48.5664C127.367 48.2461 128.195 48.0859 129.117 48.0859C130.016 48.0859 130.812 48.2344 131.508 48.5312C132.203 48.8281 132.785 49.25 133.254 49.7969C133.73 50.3438 134.09 51 134.332 51.7656C134.574 52.5234 134.695 53.3672 134.695 54.2969V55.7031H124.617V53.4531H131.379V53.1953C131.379 52.7266 131.293 52.3086 131.121 51.9414C130.957 51.5664 130.707 51.2695 130.371 51.0508C130.035 50.832 129.605 50.7227 129.082 50.7227C128.637 50.7227 128.254 50.8203 127.934 51.0156C127.613 51.2109 127.352 51.4844 127.148 51.8359C126.953 52.1875 126.805 52.6016 126.703 53.0781C126.609 53.5469 126.562 54.0625 126.562 54.625V55.0938C126.562 55.6016 126.633 56.0703 126.773 56.5C126.922 56.9297 127.129 57.3008 127.395 57.6133C127.668 57.9258 127.996 58.168 128.379 58.3398C128.77 58.5117 129.211 58.5977 129.703 58.5977C130.312 58.5977 130.879 58.4805 131.402 58.2461C131.934 58.0039 132.391 57.6406 132.773 57.1562L134.414 58.9375C134.148 59.3203 133.785 59.6875 133.324 60.0391C132.871 60.3906 132.324 60.6797 131.684 60.9062C131.043 61.125 130.312 61.2344 129.492 61.2344ZM143.461 58.1406V52.4922C143.461 52.0859 143.395 51.7383 143.262 51.4492C143.129 51.1523 142.922 50.9219 142.641 50.7578C142.367 50.5938 142.012 50.5117 141.574 50.5117C141.199 50.5117 140.875 50.5781 140.602 50.7109C140.328 50.8359 140.117 51.0195 139.969 51.2617C139.82 51.4961 139.746 51.7734 139.746 52.0938H136.371C136.371 51.5547 136.496 51.043 136.746 50.5586C136.996 50.0742 137.359 49.6484 137.836 49.2812C138.312 48.9062 138.879 48.6133 139.535 48.4023C140.199 48.1914 140.941 48.0859 141.762 48.0859C142.746 48.0859 143.621 48.25 144.387 48.5781C145.152 48.9062 145.754 49.3984 146.191 50.0547C146.637 50.7109 146.859 51.5312 146.859 52.5156V57.9414C146.859 58.6367 146.902 59.207 146.988 59.6523C147.074 60.0898 147.199 60.4727 147.363 60.8008V61H143.953C143.789 60.6562 143.664 60.2266 143.578 59.7109C143.5 59.1875 143.461 58.6641 143.461 58.1406ZM143.906 53.2773L143.93 55.1875H142.043C141.598 55.1875 141.211 55.2383 140.883 55.3398C140.555 55.4414 140.285 55.5859 140.074 55.7734C139.863 55.9531 139.707 56.1641 139.605 56.4062C139.512 56.6484 139.465 56.9141 139.465 57.2031C139.465 57.4922 139.531 57.7539 139.664 57.9883C139.797 58.2148 139.988 58.3945 140.238 58.5273C140.488 58.6523 140.781 58.7148 141.117 58.7148C141.625 58.7148 142.066 58.6133 142.441 58.4102C142.816 58.207 143.105 57.957 143.309 57.6602C143.52 57.3633 143.629 57.082 143.637 56.8164L144.527 58.2461C144.402 58.5664 144.23 58.8984 144.012 59.2422C143.801 59.5859 143.531 59.9102 143.203 60.2148C142.875 60.5117 142.48 60.7578 142.02 60.9531C141.559 61.1406 141.012 61.2344 140.379 61.2344C139.574 61.2344 138.844 61.0742 138.188 60.7539C137.539 60.4258 137.023 59.9766 136.641 59.4062C136.266 58.8281 136.078 58.1719 136.078 57.4375C136.078 56.7734 136.203 56.1836 136.453 55.668C136.703 55.1523 137.07 54.7188 137.555 54.3672C138.047 54.0078 138.66 53.7383 139.395 53.5586C140.129 53.3711 140.98 53.2773 141.949 53.2773H143.906ZM152.836 51.0859V61H149.461V48.3203H152.637L152.836 51.0859ZM156.656 48.2383L156.598 51.3672C156.434 51.3438 156.234 51.3242 156 51.3086C155.773 51.2852 155.566 51.2734 155.379 51.2734C154.902 51.2734 154.488 51.3359 154.137 51.4609C153.793 51.5781 153.504 51.7539 153.27 51.9883C153.043 52.2227 152.871 52.5078 152.754 52.8438C152.645 53.1797 152.582 53.5625 152.566 53.9922L151.887 53.7812C151.887 52.9609 151.969 52.207 152.133 51.5195C152.297 50.8242 152.535 50.2188 152.848 49.7031C153.168 49.1875 153.559 48.7891 154.02 48.5078C154.48 48.2266 155.008 48.0859 155.602 48.0859C155.789 48.0859 155.98 48.1016 156.176 48.1328C156.371 48.1562 156.531 48.1914 156.656 48.2383ZM165.047 48.3203V50.7109H157.664V48.3203H165.047ZM159.492 45.1914H162.867V57.1797C162.867 57.5469 162.914 57.8281 163.008 58.0234C163.109 58.2188 163.258 58.3555 163.453 58.4336C163.648 58.5039 163.895 58.5391 164.191 58.5391C164.402 58.5391 164.59 58.5312 164.754 58.5156C164.926 58.4922 165.07 58.4688 165.188 58.4453L165.199 60.9297C164.91 61.0234 164.598 61.0977 164.262 61.1523C163.926 61.207 163.555 61.2344 163.148 61.2344C162.406 61.2344 161.758 61.1133 161.203 60.8711C160.656 60.6211 160.234 60.2227 159.938 59.6758C159.641 59.1289 159.492 58.4102 159.492 57.5195V45.1914ZM178.395 61H174.68L174.703 58.2578H178.395C179.316 58.2578 180.094 58.0508 180.727 57.6367C181.359 57.2148 181.836 56.6016 182.156 55.7969C182.484 54.9922 182.648 54.0195 182.648 52.8789V52.0469C182.648 51.1719 182.555 50.4023 182.367 49.7383C182.188 49.0742 181.918 48.5156 181.559 48.0625C181.199 47.6094 180.758 47.2695 180.234 47.043C179.711 46.8086 179.109 46.6914 178.43 46.6914H174.609V43.9375H178.43C179.57 43.9375 180.613 44.1328 181.559 44.5234C182.512 44.9062 183.336 45.457 184.031 46.1758C184.727 46.8945 185.262 47.7539 185.637 48.7539C186.02 49.7461 186.211 50.8516 186.211 52.0703V52.8789C186.211 54.0898 186.02 55.1953 185.637 56.1953C185.262 57.1953 184.727 58.0547 184.031 58.7734C183.344 59.4844 182.52 60.0352 181.559 60.4258C180.605 60.8086 179.551 61 178.395 61ZM176.672 43.9375V61H173.156V43.9375H176.672ZM192.117 48.3203V61H188.73V48.3203H192.117ZM188.52 45.0156C188.52 44.5234 188.691 44.1172 189.035 43.7969C189.379 43.4766 189.84 43.3164 190.418 43.3164C190.988 43.3164 191.445 43.4766 191.789 43.7969C192.141 44.1172 192.316 44.5234 192.316 45.0156C192.316 45.5078 192.141 45.9141 191.789 46.2344C191.445 46.5547 190.988 46.7148 190.418 46.7148C189.84 46.7148 189.379 46.5547 189.035 46.2344C188.691 45.9141 188.52 45.5078 188.52 45.0156ZM201.762 57.4961C201.762 57.2539 201.691 57.0352 201.551 56.8398C201.41 56.6445 201.148 56.4648 200.766 56.3008C200.391 56.1289 199.848 55.9727 199.137 55.832C198.496 55.6914 197.898 55.5156 197.344 55.3047C196.797 55.0859 196.32 54.8242 195.914 54.5195C195.516 54.2148 195.203 53.8555 194.977 53.4414C194.75 53.0195 194.637 52.5391 194.637 52C194.637 51.4688 194.75 50.9688 194.977 50.5C195.211 50.0312 195.543 49.6172 195.973 49.2578C196.41 48.8906 196.941 48.6055 197.566 48.4023C198.199 48.1914 198.91 48.0859 199.699 48.0859C200.801 48.0859 201.746 48.2617 202.535 48.6133C203.332 48.9648 203.941 49.4492 204.363 50.0664C204.793 50.6758 205.008 51.3711 205.008 52.1523H201.633C201.633 51.8242 201.562 51.5312 201.422 51.2734C201.289 51.0078 201.078 50.8008 200.789 50.6523C200.508 50.4961 200.141 50.418 199.688 50.418C199.312 50.418 198.988 50.4844 198.715 50.6172C198.441 50.7422 198.23 50.9141 198.082 51.1328C197.941 51.3438 197.871 51.5781 197.871 51.8359C197.871 52.0312 197.91 52.207 197.988 52.3633C198.074 52.5117 198.211 52.6484 198.398 52.7734C198.586 52.8984 198.828 53.0156 199.125 53.125C199.43 53.2266 199.805 53.3203 200.25 53.4062C201.164 53.5938 201.98 53.8398 202.699 54.1445C203.418 54.4414 203.988 54.8477 204.41 55.3633C204.832 55.8711 205.043 56.5391 205.043 57.3672C205.043 57.9297 204.918 58.4453 204.668 58.9141C204.418 59.3828 204.059 59.793 203.59 60.1445C203.121 60.4883 202.559 60.7578 201.902 60.9531C201.254 61.1406 200.523 61.2344 199.711 61.2344C198.531 61.2344 197.531 61.0234 196.711 60.6016C195.898 60.1797 195.281 59.6445 194.859 58.9961C194.445 58.3398 194.238 57.668 194.238 56.9805H197.438C197.453 57.4414 197.57 57.8125 197.789 58.0938C198.016 58.375 198.301 58.5781 198.645 58.7031C198.996 58.8281 199.375 58.8906 199.781 58.8906C200.219 58.8906 200.582 58.832 200.871 58.7148C201.16 58.5898 201.379 58.4258 201.527 58.2227C201.684 58.0117 201.762 57.7695 201.762 57.4961ZM213.07 61.2344C212.086 61.2344 211.203 61.0781 210.422 60.7656C209.641 60.4453 208.977 60.0039 208.43 59.4414C207.891 58.8789 207.477 58.2266 207.188 57.4844C206.898 56.7344 206.754 55.9375 206.754 55.0938V54.625C206.754 53.6641 206.891 52.7852 207.164 51.9883C207.438 51.1914 207.828 50.5 208.336 49.9141C208.852 49.3281 209.477 48.8789 210.211 48.5664C210.945 48.2461 211.773 48.0859 212.695 48.0859C213.594 48.0859 214.391 48.2344 215.086 48.5312C215.781 48.8281 216.363 49.25 216.832 49.7969C217.309 50.3438 217.668 51 217.91 51.7656C218.152 52.5234 218.273 53.3672 218.273 54.2969V55.7031H208.195V53.4531H214.957V53.1953C214.957 52.7266 214.871 52.3086 214.699 51.9414C214.535 51.5664 214.285 51.2695 213.949 51.0508C213.613 50.832 213.184 50.7227 212.66 50.7227C212.215 50.7227 211.832 50.8203 211.512 51.0156C211.191 51.2109 210.93 51.4844 210.727 51.8359C210.531 52.1875 210.383 52.6016 210.281 53.0781C210.188 53.5469 210.141 54.0625 210.141 54.625V55.0938C210.141 55.6016 210.211 56.0703 210.352 56.5C210.5 56.9297 210.707 57.3008 210.973 57.6133C211.246 57.9258 211.574 58.168 211.957 58.3398C212.348 58.5117 212.789 58.5977 213.281 58.5977C213.891 58.5977 214.457 58.4805 214.98 58.2461C215.512 58.0039 215.969 57.6406 216.352 57.1562L217.992 58.9375C217.727 59.3203 217.363 59.6875 216.902 60.0391C216.449 60.3906 215.902 60.6797 215.262 60.9062C214.621 61.125 213.891 61.2344 213.07 61.2344ZM227.039 58.1406V52.4922C227.039 52.0859 226.973 51.7383 226.84 51.4492C226.707 51.1523 226.5 50.9219 226.219 50.7578C225.945 50.5938 225.59 50.5117 225.152 50.5117C224.777 50.5117 224.453 50.5781 224.18 50.7109C223.906 50.8359 223.695 51.0195 223.547 51.2617C223.398 51.4961 223.324 51.7734 223.324 52.0938H219.949C219.949 51.5547 220.074 51.043 220.324 50.5586C220.574 50.0742 220.938 49.6484 221.414 49.2812C221.891 48.9062 222.457 48.6133 223.113 48.4023C223.777 48.1914 224.52 48.0859 225.34 48.0859C226.324 48.0859 227.199 48.25 227.965 48.5781C228.73 48.9062 229.332 49.3984 229.77 50.0547C230.215 50.7109 230.438 51.5312 230.438 52.5156V57.9414C230.438 58.6367 230.48 59.207 230.566 59.6523C230.652 60.0898 230.777 60.4727 230.941 60.8008V61H227.531C227.367 60.6562 227.242 60.2266 227.156 59.7109C227.078 59.1875 227.039 58.6641 227.039 58.1406ZM227.484 53.2773L227.508 55.1875H225.621C225.176 55.1875 224.789 55.2383 224.461 55.3398C224.133 55.4414 223.863 55.5859 223.652 55.7734C223.441 55.9531 223.285 56.1641 223.184 56.4062C223.09 56.6484 223.043 56.9141 223.043 57.2031C223.043 57.4922 223.109 57.7539 223.242 57.9883C223.375 58.2148 223.566 58.3945 223.816 58.5273C224.066 58.6523 224.359 58.7148 224.695 58.7148C225.203 58.7148 225.645 58.6133 226.02 58.4102C226.395 58.207 226.684 57.957 226.887 57.6602C227.098 57.3633 227.207 57.082 227.215 56.8164L228.105 58.2461C227.98 58.5664 227.809 58.8984 227.59 59.2422C227.379 59.5859 227.109 59.9102 226.781 60.2148C226.453 60.5117 226.059 60.7578 225.598 60.9531C225.137 61.1406 224.59 61.2344 223.957 61.2344C223.152 61.2344 222.422 61.0742 221.766 60.7539C221.117 60.4258 220.602 59.9766 220.219 59.4062C219.844 58.8281 219.656 58.1719 219.656 57.4375C219.656 56.7734 219.781 56.1836 220.031 55.668C220.281 55.1523 220.648 54.7188 221.133 54.3672C221.625 54.0078 222.238 53.7383 222.973 53.5586C223.707 53.3711 224.559 53.2773 225.527 53.2773H227.484ZM239.895 57.4961C239.895 57.2539 239.824 57.0352 239.684 56.8398C239.543 56.6445 239.281 56.4648 238.898 56.3008C238.523 56.1289 237.98 55.9727 237.27 55.832C236.629 55.6914 236.031 55.5156 235.477 55.3047C234.93 55.0859 234.453 54.8242 234.047 54.5195C233.648 54.2148 233.336 53.8555 233.109 53.4414C232.883 53.0195 232.77 52.5391 232.77 52C232.77 51.4688 232.883 50.9688 233.109 50.5C233.344 50.0312 233.676 49.6172 234.105 49.2578C234.543 48.8906 235.074 48.6055 235.699 48.4023C236.332 48.1914 237.043 48.0859 237.832 48.0859C238.934 48.0859 239.879 48.2617 240.668 48.6133C241.465 48.9648 242.074 49.4492 242.496 50.0664C242.926 50.6758 243.141 51.3711 243.141 52.1523H239.766C239.766 51.8242 239.695 51.5312 239.555 51.2734C239.422 51.0078 239.211 50.8008 238.922 50.6523C238.641 50.4961 238.273 50.418 237.82 50.418C237.445 50.418 237.121 50.4844 236.848 50.6172C236.574 50.7422 236.363 50.9141 236.215 51.1328C236.074 51.3438 236.004 51.5781 236.004 51.8359C236.004 52.0312 236.043 52.207 236.121 52.3633C236.207 52.5117 236.344 52.6484 236.531 52.7734C236.719 52.8984 236.961 53.0156 237.258 53.125C237.562 53.2266 237.938 53.3203 238.383 53.4062C239.297 53.5938 240.113 53.8398 240.832 54.1445C241.551 54.4414 242.121 54.8477 242.543 55.3633C242.965 55.8711 243.176 56.5391 243.176 57.3672C243.176 57.9297 243.051 58.4453 242.801 58.9141C242.551 59.3828 242.191 59.793 241.723 60.1445C241.254 60.4883 240.691 60.7578 240.035 60.9531C239.387 61.1406 238.656 61.2344 237.844 61.2344C236.664 61.2344 235.664 61.0234 234.844 60.6016C234.031 60.1797 233.414 59.6445 232.992 58.9961C232.578 58.3398 232.371 57.668 232.371 56.9805H235.57C235.586 57.4414 235.703 57.8125 235.922 58.0938C236.148 58.375 236.434 58.5781 236.777 58.7031C237.129 58.8281 237.508 58.8906 237.914 58.8906C238.352 58.8906 238.715 58.832 239.004 58.7148C239.293 58.5898 239.512 58.4258 239.66 58.2227C239.816 58.0117 239.895 57.7695 239.895 57.4961ZM251.203 61.2344C250.219 61.2344 249.336 61.0781 248.555 60.7656C247.773 60.4453 247.109 60.0039 246.562 59.4414C246.023 58.8789 245.609 58.2266 245.32 57.4844C245.031 56.7344 244.887 55.9375 244.887 55.0938V54.625C244.887 53.6641 245.023 52.7852 245.297 51.9883C245.57 51.1914 245.961 50.5 246.469 49.9141C246.984 49.3281 247.609 48.8789 248.344 48.5664C249.078 48.2461 249.906 48.0859 250.828 48.0859C251.727 48.0859 252.523 48.2344 253.219 48.5312C253.914 48.8281 254.496 49.25 254.965 49.7969C255.441 50.3438 255.801 51 256.043 51.7656C256.285 52.5234 256.406 53.3672 256.406 54.2969V55.7031H246.328V53.4531H253.09V53.1953C253.09 52.7266 253.004 52.3086 252.832 51.9414C252.668 51.5664 252.418 51.2695 252.082 51.0508C251.746 50.832 251.316 50.7227 250.793 50.7227C250.348 50.7227 249.965 50.8203 249.645 51.0156C249.324 51.2109 249.062 51.4844 248.859 51.8359C248.664 52.1875 248.516 52.6016 248.414 53.0781C248.32 53.5469 248.273 54.0625 248.273 54.625V55.0938C248.273 55.6016 248.344 56.0703 248.484 56.5C248.633 56.9297 248.84 57.3008 249.105 57.6133C249.379 57.9258 249.707 58.168 250.09 58.3398C250.48 58.5117 250.922 58.5977 251.414 58.5977C252.023 58.5977 252.59 58.4805 253.113 58.2461C253.645 58.0039 254.102 57.6406 254.484 57.1562L256.125 58.9375C255.859 59.3203 255.496 59.6875 255.035 60.0391C254.582 60.3906 254.035 60.6797 253.395 60.9062C252.754 61.125 252.023 61.2344 251.203 61.2344ZM271.453 46.8555L266.812 61H263.074L269.414 43.9375H271.793L271.453 46.8555ZM275.309 61L270.656 46.8555L270.281 43.9375H272.684L279.059 61H275.309ZM275.098 54.6484V57.4023H266.086V54.6484H275.098ZM283.359 51.0273V61H279.984V48.3203H283.148L283.359 51.0273ZM282.867 54.2148H281.953C281.953 53.2773 282.074 52.4336 282.316 51.6836C282.559 50.9258 282.898 50.2812 283.336 49.75C283.773 49.2109 284.293 48.8008 284.895 48.5195C285.504 48.2305 286.184 48.0859 286.934 48.0859C287.527 48.0859 288.07 48.1719 288.562 48.3438C289.055 48.5156 289.477 48.7891 289.828 49.1641C290.188 49.5391 290.461 50.0352 290.648 50.6523C290.844 51.2695 290.941 52.0234 290.941 52.9141V61H287.543V52.9023C287.543 52.3398 287.465 51.9023 287.309 51.5898C287.152 51.2773 286.922 51.0586 286.617 50.9336C286.32 50.8008 285.953 50.7344 285.516 50.7344C285.062 50.7344 284.668 50.8242 284.332 51.0039C284.004 51.1836 283.73 51.4336 283.512 51.7539C283.301 52.0664 283.141 52.4336 283.031 52.8555C282.922 53.2773 282.867 53.7305 282.867 54.2148ZM300.352 58.1406V52.4922C300.352 52.0859 300.285 51.7383 300.152 51.4492C300.02 51.1523 299.812 50.9219 299.531 50.7578C299.258 50.5938 298.902 50.5117 298.465 50.5117C298.09 50.5117 297.766 50.5781 297.492 50.7109C297.219 50.8359 297.008 51.0195 296.859 51.2617C296.711 51.4961 296.637 51.7734 296.637 52.0938H293.262C293.262 51.5547 293.387 51.043 293.637 50.5586C293.887 50.0742 294.25 49.6484 294.727 49.2812C295.203 48.9062 295.77 48.6133 296.426 48.4023C297.09 48.1914 297.832 48.0859 298.652 48.0859C299.637 48.0859 300.512 48.25 301.277 48.5781C302.043 48.9062 302.645 49.3984 303.082 50.0547C303.527 50.7109 303.75 51.5312 303.75 52.5156V57.9414C303.75 58.6367 303.793 59.207 303.879 59.6523C303.965 60.0898 304.09 60.4727 304.254 60.8008V61H300.844C300.68 60.6562 300.555 60.2266 300.469 59.7109C300.391 59.1875 300.352 58.6641 300.352 58.1406ZM300.797 53.2773L300.82 55.1875H298.934C298.488 55.1875 298.102 55.2383 297.773 55.3398C297.445 55.4414 297.176 55.5859 296.965 55.7734C296.754 55.9531 296.598 56.1641 296.496 56.4062C296.402 56.6484 296.355 56.9141 296.355 57.2031C296.355 57.4922 296.422 57.7539 296.555 57.9883C296.688 58.2148 296.879 58.3945 297.129 58.5273C297.379 58.6523 297.672 58.7148 298.008 58.7148C298.516 58.7148 298.957 58.6133 299.332 58.4102C299.707 58.207 299.996 57.957 300.199 57.6602C300.41 57.3633 300.52 57.082 300.527 56.8164L301.418 58.2461C301.293 58.5664 301.121 58.8984 300.902 59.2422C300.691 59.5859 300.422 59.9102 300.094 60.2148C299.766 60.5117 299.371 60.7578 298.91 60.9531C298.449 61.1406 297.902 61.2344 297.27 61.2344C296.465 61.2344 295.734 61.0742 295.078 60.7539C294.43 60.4258 293.914 59.9766 293.531 59.4062C293.156 58.8281 292.969 58.1719 292.969 57.4375C292.969 56.7734 293.094 56.1836 293.344 55.668C293.594 55.1523 293.961 54.7188 294.445 54.3672C294.938 54.0078 295.551 53.7383 296.285 53.5586C297.02 53.3711 297.871 53.2773 298.84 53.2773H300.797ZM309.914 43V61H306.527V43H309.914ZM316.465 59.5703L319.828 48.3203H323.449L318.352 62.9102C318.242 63.2305 318.094 63.5742 317.906 63.9414C317.727 64.3086 317.48 64.6562 317.168 64.9844C316.863 65.3203 316.477 65.5938 316.008 65.8047C315.547 66.0156 314.98 66.1211 314.309 66.1211C313.988 66.1211 313.727 66.1016 313.523 66.0625C313.32 66.0234 313.078 65.9688 312.797 65.8984V63.4258C312.883 63.4258 312.973 63.4258 313.066 63.4258C313.16 63.4336 313.25 63.4375 313.336 63.4375C313.781 63.4375 314.145 63.3867 314.426 63.2852C314.707 63.1836 314.934 63.0273 315.105 62.8164C315.277 62.6133 315.414 62.3477 315.516 62.0195L316.465 59.5703ZM315.059 48.3203L317.812 57.5078L318.293 61.082L315.996 61.3281L311.438 48.3203H315.059ZM331.652 57.4961C331.652 57.2539 331.582 57.0352 331.441 56.8398C331.301 56.6445 331.039 56.4648 330.656 56.3008C330.281 56.1289 329.738 55.9727 329.027 55.832C328.387 55.6914 327.789 55.5156 327.234 55.3047C326.688 55.0859 326.211 54.8242 325.805 54.5195C325.406 54.2148 325.094 53.8555 324.867 53.4414C324.641 53.0195 324.527 52.5391 324.527 52C324.527 51.4688 324.641 50.9688 324.867 50.5C325.102 50.0312 325.434 49.6172 325.863 49.2578C326.301 48.8906 326.832 48.6055 327.457 48.4023C328.09 48.1914 328.801 48.0859 329.59 48.0859C330.691 48.0859 331.637 48.2617 332.426 48.6133C333.223 48.9648 333.832 49.4492 334.254 50.0664C334.684 50.6758 334.898 51.3711 334.898 52.1523H331.523C331.523 51.8242 331.453 51.5312 331.312 51.2734C331.18 51.0078 330.969 50.8008 330.68 50.6523C330.398 50.4961 330.031 50.418 329.578 50.418C329.203 50.418 328.879 50.4844 328.605 50.6172C328.332 50.7422 328.121 50.9141 327.973 51.1328C327.832 51.3438 327.762 51.5781 327.762 51.8359C327.762 52.0312 327.801 52.207 327.879 52.3633C327.965 52.5117 328.102 52.6484 328.289 52.7734C328.477 52.8984 328.719 53.0156 329.016 53.125C329.32 53.2266 329.695 53.3203 330.141 53.4062C331.055 53.5938 331.871 53.8398 332.59 54.1445C333.309 54.4414 333.879 54.8477 334.301 55.3633C334.723 55.8711 334.934 56.5391 334.934 57.3672C334.934 57.9297 334.809 58.4453 334.559 58.9141C334.309 59.3828 333.949 59.793 333.48 60.1445C333.012 60.4883 332.449 60.7578 331.793 60.9531C331.145 61.1406 330.414 61.2344 329.602 61.2344C328.422 61.2344 327.422 61.0234 326.602 60.6016C325.789 60.1797 325.172 59.6445 324.75 58.9961C324.336 58.3398 324.129 57.668 324.129 56.9805H327.328C327.344 57.4414 327.461 57.8125 327.68 58.0938C327.906 58.375 328.191 58.5781 328.535 58.7031C328.887 58.8281 329.266 58.8906 329.672 58.8906C330.109 58.8906 330.473 58.832 330.762 58.7148C331.051 58.5898 331.27 58.4258 331.418 58.2227C331.574 58.0117 331.652 57.7695 331.652 57.4961ZM340.688 48.3203V61H337.301V48.3203H340.688ZM337.09 45.0156C337.09 44.5234 337.262 44.1172 337.605 43.7969C337.949 43.4766 338.41 43.3164 338.988 43.3164C339.559 43.3164 340.016 43.4766 340.359 43.7969C340.711 44.1172 340.887 44.5234 340.887 45.0156C340.887 45.5078 340.711 45.9141 340.359 46.2344C340.016 46.5547 339.559 46.7148 338.988 46.7148C338.41 46.7148 337.949 46.5547 337.605 46.2344C337.262 45.9141 337.09 45.5078 337.09 45.0156ZM350.332 57.4961C350.332 57.2539 350.262 57.0352 350.121 56.8398C349.98 56.6445 349.719 56.4648 349.336 56.3008C348.961 56.1289 348.418 55.9727 347.707 55.832C347.066 55.6914 346.469 55.5156 345.914 55.3047C345.367 55.0859 344.891 54.8242 344.484 54.5195C344.086 54.2148 343.773 53.8555 343.547 53.4414C343.32 53.0195 343.207 52.5391 343.207 52C343.207 51.4688 343.32 50.9688 343.547 50.5C343.781 50.0312 344.113 49.6172 344.543 49.2578C344.98 48.8906 345.512 48.6055 346.137 48.4023C346.77 48.1914 347.48 48.0859 348.27 48.0859C349.371 48.0859 350.316 48.2617 351.105 48.6133C351.902 48.9648 352.512 49.4492 352.934 50.0664C353.363 50.6758 353.578 51.3711 353.578 52.1523H350.203C350.203 51.8242 350.133 51.5312 349.992 51.2734C349.859 51.0078 349.648 50.8008 349.359 50.6523C349.078 50.4961 348.711 50.418 348.258 50.418C347.883 50.418 347.559 50.4844 347.285 50.6172C347.012 50.7422 346.801 50.9141 346.652 51.1328C346.512 51.3438 346.441 51.5781 346.441 51.8359C346.441 52.0312 346.48 52.207 346.559 52.3633C346.645 52.5117 346.781 52.6484 346.969 52.7734C347.156 52.8984 347.398 53.0156 347.695 53.125C348 53.2266 348.375 53.3203 348.82 53.4062C349.734 53.5938 350.551 53.8398 351.27 54.1445C351.988 54.4414 352.559 54.8477 352.98 55.3633C353.402 55.8711 353.613 56.5391 353.613 57.3672C353.613 57.9297 353.488 58.4453 353.238 58.9141C352.988 59.3828 352.629 59.793 352.16 60.1445C351.691 60.4883 351.129 60.7578 350.473 60.9531C349.824 61.1406 349.094 61.2344 348.281 61.2344C347.102 61.2344 346.102 61.0234 345.281 60.6016C344.469 60.1797 343.852 59.6445 343.43 58.9961C343.016 58.3398 342.809 57.668 342.809 56.9805H346.008C346.023 57.4414 346.141 57.8125 346.359 58.0938C346.586 58.375 346.871 58.5781 347.215 58.7031C347.566 58.8281 347.945 58.8906 348.352 58.8906C348.789 58.8906 349.152 58.832 349.441 58.7148C349.73 58.5898 349.949 58.4258 350.098 58.2227C350.254 58.0117 350.332 57.7695 350.332 57.4961ZM368.625 58.1406V52.4922C368.625 52.0859 368.559 51.7383 368.426 51.4492C368.293 51.1523 368.086 50.9219 367.805 50.7578C367.531 50.5938 367.176 50.5117 366.738 50.5117C366.363 50.5117 366.039 50.5781 365.766 50.7109C365.492 50.8359 365.281 51.0195 365.133 51.2617C364.984 51.4961 364.91 51.7734 364.91 52.0938H361.535C361.535 51.5547 361.66 51.043 361.91 50.5586C362.16 50.0742 362.523 49.6484 363 49.2812C363.477 48.9062 364.043 48.6133 364.699 48.4023C365.363 48.1914 366.105 48.0859 366.926 48.0859C367.91 48.0859 368.785 48.25 369.551 48.5781C370.316 48.9062 370.918 49.3984 371.355 50.0547C371.801 50.7109 372.023 51.5312 372.023 52.5156V57.9414C372.023 58.6367 372.066 59.207 372.152 59.6523C372.238 60.0898 372.363 60.4727 372.527 60.8008V61H369.117C368.953 60.6562 368.828 60.2266 368.742 59.7109C368.664 59.1875 368.625 58.6641 368.625 58.1406ZM369.07 53.2773L369.094 55.1875H367.207C366.762 55.1875 366.375 55.2383 366.047 55.3398C365.719 55.4414 365.449 55.5859 365.238 55.7734C365.027 55.9531 364.871 56.1641 364.77 56.4062C364.676 56.6484 364.629 56.9141 364.629 57.2031C364.629 57.4922 364.695 57.7539 364.828 57.9883C364.961 58.2148 365.152 58.3945 365.402 58.5273C365.652 58.6523 365.945 58.7148 366.281 58.7148C366.789 58.7148 367.23 58.6133 367.605 58.4102C367.98 58.207 368.27 57.957 368.473 57.6602C368.684 57.3633 368.793 57.082 368.801 56.8164L369.691 58.2461C369.566 58.5664 369.395 58.8984 369.176 59.2422C368.965 59.5859 368.695 59.9102 368.367 60.2148C368.039 60.5117 367.645 60.7578 367.184 60.9531C366.723 61.1406 366.176 61.2344 365.543 61.2344C364.738 61.2344 364.008 61.0742 363.352 60.7539C362.703 60.4258 362.188 59.9766 361.805 59.4062C361.43 58.8281 361.242 58.1719 361.242 57.4375C361.242 56.7734 361.367 56.1836 361.617 55.668C361.867 55.1523 362.234 54.7188 362.719 54.3672C363.211 54.0078 363.824 53.7383 364.559 53.5586C365.293 53.3711 366.145 53.2773 367.113 53.2773H369.07ZM377.93 51.0273V61H374.555V48.3203H377.719L377.93 51.0273ZM377.438 54.2148H376.523C376.523 53.2773 376.645 52.4336 376.887 51.6836C377.129 50.9258 377.469 50.2812 377.906 49.75C378.344 49.2109 378.863 48.8008 379.465 48.5195C380.074 48.2305 380.754 48.0859 381.504 48.0859C382.098 48.0859 382.641 48.1719 383.133 48.3438C383.625 48.5156 384.047 48.7891 384.398 49.1641C384.758 49.5391 385.031 50.0352 385.219 50.6523C385.414 51.2695 385.512 52.0234 385.512 52.9141V61H382.113V52.9023C382.113 52.3398 382.035 51.9023 381.879 51.5898C381.723 51.2773 381.492 51.0586 381.188 50.9336C380.891 50.8008 380.523 50.7344 380.086 50.7344C379.633 50.7344 379.238 50.8242 378.902 51.0039C378.574 51.1836 378.301 51.4336 378.082 51.7539C377.871 52.0664 377.711 52.4336 377.602 52.8555C377.492 53.2773 377.438 53.7305 377.438 54.2148ZM395.566 58.2344V43H398.965V61H395.906L395.566 58.2344ZM387.551 54.8125V54.5664C387.551 53.5977 387.66 52.7188 387.879 51.9297C388.098 51.1328 388.418 50.4492 388.84 49.8789C389.262 49.3086 389.781 48.8672 390.398 48.5547C391.016 48.2422 391.719 48.0859 392.508 48.0859C393.25 48.0859 393.898 48.2422 394.453 48.5547C395.016 48.8672 395.492 49.3125 395.883 49.8906C396.281 50.4609 396.602 51.1367 396.844 51.918C397.086 52.6914 397.262 53.5391 397.371 54.4609V55C397.262 55.8828 397.086 56.7031 396.844 57.4609C396.602 58.2188 396.281 58.8828 395.883 59.4531C395.492 60.0156 395.016 60.4531 394.453 60.7656C393.891 61.0781 393.234 61.2344 392.484 61.2344C391.695 61.2344 390.992 61.0742 390.375 60.7539C389.766 60.4336 389.25 59.9844 388.828 59.4062C388.414 58.8281 388.098 58.1484 387.879 57.3672C387.66 56.5859 387.551 55.7344 387.551 54.8125ZM390.926 54.5664V54.8125C390.926 55.3359 390.965 55.8242 391.043 56.2773C391.129 56.7305 391.266 57.1328 391.453 57.4844C391.648 57.8281 391.898 58.0977 392.203 58.293C392.516 58.4805 392.895 58.5742 393.34 58.5742C393.918 58.5742 394.395 58.4453 394.77 58.1875C395.145 57.9219 395.43 57.5586 395.625 57.0977C395.828 56.6367 395.945 56.1055 395.977 55.5039V53.9688C395.953 53.4766 395.883 53.0352 395.766 52.6445C395.656 52.2461 395.492 51.9062 395.273 51.625C395.062 51.3438 394.797 51.125 394.477 50.9688C394.164 50.8125 393.793 50.7344 393.363 50.7344C392.926 50.7344 392.551 50.8359 392.238 51.0391C391.926 51.2344 391.672 51.5039 391.477 51.8477C391.289 52.1914 391.148 52.5977 391.055 53.0664C390.969 53.5273 390.926 54.0273 390.926 54.5664ZM414.434 54.918H410.086V52.1758H414.434C415.105 52.1758 415.652 52.0664 416.074 51.8477C416.496 51.6211 416.805 51.3086 417 50.9102C417.195 50.5117 417.293 50.0625 417.293 49.5625C417.293 49.0547 417.195 48.582 417 48.1445C416.805 47.707 416.496 47.3555 416.074 47.0898C415.652 46.8242 415.105 46.6914 414.434 46.6914H411.305V61H407.789V43.9375H414.434C415.77 43.9375 416.914 44.1797 417.867 44.6641C418.828 45.1406 419.562 45.8008 420.07 46.6445C420.578 47.4883 420.832 48.4531 420.832 49.5391C420.832 50.6406 420.578 51.5938 420.07 52.3984C419.562 53.2031 418.828 53.8242 417.867 54.2617C416.914 54.6992 415.77 54.918 414.434 54.918ZM426.422 51.0859V61H423.047V48.3203H426.223L426.422 51.0859ZM430.242 48.2383L430.184 51.3672C430.02 51.3438 429.82 51.3242 429.586 51.3086C429.359 51.2852 429.152 51.2734 428.965 51.2734C428.488 51.2734 428.074 51.3359 427.723 51.4609C427.379 51.5781 427.09 51.7539 426.855 51.9883C426.629 52.2227 426.457 52.5078 426.34 52.8438C426.23 53.1797 426.168 53.5625 426.152 53.9922L425.473 53.7812C425.473 52.9609 425.555 52.207 425.719 51.5195C425.883 50.8242 426.121 50.2188 426.434 49.7031C426.754 49.1875 427.145 48.7891 427.605 48.5078C428.066 48.2266 428.594 48.0859 429.188 48.0859C429.375 48.0859 429.566 48.1016 429.762 48.1328C429.957 48.1562 430.117 48.1914 430.242 48.2383ZM437.438 61.2344C436.453 61.2344 435.57 61.0781 434.789 60.7656C434.008 60.4453 433.344 60.0039 432.797 59.4414C432.258 58.8789 431.844 58.2266 431.555 57.4844C431.266 56.7344 431.121 55.9375 431.121 55.0938V54.625C431.121 53.6641 431.258 52.7852 431.531 51.9883C431.805 51.1914 432.195 50.5 432.703 49.9141C433.219 49.3281 433.844 48.8789 434.578 48.5664C435.312 48.2461 436.141 48.0859 437.062 48.0859C437.961 48.0859 438.758 48.2344 439.453 48.5312C440.148 48.8281 440.73 49.25 441.199 49.7969C441.676 50.3438 442.035 51 442.277 51.7656C442.52 52.5234 442.641 53.3672 442.641 54.2969V55.7031H432.562V53.4531H439.324V53.1953C439.324 52.7266 439.238 52.3086 439.066 51.9414C438.902 51.5664 438.652 51.2695 438.316 51.0508C437.98 50.832 437.551 50.7227 437.027 50.7227C436.582 50.7227 436.199 50.8203 435.879 51.0156C435.559 51.2109 435.297 51.4844 435.094 51.8359C434.898 52.1875 434.75 52.6016 434.648 53.0781C434.555 53.5469 434.508 54.0625 434.508 54.625V55.0938C434.508 55.6016 434.578 56.0703 434.719 56.5C434.867 56.9297 435.074 57.3008 435.34 57.6133C435.613 57.9258 435.941 58.168 436.324 58.3398C436.715 58.5117 437.156 58.5977 437.648 58.5977C438.258 58.5977 438.824 58.4805 439.348 58.2461C439.879 58.0039 440.336 57.6406 440.719 57.1562L442.359 58.9375C442.094 59.3203 441.73 59.6875 441.27 60.0391C440.816 60.3906 440.27 60.6797 439.629 60.9062C438.988 61.125 438.258 61.2344 437.438 61.2344ZM452.051 58.2344V43H455.449V61H452.391L452.051 58.2344ZM444.035 54.8125V54.5664C444.035 53.5977 444.145 52.7188 444.363 51.9297C444.582 51.1328 444.902 50.4492 445.324 49.8789C445.746 49.3086 446.266 48.8672 446.883 48.5547C447.5 48.2422 448.203 48.0859 448.992 48.0859C449.734 48.0859 450.383 48.2422 450.938 48.5547C451.5 48.8672 451.977 49.3125 452.367 49.8906C452.766 50.4609 453.086 51.1367 453.328 51.918C453.57 52.6914 453.746 53.5391 453.855 54.4609V55C453.746 55.8828 453.57 56.7031 453.328 57.4609C453.086 58.2188 452.766 58.8828 452.367 59.4531C451.977 60.0156 451.5 60.4531 450.938 60.7656C450.375 61.0781 449.719 61.2344 448.969 61.2344C448.18 61.2344 447.477 61.0742 446.859 60.7539C446.25 60.4336 445.734 59.9844 445.312 59.4062C444.898 58.8281 444.582 58.1484 444.363 57.3672C444.145 56.5859 444.035 55.7344 444.035 54.8125ZM447.41 54.5664V54.8125C447.41 55.3359 447.449 55.8242 447.527 56.2773C447.613 56.7305 447.75 57.1328 447.938 57.4844C448.133 57.8281 448.383 58.0977 448.688 58.293C449 58.4805 449.379 58.5742 449.824 58.5742C450.402 58.5742 450.879 58.4453 451.254 58.1875C451.629 57.9219 451.914 57.5586 452.109 57.0977C452.312 56.6367 452.43 56.1055 452.461 55.5039V53.9688C452.438 53.4766 452.367 53.0352 452.25 52.6445C452.141 52.2461 451.977 51.9062 451.758 51.625C451.547 51.3438 451.281 51.125 450.961 50.9688C450.648 50.8125 450.277 50.7344 449.848 50.7344C449.41 50.7344 449.035 50.8359 448.723 51.0391C448.41 51.2344 448.156 51.5039 447.961 51.8477C447.773 52.1914 447.633 52.5977 447.539 53.0664C447.453 53.5273 447.41 54.0273 447.41 54.5664ZM461.648 48.3203V61H458.262V48.3203H461.648ZM458.051 45.0156C458.051 44.5234 458.223 44.1172 458.566 43.7969C458.91 43.4766 459.371 43.3164 459.949 43.3164C460.52 43.3164 460.977 43.4766 461.32 43.7969C461.672 44.1172 461.848 44.5234 461.848 45.0156C461.848 45.5078 461.672 45.9141 461.32 46.2344C460.977 46.5547 460.52 46.7148 459.949 46.7148C459.371 46.7148 458.91 46.5547 458.566 46.2344C458.223 45.9141 458.051 45.5078 458.051 45.0156ZM469.676 58.5977C470.09 58.5977 470.457 58.5195 470.777 58.3633C471.098 58.1992 471.348 57.9727 471.527 57.6836C471.715 57.3867 471.812 57.0391 471.82 56.6406H474.996C474.988 57.5312 474.75 58.3242 474.281 59.0195C473.812 59.707 473.184 60.25 472.395 60.6484C471.605 61.0391 470.723 61.2344 469.746 61.2344C468.762 61.2344 467.902 61.0703 467.168 60.7422C466.441 60.4141 465.836 59.9609 465.352 59.3828C464.867 58.7969 464.504 58.1172 464.262 57.3438C464.02 56.5625 463.898 55.7266 463.898 54.8359V54.4961C463.898 53.5977 464.02 52.7617 464.262 51.9883C464.504 51.207 464.867 50.5273 465.352 49.9492C465.836 49.3633 466.441 48.9062 467.168 48.5781C467.895 48.25 468.746 48.0859 469.723 48.0859C470.762 48.0859 471.672 48.2852 472.453 48.6836C473.242 49.082 473.859 49.6523 474.305 50.3945C474.758 51.1289 474.988 52 474.996 53.0078H471.82C471.812 52.5859 471.723 52.2031 471.551 51.8594C471.387 51.5156 471.145 51.2422 470.824 51.0391C470.512 50.8281 470.125 50.7227 469.664 50.7227C469.172 50.7227 468.77 50.8281 468.457 51.0391C468.145 51.2422 467.902 51.5234 467.73 51.8828C467.559 52.2344 467.438 52.6367 467.367 53.0898C467.305 53.5352 467.273 54.0039 467.273 54.4961V54.8359C467.273 55.3281 467.305 55.8008 467.367 56.2539C467.43 56.707 467.547 57.1094 467.719 57.4609C467.898 57.8125 468.145 58.0898 468.457 58.293C468.77 58.4961 469.176 58.5977 469.676 58.5977ZM483.164 48.3203V50.7109H475.781V48.3203H483.164ZM477.609 45.1914H480.984V57.1797C480.984 57.5469 481.031 57.8281 481.125 58.0234C481.227 58.2188 481.375 58.3555 481.57 58.4336C481.766 58.5039 482.012 58.5391 482.309 58.5391C482.52 58.5391 482.707 58.5312 482.871 58.5156C483.043 58.4922 483.188 58.4688 483.305 58.4453L483.316 60.9297C483.027 61.0234 482.715 61.0977 482.379 61.1523C482.043 61.207 481.672 61.2344 481.266 61.2344C480.523 61.2344 479.875 61.1133 479.32 60.8711C478.773 60.6211 478.352 60.2227 478.055 59.6758C477.758 59.1289 477.609 58.4102 477.609 57.5195V45.1914ZM484.242 54.7891V54.543C484.242 53.6133 484.375 52.7578 484.641 51.9766C484.906 51.1875 485.293 50.5039 485.801 49.9258C486.309 49.3477 486.934 48.8984 487.676 48.5781C488.418 48.25 489.27 48.0859 490.23 48.0859C491.191 48.0859 492.047 48.25 492.797 48.5781C493.547 48.8984 494.176 49.3477 494.684 49.9258C495.199 50.5039 495.59 51.1875 495.855 51.9766C496.121 52.7578 496.254 53.6133 496.254 54.543V54.7891C496.254 55.7109 496.121 56.5664 495.855 57.3555C495.59 58.1367 495.199 58.8203 494.684 59.4062C494.176 59.9844 493.551 60.4336 492.809 60.7539C492.066 61.0742 491.215 61.2344 490.254 61.2344C489.293 61.2344 488.438 61.0742 487.688 60.7539C486.945 60.4336 486.316 59.9844 485.801 59.4062C485.293 58.8203 484.906 58.1367 484.641 57.3555C484.375 56.5664 484.242 55.7109 484.242 54.7891ZM487.617 54.543V54.7891C487.617 55.3203 487.664 55.8164 487.758 56.2773C487.852 56.7383 488 57.1445 488.203 57.4961C488.414 57.8398 488.688 58.1094 489.023 58.3047C489.359 58.5 489.77 58.5977 490.254 58.5977C490.723 58.5977 491.125 58.5 491.461 58.3047C491.797 58.1094 492.066 57.8398 492.27 57.4961C492.473 57.1445 492.621 56.7383 492.715 56.2773C492.816 55.8164 492.867 55.3203 492.867 54.7891V54.543C492.867 54.0273 492.816 53.543 492.715 53.0898C492.621 52.6289 492.469 52.2227 492.258 51.8711C492.055 51.5117 491.785 51.2305 491.449 51.0273C491.113 50.8242 490.707 50.7227 490.23 50.7227C489.754 50.7227 489.348 50.8242 489.012 51.0273C488.684 51.2305 488.414 51.5117 488.203 51.8711C488 52.2227 487.852 52.6289 487.758 53.0898C487.664 53.543 487.617 54.0273 487.617 54.543ZM501.703 51.0859V61H498.328V48.3203H501.504L501.703 51.0859ZM505.523 48.2383L505.465 51.3672C505.301 51.3438 505.102 51.3242 504.867 51.3086C504.641 51.2852 504.434 51.2734 504.246 51.2734C503.77 51.2734 503.355 51.3359 503.004 51.4609C502.66 51.5781 502.371 51.7539 502.137 51.9883C501.91 52.2227 501.738 52.5078 501.621 52.8438C501.512 53.1797 501.449 53.5625 501.434 53.9922L500.754 53.7812C500.754 52.9609 500.836 52.207 501 51.5195C501.164 50.8242 501.402 50.2188 501.715 49.7031C502.035 49.1875 502.426 48.7891 502.887 48.5078C503.348 48.2266 503.875 48.0859 504.469 48.0859C504.656 48.0859 504.848 48.1016 505.043 48.1328C505.238 48.1562 505.398 48.1914 505.523 48.2383Z" fill="#888888"/>
<path d="M109.219 107.422H100.734V101.07H109.219C110.375 101.07 111.312 100.875 112.031 100.484C112.75 100.094 113.273 99.5547 113.602 98.8672C113.945 98.1641 114.117 97.375 114.117 96.5C114.117 95.5625 113.945 94.6953 113.602 93.8984C113.273 93.1016 112.75 92.4609 112.031 91.9766C111.312 91.4766 110.375 91.2266 109.219 91.2266H103.828V119H95.6016V84.875H109.219C111.953 84.875 114.305 85.375 116.273 86.375C118.258 87.375 119.781 88.75 120.844 90.5C121.906 92.2344 122.438 94.2188 122.438 96.4531C122.438 98.6562 121.906 100.578 120.844 102.219C119.781 103.859 118.258 105.141 116.273 106.062C114.305 106.969 111.953 107.422 109.219 107.422ZM134.461 99.9219V119H126.562V93.6406H133.945L134.461 99.9219ZM141.961 93.4531L141.82 100.789C141.508 100.758 141.086 100.719 140.555 100.672C140.023 100.625 139.578 100.602 139.219 100.602C138.297 100.602 137.5 100.711 136.828 100.93C136.172 101.133 135.625 101.445 135.188 101.867C134.766 102.273 134.453 102.789 134.25 103.414C134.062 104.039 133.977 104.766 133.992 105.594L132.562 104.656C132.562 102.953 132.727 101.406 133.055 100.016C133.398 98.6094 133.883 97.3984 134.508 96.3828C135.133 95.3516 135.891 94.5625 136.781 94.0156C137.672 93.4531 138.672 93.1719 139.781 93.1719C140.172 93.1719 140.555 93.1953 140.93 93.2422C141.32 93.2891 141.664 93.3594 141.961 93.4531ZM142.852 106.578V106.086C142.852 104.227 143.117 102.516 143.648 100.953C144.18 99.375 144.961 98.0078 145.992 96.8516C147.023 95.6953 148.297 94.7969 149.812 94.1562C151.328 93.5 153.078 93.1719 155.062 93.1719C157.062 93.1719 158.82 93.5 160.336 94.1562C161.867 94.7969 163.148 95.6953 164.18 96.8516C165.211 98.0078 165.992 99.375 166.523 100.953C167.055 102.516 167.32 104.227 167.32 106.086V106.578C167.32 108.422 167.055 110.133 166.523 111.711C165.992 113.273 165.211 114.641 164.18 115.812C163.148 116.969 161.875 117.867 160.359 118.508C158.844 119.148 157.094 119.469 155.109 119.469C153.125 119.469 151.367 119.148 149.836 118.508C148.305 117.867 147.023 116.969 145.992 115.812C144.961 114.641 144.18 113.273 143.648 111.711C143.117 110.133 142.852 108.422 142.852 106.578ZM150.75 106.086V106.578C150.75 107.531 150.82 108.422 150.961 109.25C151.102 110.078 151.336 110.805 151.664 111.43C151.992 112.039 152.438 112.516 153 112.859C153.562 113.203 154.266 113.375 155.109 113.375C155.938 113.375 156.625 113.203 157.172 112.859C157.734 112.516 158.18 112.039 158.508 111.43C158.836 110.805 159.07 110.078 159.211 109.25C159.352 108.422 159.422 107.531 159.422 106.578V106.086C159.422 105.164 159.352 104.297 159.211 103.484C159.07 102.656 158.836 101.93 158.508 101.305C158.18 100.664 157.734 100.164 157.172 99.8047C156.609 99.4453 155.906 99.2656 155.062 99.2656C154.234 99.2656 153.539 99.4453 152.977 99.8047C152.43 100.164 151.992 100.664 151.664 101.305C151.336 101.93 151.102 102.656 150.961 103.484C150.82 104.297 150.75 105.164 150.75 106.086ZM171.422 93.6406H179.344V119.82C179.344 121.852 178.953 123.562 178.172 124.953C177.391 126.359 176.273 127.422 174.82 128.141C173.367 128.875 171.633 129.242 169.617 129.242C168.945 129.242 168.328 129.211 167.766 129.148C167.188 129.102 166.555 129 165.867 128.844V122.867C166.273 122.93 166.648 122.977 166.992 123.008C167.336 123.055 167.711 123.078 168.117 123.078C168.836 123.078 169.438 122.961 169.922 122.727C170.406 122.492 170.773 122.133 171.023 121.648C171.289 121.164 171.422 120.555 171.422 119.82V93.6406ZM170.836 87.1016C170.836 85.9766 171.242 85.0547 172.055 84.3359C172.867 83.6172 173.922 83.2578 175.219 83.2578C176.516 83.2578 177.57 83.6172 178.383 84.3359C179.195 85.0547 179.602 85.9766 179.602 87.1016C179.602 88.2266 179.195 89.1484 178.383 89.8672C177.57 90.5859 176.516 90.9453 175.219 90.9453C173.922 90.9453 172.867 90.5859 172.055 89.8672C171.242 89.1484 170.836 88.2266 170.836 87.1016ZM196.102 119.469C194.039 119.469 192.195 119.148 190.57 118.508C188.945 117.852 187.57 116.953 186.445 115.812C185.336 114.672 184.484 113.359 183.891 111.875C183.312 110.391 183.023 108.82 183.023 107.164V106.273C183.023 104.414 183.281 102.695 183.797 101.117C184.312 99.5234 185.078 98.1328 186.094 96.9453C187.109 95.7578 188.383 94.8359 189.914 94.1797C191.445 93.5078 193.227 93.1719 195.258 93.1719C197.055 93.1719 198.664 93.4609 200.086 94.0391C201.508 94.6172 202.711 95.4453 203.695 96.5234C204.695 97.6016 205.453 98.9062 205.969 100.438C206.5 101.969 206.766 103.688 206.766 105.594V108.805H186.047V103.859H199.055V103.25C199.07 102.406 198.922 101.688 198.609 101.094C198.312 100.5 197.875 100.047 197.297 99.7344C196.719 99.4219 196.016 99.2656 195.188 99.2656C194.328 99.2656 193.617 99.4531 193.055 99.8281C192.508 100.203 192.078 100.719 191.766 101.375C191.469 102.016 191.258 102.758 191.133 103.602C191.008 104.445 190.945 105.336 190.945 106.273V107.164C190.945 108.102 191.07 108.953 191.32 109.719C191.586 110.484 191.961 111.141 192.445 111.688C192.945 112.219 193.539 112.633 194.227 112.93C194.93 113.227 195.727 113.375 196.617 113.375C197.695 113.375 198.758 113.172 199.805 112.766C200.852 112.359 201.75 111.688 202.5 110.75L206.086 115.016C205.57 115.75 204.836 116.461 203.883 117.148C202.945 117.836 201.82 118.398 200.508 118.836C199.195 119.258 197.727 119.469 196.102 119.469ZM220.688 113.375C221.422 113.375 222.047 113.242 222.562 112.977C223.094 112.695 223.492 112.305 223.758 111.805C224.039 111.289 224.172 110.672 224.156 109.953H231.586C231.602 111.859 231.133 113.531 230.18 114.969C229.242 116.391 227.961 117.5 226.336 118.297C224.727 119.078 222.906 119.469 220.875 119.469C218.891 119.469 217.156 119.148 215.672 118.508C214.188 117.852 212.945 116.945 211.945 115.789C210.961 114.617 210.219 113.25 209.719 111.688C209.234 110.125 208.992 108.43 208.992 106.602V106.062C208.992 104.234 209.234 102.539 209.719 100.977C210.219 99.3984 210.961 98.0312 211.945 96.875C212.945 95.7031 214.18 94.7969 215.648 94.1562C217.133 93.5 218.859 93.1719 220.828 93.1719C222.938 93.1719 224.797 93.5703 226.406 94.3672C228.031 95.1641 229.305 96.3203 230.227 97.8359C231.148 99.3516 231.602 101.188 231.586 103.344H224.156C224.172 102.578 224.055 101.891 223.805 101.281C223.555 100.672 223.164 100.188 222.633 99.8281C222.117 99.4531 221.453 99.2656 220.641 99.2656C219.828 99.2656 219.172 99.4453 218.672 99.8047C218.172 100.164 217.789 100.664 217.523 101.305C217.273 101.93 217.102 102.648 217.008 103.461C216.93 104.273 216.891 105.141 216.891 106.062V106.602C216.891 107.539 216.93 108.422 217.008 109.25C217.102 110.062 217.281 110.781 217.547 111.406C217.812 112.016 218.195 112.5 218.695 112.859C219.195 113.203 219.859 113.375 220.688 113.375ZM248.32 93.6406V99.125H233.039V93.6406H248.32ZM236.25 87.3359H244.148V110.727C244.148 111.398 244.227 111.922 244.383 112.297C244.539 112.656 244.805 112.914 245.18 113.07C245.57 113.211 246.086 113.281 246.727 113.281C247.18 113.281 247.555 113.273 247.852 113.258C248.148 113.227 248.43 113.188 248.695 113.141V118.789C248.023 119.008 247.32 119.172 246.586 119.281C245.852 119.406 245.07 119.469 244.242 119.469C242.555 119.469 241.109 119.203 239.906 118.672C238.719 118.141 237.812 117.305 237.188 116.164C236.562 115.023 236.25 113.539 236.25 111.711V87.3359ZM277.406 107.422H268.922V101.07H277.406C278.562 101.07 279.5 100.875 280.219 100.484C280.938 100.094 281.461 99.5547 281.789 98.8672C282.133 98.1641 282.305 97.375 282.305 96.5C282.305 95.5625 282.133 94.6953 281.789 93.8984C281.461 93.1016 280.938 92.4609 280.219 91.9766C279.5 91.4766 278.562 91.2266 277.406 91.2266H272.016V119H263.789V84.875H277.406C280.141 84.875 282.492 85.375 284.461 86.375C286.445 87.375 287.969 88.75 289.031 90.5C290.094 92.2344 290.625 94.2188 290.625 96.4531C290.625 98.6562 290.094 100.578 289.031 102.219C287.969 103.859 286.445 105.141 284.461 106.062C282.492 106.969 280.141 107.422 277.406 107.422ZM302.414 83V119H294.516V83H302.414ZM301.477 105.453L299.625 105.5C299.625 103.719 299.844 102.078 300.281 100.578C300.719 99.0781 301.344 97.7734 302.156 96.6641C302.969 95.5547 303.945 94.6953 305.086 94.0859C306.227 93.4766 307.492 93.1719 308.883 93.1719C310.133 93.1719 311.273 93.3516 312.305 93.7109C313.352 94.0703 314.25 94.6484 315 95.4453C315.766 96.2422 316.352 97.2812 316.758 98.5625C317.18 99.8438 317.391 101.406 317.391 103.25V119H309.445V103.203C309.445 102.172 309.297 101.375 309 100.812C308.719 100.234 308.312 99.8359 307.781 99.6172C307.25 99.3828 306.602 99.2656 305.836 99.2656C304.914 99.2656 304.164 99.4219 303.586 99.7344C303.008 100.047 302.562 100.484 302.25 101.047C301.953 101.594 301.75 102.242 301.641 102.992C301.531 103.742 301.477 104.562 301.477 105.453ZM330.117 93.6406V119H322.195V93.6406H330.117ZM321.727 87.1016C321.727 85.9766 322.133 85.0547 322.945 84.3359C323.758 83.6172 324.812 83.2578 326.109 83.2578C327.406 83.2578 328.461 83.6172 329.273 84.3359C330.086 85.0547 330.492 85.9766 330.492 87.1016C330.492 88.2266 330.086 89.1484 329.273 89.8672C328.461 90.5859 327.406 90.9453 326.109 90.9453C324.812 90.9453 323.758 90.5859 322.945 89.8672C322.133 89.1484 321.727 88.2266 321.727 87.1016ZM343.336 83V119H335.414V83H343.336ZM347.227 106.578V106.086C347.227 104.227 347.492 102.516 348.023 100.953C348.555 99.375 349.336 98.0078 350.367 96.8516C351.398 95.6953 352.672 94.7969 354.188 94.1562C355.703 93.5 357.453 93.1719 359.438 93.1719C361.438 93.1719 363.195 93.5 364.711 94.1562C366.242 94.7969 367.523 95.6953 368.555 96.8516C369.586 98.0078 370.367 99.375 370.898 100.953C371.43 102.516 371.695 104.227 371.695 106.086V106.578C371.695 108.422 371.43 110.133 370.898 111.711C370.367 113.273 369.586 114.641 368.555 115.812C367.523 116.969 366.25 117.867 364.734 118.508C363.219 119.148 361.469 119.469 359.484 119.469C357.5 119.469 355.742 119.148 354.211 118.508C352.68 117.867 351.398 116.969 350.367 115.812C349.336 114.641 348.555 113.273 348.023 111.711C347.492 110.133 347.227 108.422 347.227 106.578ZM355.125 106.086V106.578C355.125 107.531 355.195 108.422 355.336 109.25C355.477 110.078 355.711 110.805 356.039 111.43C356.367 112.039 356.812 112.516 357.375 112.859C357.938 113.203 358.641 113.375 359.484 113.375C360.312 113.375 361 113.203 361.547 112.859C362.109 112.516 362.555 112.039 362.883 111.43C363.211 110.805 363.445 110.078 363.586 109.25C363.727 108.422 363.797 107.531 363.797 106.578V106.086C363.797 105.164 363.727 104.297 363.586 103.484C363.445 102.656 363.211 101.93 362.883 101.305C362.555 100.664 362.109 100.164 361.547 99.8047C360.984 99.4453 360.281 99.2656 359.438 99.2656C358.609 99.2656 357.914 99.4453 357.352 99.8047C356.805 100.164 356.367 100.664 356.039 101.305C355.711 101.93 355.477 102.656 355.336 103.484C355.195 104.297 355.125 105.164 355.125 106.086ZM388.5 111.875C388.5 111.438 388.352 111.062 388.055 110.75C387.773 110.422 387.273 110.125 386.555 109.859C385.836 109.578 384.828 109.297 383.531 109.016C382.297 108.75 381.133 108.398 380.039 107.961C378.961 107.523 378.016 106.992 377.203 106.367C376.391 105.742 375.75 105 375.281 104.141C374.828 103.281 374.602 102.297 374.602 101.188C374.602 100.109 374.828 99.0938 375.281 98.1406C375.75 97.1719 376.43 96.3203 377.32 95.5859C378.227 94.8359 379.328 94.25 380.625 93.8281C381.922 93.3906 383.398 93.1719 385.055 93.1719C387.336 93.1719 389.305 93.5234 390.961 94.2266C392.617 94.9141 393.891 95.8828 394.781 97.1328C395.688 98.3672 396.141 99.7969 396.141 101.422H388.242C388.242 100.781 388.133 100.234 387.914 99.7812C387.711 99.3281 387.375 98.9844 386.906 98.75C386.438 98.5 385.812 98.375 385.031 98.375C384.484 98.375 383.984 98.4766 383.531 98.6797C383.094 98.8828 382.742 99.1641 382.477 99.5234C382.211 99.8828 382.078 100.305 382.078 100.789C382.078 101.133 382.156 101.445 382.312 101.727C382.484 101.992 382.742 102.242 383.086 102.477C383.43 102.695 383.867 102.898 384.398 103.086C384.93 103.258 385.57 103.414 386.32 103.555C388.023 103.867 389.617 104.312 391.102 104.891C392.586 105.469 393.789 106.289 394.711 107.352C395.648 108.414 396.117 109.844 396.117 111.641C396.117 112.766 395.859 113.805 395.344 114.758C394.828 115.695 394.086 116.523 393.117 117.242C392.148 117.945 390.984 118.492 389.625 118.883C388.266 119.273 386.734 119.469 385.031 119.469C382.609 119.469 380.562 119.039 378.891 118.18C377.219 117.305 375.953 116.211 375.094 114.898C374.25 113.57 373.828 112.227 373.828 110.867H381.188C381.219 111.648 381.406 112.289 381.75 112.789C382.109 113.289 382.586 113.656 383.18 113.891C383.773 114.125 384.461 114.242 385.242 114.242C385.961 114.242 386.555 114.141 387.023 113.938C387.508 113.734 387.875 113.461 388.125 113.117C388.375 112.758 388.5 112.344 388.5 111.875ZM398.836 106.578V106.086C398.836 104.227 399.102 102.516 399.633 100.953C400.164 99.375 400.945 98.0078 401.977 96.8516C403.008 95.6953 404.281 94.7969 405.797 94.1562C407.312 93.5 409.062 93.1719 411.047 93.1719C413.047 93.1719 414.805 93.5 416.32 94.1562C417.852 94.7969 419.133 95.6953 420.164 96.8516C421.195 98.0078 421.977 99.375 422.508 100.953C423.039 102.516 423.305 104.227 423.305 106.086V106.578C423.305 108.422 423.039 110.133 422.508 111.711C421.977 113.273 421.195 114.641 420.164 115.812C419.133 116.969 417.859 117.867 416.344 118.508C414.828 119.148 413.078 119.469 411.094 119.469C409.109 119.469 407.352 119.148 405.82 118.508C404.289 117.867 403.008 116.969 401.977 115.812C400.945 114.641 400.164 113.273 399.633 111.711C399.102 110.133 398.836 108.422 398.836 106.578ZM406.734 106.086V106.578C406.734 107.531 406.805 108.422 406.945 109.25C407.086 110.078 407.32 110.805 407.648 111.43C407.977 112.039 408.422 112.516 408.984 112.859C409.547 113.203 410.25 113.375 411.094 113.375C411.922 113.375 412.609 113.203 413.156 112.859C413.719 112.516 414.164 112.039 414.492 111.43C414.82 110.805 415.055 110.078 415.195 109.25C415.336 108.422 415.406 107.531 415.406 106.578V106.086C415.406 105.164 415.336 104.297 415.195 103.484C415.055 102.656 414.82 101.93 414.492 101.305C414.164 100.664 413.719 100.164 413.156 99.8047C412.594 99.4453 411.891 99.2656 411.047 99.2656C410.219 99.2656 409.523 99.4453 408.961 99.8047C408.414 100.164 407.977 100.664 407.648 101.305C407.32 101.93 407.086 102.656 406.945 103.484C406.805 104.297 406.734 105.164 406.734 106.086ZM434.789 98.5156V128.75H426.891V93.6406H434.25L434.789 98.5156ZM450.352 106.016V106.508C450.352 108.352 450.141 110.062 449.719 111.641C449.297 113.219 448.672 114.594 447.844 115.766C447.016 116.938 445.984 117.852 444.75 118.508C443.531 119.148 442.117 119.469 440.508 119.469C438.992 119.469 437.688 119.133 436.594 118.461C435.5 117.789 434.586 116.859 433.852 115.672C433.117 114.484 432.523 113.125 432.07 111.594C431.617 110.062 431.258 108.445 430.992 106.742V106.109C431.258 104.281 431.617 102.586 432.07 101.023C432.523 99.4453 433.117 98.0703 433.852 96.8984C434.586 95.7266 435.492 94.8125 436.57 94.1562C437.664 93.5 438.969 93.1719 440.484 93.1719C442.094 93.1719 443.508 93.4766 444.727 94.0859C445.961 94.6953 446.992 95.5703 447.82 96.7109C448.664 97.8359 449.297 99.1875 449.719 100.766C450.141 102.344 450.352 104.094 450.352 106.016ZM442.453 106.508V106.016C442.453 105.031 442.383 104.133 442.242 103.32C442.102 102.492 441.875 101.773 441.562 101.164C441.266 100.555 440.867 100.086 440.367 99.7578C439.867 99.4297 439.25 99.2656 438.516 99.2656C437.672 99.2656 436.961 99.3984 436.383 99.6641C435.82 99.9141 435.367 100.305 435.023 100.836C434.695 101.352 434.461 102 434.32 102.781C434.195 103.547 434.141 104.445 434.156 105.477V107.398C434.125 108.586 434.242 109.633 434.508 110.539C434.773 111.43 435.234 112.125 435.891 112.625C436.547 113.125 437.438 113.375 438.562 113.375C439.312 113.375 439.938 113.203 440.438 112.859C440.938 112.5 441.336 112.008 441.633 111.383C441.93 110.742 442.141 110.008 442.266 109.18C442.391 108.352 442.453 107.461 442.453 106.508ZM461.602 83V119H453.703V83H461.602ZM460.664 105.453L458.812 105.5C458.812 103.719 459.031 102.078 459.469 100.578C459.906 99.0781 460.531 97.7734 461.344 96.6641C462.156 95.5547 463.133 94.6953 464.273 94.0859C465.414 93.4766 466.68 93.1719 468.07 93.1719C469.32 93.1719 470.461 93.3516 471.492 93.7109C472.539 94.0703 473.438 94.6484 474.188 95.4453C474.953 96.2422 475.539 97.2812 475.945 98.5625C476.367 99.8438 476.578 101.406 476.578 103.25V119H468.633V103.203C468.633 102.172 468.484 101.375 468.188 100.812C467.906 100.234 467.5 99.8359 466.969 99.6172C466.438 99.3828 465.789 99.2656 465.023 99.2656C464.102 99.2656 463.352 99.4219 462.773 99.7344C462.195 100.047 461.75 100.484 461.438 101.047C461.141 101.594 460.938 102.242 460.828 102.992C460.719 103.742 460.664 104.562 460.664 105.453ZM488.742 116.023L495.305 93.6406H503.789L493.594 122.773C493.375 123.414 493.086 124.102 492.727 124.836C492.367 125.586 491.875 126.297 491.25 126.969C490.625 127.641 489.82 128.188 488.836 128.609C487.867 129.031 486.664 129.242 485.227 129.242C484.461 129.242 483.898 129.203 483.539 129.125C483.195 129.062 482.664 128.945 481.945 128.773V123.125C482.148 123.125 482.32 123.125 482.461 123.125C482.617 123.125 482.789 123.125 482.977 123.125C483.82 123.125 484.492 123.039 484.992 122.867C485.508 122.695 485.898 122.445 486.164 122.117C486.445 121.789 486.664 121.391 486.82 120.922L488.742 116.023ZM487.078 93.6406L492.07 111.383L492.938 119.75H487.641L478.617 93.6406H487.078Z" fill="black"/>
<path d="M1134 0H1348C1356.28 0 1363 6.71573 1363 15V148C1363 156.284 1356.28 163 1348 163H1134V0Z" fill="#488891"/>
<path d="M1234.26 103.786H1262.74V109.357H1234.26V103.786ZM1239.96 114.929H1257.04V120.5H1239.96V114.929ZM1248.5 42.5C1240.95 42.5 1233.71 45.4349 1228.37 50.6592C1223.03 55.8834 1220.03 62.969 1220.03 70.3571C1219.84 74.4057 1220.63 78.4412 1222.34 82.1315C1224.05 85.8219 1226.64 89.0616 1229.88 91.5843C1232.73 94.175 1234.26 95.6514 1234.26 98.2143H1239.96C1239.96 93.0886 1236.8 90.2193 1233.72 87.4614C1231.06 85.4676 1228.94 82.8658 1227.55 79.8838C1226.15 76.9019 1225.53 73.6308 1225.72 70.3571C1225.72 64.4466 1228.12 58.7781 1232.39 54.5988C1236.67 50.4194 1242.46 48.0714 1248.5 48.0714C1254.54 48.0714 1260.33 50.4194 1264.61 54.5988C1268.88 58.7781 1271.28 64.4466 1271.28 70.3571C1271.47 73.6333 1270.84 76.9059 1269.44 79.888C1268.04 82.8701 1265.92 85.4706 1263.25 87.4614C1260.2 90.2471 1257.04 93.0329 1257.04 98.2143H1262.74C1262.74 95.6514 1264.25 94.175 1267.12 91.5564C1270.36 89.0381 1272.94 85.8031 1274.66 82.1176C1276.37 78.4321 1277.16 74.4014 1276.97 70.3571C1276.97 66.6989 1276.24 63.0765 1274.81 59.6967C1273.37 56.3169 1271.28 53.2459 1268.63 50.6592C1265.99 48.0724 1262.85 46.0205 1259.4 44.6205C1255.94 43.2205 1252.24 42.5 1248.5 42.5Z" fill="white"/>
</svg>
